<?xml version="1.0" encoding="utf-8" standalone="no"?>
<!DOCTYPE svg PUBLIC "-//W3C//DTD SVG 1.1//EN"
  "http://www.w3.org/Graphics/SVG/1.1/DTD/svg11.dtd">
<svg xmlns:xlink="http://www.w3.org/1999/xlink" width="475.916375pt" height="208.474375pt" viewBox="0 0 475.916375 208.474375" xmlns="http://www.w3.org/2000/svg" version="1.1">
 <metadata>
  <rdf:RDF xmlns:dc="http://purl.org/dc/elements/1.1/" xmlns:cc="http://creativecommons.org/ns#" xmlns:rdf="http://www.w3.org/1999/02/22-rdf-syntax-ns#">
   <cc:Work>
    <dc:type rdf:resource="http://purl.org/dc/dcmitype/StillImage"/>
    <dc:date>2025-12-10T14:20:45.499699</dc:date>
    <dc:format>image/svg+xml</dc:format>
    <dc:creator>
     <cc:Agent>
      <dc:title>Matplotlib v3.10.6, https://matplotlib.org/</dc:title>
     </cc:Agent>
    </dc:creator>
   </cc:Work>
  </rdf:RDF>
 </metadata>
 <defs>
  <style type="text/css">*{stroke-linejoin: round; stroke-linecap: butt}</style>
 </defs>
 <g id="figure_1">
  <g id="patch_1">
   <path d="M 0 208.474375 
L 475.916375 208.474375 
L 475.916375 0 
L 0 0 
z
" style="fill: #ffffff"/>
  </g>
  <g id="axes_1">
   <g id="patch_2">
    <path d="M 103.641562 170.918125 
L 273.681562 170.918125 
L 273.681562 22.318125 
L 103.641562 22.318125 
z
" style="fill: #ffffff"/>
   </g>
   <g id="PathCollection_1">
    <path d="M 146.91931 108.876531 
C 148.245326 108.876531 149.51721 108.349699 150.454844 107.412065 
C 151.392479 106.47443 151.91931 105.202546 151.91931 103.876531 
C 151.91931 102.550515 151.392479 101.278631 150.454844 100.340997 
C 149.51721 99.403362 148.245326 98.876531 146.91931 98.876531 
C 145.593295 98.876531 144.321411 99.403362 143.383776 100.340997 
C 142.446142 101.278631 141.91931 102.550515 141.91931 103.876531 
C 141.91931 105.202546 142.446142 106.47443 143.383776 107.412065 
C 144.321411 108.349699 145.593295 108.876531 146.91931 108.876531 
z
" clip-path="url(#pcf77cac039)" style="fill: #1f77b4; stroke: #ffffff; stroke-width: 0.8"/>
    <path d="M 202.548784 107.572836 
L 205.048784 105.072836 
L 207.548784 107.572836 
L 210.048784 105.072836 
L 207.548784 102.572836 
L 210.048784 100.072836 
L 207.548784 97.572836 
L 205.048784 100.072836 
L 202.548784 97.572836 
L 200.048784 100.072836 
L 202.548784 102.572836 
L 200.048784 105.072836 
z
" clip-path="url(#pcf77cac039)" style="fill: #1f77b4; stroke: #ffffff; stroke-width: 0.8"/>
    <path d="M 199.255168 101.010461 
L 199.255168 108.081529 
L 206.326236 108.081529 
L 206.326236 101.010461 
z
" clip-path="url(#pcf77cac039)" style="fill: #1f77b4; stroke: #ffffff; stroke-width: 0.8"/>
    <path d="M 155.435504 128.291004 
C 156.761519 128.291004 158.033403 127.764172 158.971038 126.826538 
C 159.908672 125.888903 160.435504 124.61702 160.435504 123.291004 
C 160.435504 121.964989 159.908672 120.693105 158.971038 119.75547 
C 158.033403 118.817836 156.761519 118.291004 155.435504 118.291004 
C 154.109488 118.291004 152.837605 118.817836 151.89997 119.75547 
C 150.962335 120.693105 150.435504 121.964989 150.435504 123.291004 
C 150.435504 124.61702 150.962335 125.888903 151.89997 126.826538 
C 152.837605 127.764172 154.109488 128.291004 155.435504 128.291004 
z
" clip-path="url(#pcf77cac039)" style="fill: #1f77b4; stroke: #ffffff; stroke-width: 0.8"/>
    <path d="M 202.548784 107.572836 
L 205.048784 105.072836 
L 207.548784 107.572836 
L 210.048784 105.072836 
L 207.548784 102.572836 
L 210.048784 100.072836 
L 207.548784 97.572836 
L 205.048784 100.072836 
L 202.548784 97.572836 
L 200.048784 100.072836 
L 202.548784 102.572836 
L 200.048784 105.072836 
z
" clip-path="url(#pcf77cac039)" style="fill: #1f77b4; stroke: #ffffff; stroke-width: 0.8"/>
    <path d="M 219.835969 95.231925 
L 219.835969 102.302993 
L 226.907037 102.302993 
L 226.907037 95.231925 
z
" clip-path="url(#pcf77cac039)" style="fill: #1f77b4; stroke: #ffffff; stroke-width: 0.8"/>
    <path d="M 161.435549 127.938654 
C 162.761565 127.938654 164.033449 127.411823 164.971083 126.474188 
C 165.908718 125.536554 166.435549 124.26467 166.435549 122.938654 
C 166.435549 121.612639 165.908718 120.340755 164.971083 119.40312 
C 164.033449 118.465486 162.761565 117.938654 161.435549 117.938654 
C 160.109534 117.938654 158.83765 118.465486 157.900016 119.40312 
C 156.962381 120.340755 156.435549 121.612639 156.435549 122.938654 
C 156.435549 124.26467 156.962381 125.536554 157.900016 126.474188 
C 158.83765 127.411823 160.109534 127.938654 161.435549 127.938654 
z
" clip-path="url(#pcf77cac039)" style="fill: #1f77b4; stroke: #ffffff; stroke-width: 0.8"/>
    <path d="M 202.548784 107.572836 
L 205.048784 105.072836 
L 207.548784 107.572836 
L 210.048784 105.072836 
L 207.548784 102.572836 
L 210.048784 100.072836 
L 207.548784 97.572836 
L 205.048784 100.072836 
L 202.548784 97.572836 
L 200.048784 100.072836 
L 202.548784 102.572836 
L 200.048784 105.072836 
z
" clip-path="url(#pcf77cac039)" style="fill: #1f77b4; stroke: #ffffff; stroke-width: 0.8"/>
    <path d="M 248.481348 64.260378 
L 248.481348 71.331446 
L 255.552416 71.331446 
L 255.552416 64.260378 
z
" clip-path="url(#pcf77cac039)" style="fill: #1f77b4; stroke: #ffffff; stroke-width: 0.8"/>
    <path d="M 113.112602 146.014198 
C 114.438618 146.014198 115.710501 145.487367 116.648136 144.549732 
C 117.585771 143.612098 118.112602 142.340214 118.112602 141.014198 
C 118.112602 139.688183 117.585771 138.416299 116.648136 137.478665 
C 115.710501 136.54103 114.438618 136.014198 113.112602 136.014198 
C 111.786587 136.014198 110.514703 136.54103 109.577068 137.478665 
C 108.639434 138.416299 108.112602 139.688183 108.112602 141.014198 
C 108.112602 142.340214 108.639434 143.612098 109.577068 144.549732 
C 110.514703 145.487367 111.786587 146.014198 113.112602 146.014198 
z
" clip-path="url(#pcf77cac039)" style="fill: #ff7f0e; stroke: #ffffff; stroke-width: 0.8"/>
    <path d="M 189.387393 106.445317 
L 191.887393 103.945317 
L 194.387393 106.445317 
L 196.887393 103.945317 
L 194.387393 101.445317 
L 196.887393 98.945317 
L 194.387393 96.445317 
L 191.887393 98.945317 
L 189.387393 96.445317 
L 186.887393 98.945317 
L 189.387393 101.445317 
L 186.887393 103.945317 
z
" clip-path="url(#pcf77cac039)" style="fill: #ff7f0e; stroke: #ffffff; stroke-width: 0.8"/>
    <path d="M 209.835894 92.201717 
L 209.835894 99.272784 
L 216.906961 99.272784 
L 216.906961 92.201717 
z
" clip-path="url(#pcf77cac039)" style="fill: #ff7f0e; stroke: #ffffff; stroke-width: 0.8"/>
    <path d="M 133.048237 139.354787 
C 134.374253 139.354787 135.646137 138.827956 136.583771 137.890321 
C 137.521406 136.952687 138.048237 135.680803 138.048237 134.354787 
C 138.048237 133.028772 137.521406 131.756888 136.583771 130.819253 
C 135.646137 129.881619 134.374253 129.354787 133.048237 129.354787 
C 131.722222 129.354787 130.450338 129.881619 129.512703 130.819253 
C 128.575069 131.756888 128.048237 133.028772 128.048237 134.354787 
C 128.048237 135.680803 128.575069 136.952687 129.512703 137.890321 
C 130.450338 138.827956 131.722222 139.354787 133.048237 139.354787 
z
" clip-path="url(#pcf77cac039)" style="fill: #ff7f0e; stroke: #ffffff; stroke-width: 0.8"/>
    <path d="M 189.387393 106.445317 
L 191.887393 103.945317 
L 194.387393 106.445317 
L 196.887393 103.945317 
L 194.387393 101.445317 
L 196.887393 98.945317 
L 194.387393 96.445317 
L 191.887393 98.945317 
L 189.387393 96.445317 
L 186.887393 98.945317 
L 189.387393 101.445317 
L 186.887393 103.945317 
z
" clip-path="url(#pcf77cac039)" style="fill: #ff7f0e; stroke: #ffffff; stroke-width: 0.8"/>
    <path d="M 230.932828 81.983573 
L 230.932828 89.054641 
L 238.003896 89.054641 
L 238.003896 81.983573 
z
" clip-path="url(#pcf77cac039)" style="fill: #ff7f0e; stroke: #ffffff; stroke-width: 0.8"/>
    <path d="M 162.661365 102.111415 
C 163.987381 102.111415 165.259265 101.584583 166.196899 100.646949 
C 167.134534 99.709314 167.661365 98.43743 167.661365 97.111415 
C 167.661365 95.785399 167.134534 94.513515 166.196899 93.575881 
C 165.259265 92.638246 163.987381 92.111415 162.661365 92.111415 
C 161.33535 92.111415 160.063466 92.638246 159.125831 93.575881 
C 158.188197 94.513515 157.661365 95.785399 157.661365 97.111415 
C 157.661365 98.43743 158.188197 99.709314 159.125831 100.646949 
C 160.063466 101.584583 161.33535 102.111415 162.661365 102.111415 
z
" clip-path="url(#pcf77cac039)" style="fill: #ff7f0e; stroke: #ffffff; stroke-width: 0.8"/>
    <path d="M 189.387393 106.445317 
L 191.887393 103.945317 
L 194.387393 106.445317 
L 196.887393 103.945317 
L 194.387393 101.445317 
L 196.887393 98.945317 
L 194.387393 96.445317 
L 191.887393 98.945317 
L 189.387393 96.445317 
L 186.887393 98.945317 
L 189.387393 101.445317 
L 186.887393 103.945317 
z
" clip-path="url(#pcf77cac039)" style="fill: #ff7f0e; stroke: #ffffff; stroke-width: 0.8"/>
    <path d="M 222.739217 71.659724 
L 222.739217 78.730792 
L 229.810285 78.730792 
L 229.810285 71.659724 
z
" clip-path="url(#pcf77cac039)" style="fill: #ff7f0e; stroke: #ffffff; stroke-width: 0.8"/>
    <path d="M 114.725518 145.027619 
C 116.051533 145.027619 117.323417 144.500787 118.261051 143.563153 
C 119.198686 142.625518 119.725518 141.353635 119.725518 140.027619 
C 119.725518 138.701604 119.198686 137.42972 118.261051 136.492085 
C 117.323417 135.554451 116.051533 135.027619 114.725518 135.027619 
C 113.399502 135.027619 112.127618 135.554451 111.189984 136.492085 
C 110.252349 137.42972 109.725518 138.701604 109.725518 140.027619 
C 109.725518 141.353635 110.252349 142.625518 111.189984 143.563153 
C 112.127618 144.500787 113.399502 145.027619 114.725518 145.027619 
z
" clip-path="url(#pcf77cac039)" style="fill: #2ca02c; stroke: #ffffff; stroke-width: 0.8"/>
    <path d="M 206.548814 74.029137 
L 209.048814 71.529137 
L 211.548814 74.029137 
L 214.048814 71.529137 
L 211.548814 69.029137 
L 214.048814 66.529137 
L 211.548814 64.029137 
L 209.048814 66.529137 
L 206.548814 64.029137 
L 204.048814 66.529137 
L 206.548814 69.029137 
L 204.048814 71.529137 
z
" clip-path="url(#pcf77cac039)" style="fill: #2ca02c; stroke: #ffffff; stroke-width: 0.8"/>
    <path d="M 212.093975 84.168141 
L 212.093975 91.239209 
L 219.165043 91.239209 
L 219.165043 84.168141 
z
" clip-path="url(#pcf77cac039)" style="fill: #2ca02c; stroke: #ffffff; stroke-width: 0.8"/>
    <path d="M 135.112769 144.640034 
C 136.438785 144.640034 137.710668 144.113203 138.648303 143.175568 
C 139.585938 142.237934 140.112769 140.96605 140.112769 139.640034 
C 140.112769 138.314019 139.585938 137.042135 138.648303 136.1045 
C 137.710668 135.166866 136.438785 134.640034 135.112769 134.640034 
C 133.786754 134.640034 132.51487 135.166866 131.577235 136.1045 
C 130.639601 137.042135 130.112769 138.314019 130.112769 139.640034 
C 130.112769 140.96605 130.639601 142.237934 131.577235 143.175568 
C 132.51487 144.113203 133.786754 144.640034 135.112769 144.640034 
z
" clip-path="url(#pcf77cac039)" style="fill: #2ca02c; stroke: #ffffff; stroke-width: 0.8"/>
    <path d="M 206.548814 74.029137 
L 209.048814 71.529137 
L 211.548814 74.029137 
L 214.048814 71.529137 
L 211.548814 69.029137 
L 214.048814 66.529137 
L 211.548814 64.029137 
L 209.048814 66.529137 
L 206.548814 64.029137 
L 204.048814 66.529137 
L 206.548814 69.029137 
L 204.048814 71.529137 
z
" clip-path="url(#pcf77cac039)" style="fill: #2ca02c; stroke: #ffffff; stroke-width: 0.8"/>
    <path d="M 215.06174 86.28224 
L 215.06174 93.353308 
L 222.132807 93.353308 
L 222.132807 86.28224 
z
" clip-path="url(#pcf77cac039)" style="fill: #2ca02c; stroke: #ffffff; stroke-width: 0.8"/>
    <path d="M 164.016214 98.446977 
C 165.34223 98.446977 166.614114 97.920145 167.551748 96.982511 
C 168.489383 96.044876 169.016214 94.772992 169.016214 93.446977 
C 169.016214 92.120961 168.489383 90.849078 167.551748 89.911443 
C 166.614114 88.973808 165.34223 88.446977 164.016214 88.446977 
C 162.690199 88.446977 161.418315 88.973808 160.48068 89.911443 
C 159.543046 90.849078 159.016214 92.120961 159.016214 93.446977 
C 159.016214 94.772992 159.543046 96.044876 160.48068 96.982511 
C 161.418315 97.920145 162.690199 98.446977 164.016214 98.446977 
z
" clip-path="url(#pcf77cac039)" style="fill: #2ca02c; stroke: #ffffff; stroke-width: 0.8"/>
    <path d="M 206.548814 74.029137 
L 209.048814 71.529137 
L 211.548814 74.029137 
L 214.048814 71.529137 
L 211.548814 69.029137 
L 214.048814 66.529137 
L 211.548814 64.029137 
L 209.048814 66.529137 
L 206.548814 64.029137 
L 204.048814 66.529137 
L 206.548814 69.029137 
L 204.048814 71.529137 
z
" clip-path="url(#pcf77cac039)" style="fill: #2ca02c; stroke: #ffffff; stroke-width: 0.8"/>
    <path d="M 234.481242 49.990212 
L 234.481242 57.06128 
L 241.55231 57.06128 
L 241.55231 49.990212 
z
" clip-path="url(#pcf77cac039)" style="fill: #2ca02c; stroke: #ffffff; stroke-width: 0.8"/>
    <path d="M 122.725578 143.47728 
C 124.051594 143.47728 125.323478 142.950448 126.261112 142.012814 
C 127.198747 141.075179 127.725578 139.803295 127.725578 138.47728 
C 127.725578 137.151264 127.198747 135.879381 126.261112 134.941746 
C 125.323478 134.004111 124.051594 133.47728 122.725578 133.47728 
C 121.399563 133.47728 120.127679 134.004111 119.190044 134.941746 
C 118.25241 135.879381 117.725578 137.151264 117.725578 138.47728 
C 117.725578 139.803295 118.25241 141.075179 119.190044 142.012814 
C 120.127679 142.950448 121.399563 143.47728 122.725578 143.47728 
z
" clip-path="url(#pcf77cac039)" style="fill: #d62728; stroke: #ffffff; stroke-width: 0.8"/>
    <path d="M 204.226216 90.378167 
L 206.726216 87.878167 
L 209.226216 90.378167 
L 211.726216 87.878167 
L 209.226216 85.378167 
L 211.726216 82.878167 
L 209.226216 80.378167 
L 206.726216 82.878167 
L 204.226216 80.378167 
L 201.726216 82.878167 
L 204.226216 85.378167 
L 201.726216 87.878167 
z
" clip-path="url(#pcf77cac039)" style="fill: #d62728; stroke: #ffffff; stroke-width: 0.8"/>
    <path d="M 256.997542 58.270432 
L 256.997542 65.3415 
L 264.06861 65.3415 
L 264.06861 58.270432 
z
" clip-path="url(#pcf77cac039)" style="fill: #d62728; stroke: #ffffff; stroke-width: 0.8"/>
    <path d="M 142.080564 127.797714 
C 143.406579 127.797714 144.678463 127.270883 145.616098 126.333248 
C 146.553732 125.395614 147.080564 124.12373 147.080564 122.797714 
C 147.080564 121.471699 146.553732 120.199815 145.616098 119.26218 
C 144.678463 118.324546 143.406579 117.797714 142.080564 117.797714 
C 140.754548 117.797714 139.482665 118.324546 138.54503 119.26218 
C 137.607395 120.199815 137.080564 121.471699 137.080564 122.797714 
C 137.080564 124.12373 137.607395 125.395614 138.54503 126.333248 
C 139.482665 127.270883 140.754548 127.797714 142.080564 127.797714 
z
" clip-path="url(#pcf77cac039)" style="fill: #d62728; stroke: #ffffff; stroke-width: 0.8"/>
    <path d="M 204.226216 90.378167 
L 206.726216 87.878167 
L 209.226216 90.378167 
L 211.726216 87.878167 
L 209.226216 85.378167 
L 211.726216 82.878167 
L 209.226216 80.378167 
L 206.726216 82.878167 
L 204.226216 80.378167 
L 201.726216 82.878167 
L 204.226216 85.378167 
L 201.726216 87.878167 
z
" clip-path="url(#pcf77cac039)" style="fill: #d62728; stroke: #ffffff; stroke-width: 0.8"/>
    <path d="M 248.997481 60.842585 
L 248.997481 67.913653 
L 256.068549 67.913653 
L 256.068549 60.842585 
z
" clip-path="url(#pcf77cac039)" style="fill: #d62728; stroke: #ffffff; stroke-width: 0.8"/>
    <path d="M 146.016078 91.470451 
C 147.342093 91.470451 148.613977 90.94362 149.551612 90.005985 
C 150.489246 89.06835 151.016078 87.796467 151.016078 86.470451 
C 151.016078 85.144436 150.489246 83.872552 149.551612 82.934917 
C 148.613977 81.997283 147.342093 81.470451 146.016078 81.470451 
C 144.690062 81.470451 143.418178 81.997283 142.480544 82.934917 
C 141.542909 83.872552 141.016078 85.144436 141.016078 86.470451 
C 141.016078 87.796467 141.542909 89.06835 142.480544 90.005985 
C 143.418178 90.94362 144.690062 91.470451 146.016078 91.470451 
z
" clip-path="url(#pcf77cac039)" style="fill: #d62728; stroke: #ffffff; stroke-width: 0.8"/>
    <path d="M 204.226216 90.378167 
L 206.726216 87.878167 
L 209.226216 90.378167 
L 211.726216 87.878167 
L 209.226216 85.378167 
L 211.726216 82.878167 
L 209.226216 80.378167 
L 206.726216 82.878167 
L 204.226216 80.378167 
L 201.726216 82.878167 
L 204.226216 85.378167 
L 201.726216 87.878167 
z
" clip-path="url(#pcf77cac039)" style="fill: #d62728; stroke: #ffffff; stroke-width: 0.8"/>
    <path d="M 262.416938 25.537137 
L 262.416938 32.608204 
L 269.488005 32.608204 
L 269.488005 25.537137 
z
" clip-path="url(#pcf77cac039)" style="fill: #d62728; stroke: #ffffff; stroke-width: 0.8"/>
    <path d="M 111.370653 169.16358 
C 112.696669 169.16358 113.968553 168.636748 114.906187 167.699113 
C 115.843822 166.761479 116.370653 165.489595 116.370653 164.16358 
C 116.370653 162.837564 115.843822 161.56568 114.906187 160.628046 
C 113.968553 159.690411 112.696669 159.16358 111.370653 159.16358 
C 110.044638 159.16358 108.772754 159.690411 107.83512 160.628046 
C 106.897485 161.56568 106.370653 162.837564 106.370653 164.16358 
C 106.370653 165.489595 106.897485 166.761479 107.83512 167.699113 
C 108.772754 168.636748 110.044638 169.16358 111.370653 169.16358 
z
" clip-path="url(#pcf77cac039)" style="fill: #9467bd; stroke: #ffffff; stroke-width: 0.8"/>
    <path d="M 151.129039 137.346394 
L 153.629039 134.846394 
L 156.129039 137.346394 
L 158.629039 134.846394 
L 156.129039 132.346394 
L 158.629039 129.846394 
L 156.129039 127.346394 
L 153.629039 129.846394 
L 151.129039 127.346394 
L 148.629039 129.846394 
L 151.129039 132.346394 
L 148.629039 134.846394 
z
" clip-path="url(#pcf77cac039)" style="fill: #9467bd; stroke: #ffffff; stroke-width: 0.8"/>
    <path d="M 151.70642 135.329331 
L 151.70642 142.400399 
L 158.777488 142.400399 
L 158.777488 135.329331 
z
" clip-path="url(#pcf77cac039)" style="fill: #9467bd; stroke: #ffffff; stroke-width: 0.8"/>
    <path d="M 125.37076 164.829677 
C 126.696775 164.829677 127.968659 164.302846 128.906294 163.365211 
C 129.843928 162.427576 130.37076 161.155693 130.37076 159.829677 
C 130.37076 158.503662 129.843928 157.231778 128.906294 156.294143 
C 127.968659 155.356509 126.696775 154.829677 125.37076 154.829677 
C 124.044744 154.829677 122.77286 155.356509 121.835226 156.294143 
C 120.897591 157.231778 120.37076 158.503662 120.37076 159.829677 
C 120.37076 161.155693 120.897591 162.427576 121.835226 163.365211 
C 122.77286 164.302846 124.044744 164.829677 125.37076 164.829677 
z
" clip-path="url(#pcf77cac039)" style="fill: #9467bd; stroke: #ffffff; stroke-width: 0.8"/>
    <path d="M 151.129039 137.346394 
L 153.629039 134.846394 
L 156.129039 137.346394 
L 158.629039 134.846394 
L 156.129039 132.346394 
L 158.629039 129.846394 
L 156.129039 127.346394 
L 153.629039 129.846394 
L 151.129039 127.346394 
L 148.629039 129.846394 
L 151.129039 132.346394 
L 148.629039 134.846394 
z
" clip-path="url(#pcf77cac039)" style="fill: #9467bd; stroke: #ffffff; stroke-width: 0.8"/>
    <path d="M 156.609683 127.260521 
L 156.609683 134.331588 
L 163.680751 134.331588 
L 163.680751 127.260521 
z
" clip-path="url(#pcf77cac039)" style="fill: #9467bd; stroke: #ffffff; stroke-width: 0.8"/>
    <path d="M 160.403284 125.049386 
C 161.729299 125.049386 163.001183 124.522554 163.938817 123.58492 
C 164.876452 122.647285 165.403284 121.375401 165.403284 120.049386 
C 165.403284 118.72337 164.876452 117.451487 163.938817 116.513852 
C 163.001183 115.576218 161.729299 115.049386 160.403284 115.049386 
C 159.077268 115.049386 157.805384 115.576218 156.86775 116.513852 
C 155.930115 117.451487 155.403284 118.72337 155.403284 120.049386 
C 155.403284 121.375401 155.930115 122.647285 156.86775 123.58492 
C 157.805384 124.522554 159.077268 125.049386 160.403284 125.049386 
z
" clip-path="url(#pcf77cac039)" style="fill: #9467bd; stroke: #ffffff; stroke-width: 0.8"/>
    <path d="M 151.129039 137.346394 
L 153.629039 134.846394 
L 156.129039 137.346394 
L 158.629039 134.846394 
L 156.129039 132.346394 
L 158.629039 129.846394 
L 156.129039 127.346394 
L 153.629039 129.846394 
L 151.129039 127.346394 
L 148.629039 129.846394 
L 151.129039 132.346394 
L 148.629039 134.846394 
z
" clip-path="url(#pcf77cac039)" style="fill: #9467bd; stroke: #ffffff; stroke-width: 0.8"/>
    <path d="M 176.738868 110.735316 
L 176.738868 117.806383 
L 183.809936 117.806383 
L 183.809936 110.735316 
z
" clip-path="url(#pcf77cac039)" style="fill: #9467bd; stroke: #ffffff; stroke-width: 0.8"/>
   </g>
   <g id="matplotlib.axis_1">
    <g id="xtick_1">
     <g id="line2d_1">
      <defs>
       <path id="mf7c2eb9ab8" d="M 0 0 
L 0 3.5 
" style="stroke: #000000; stroke-width: 0.8"/>
      </defs>
      <g>
       <use xlink:href="#mf7c2eb9ab8" x="167.371078" y="170.918125" style="stroke: #000000; stroke-width: 0.8"/>
      </g>
     </g>
     <g id="text_1">
      <!-- 0.1 -->
      <g transform="translate(159.419516 185.516562) scale(0.1 -0.1)">
       <defs>
        <path id="DejaVuSans-30" d="M 2034 4250 
Q 1547 4250 1301 3770 
Q 1056 3291 1056 2328 
Q 1056 1369 1301 889 
Q 1547 409 2034 409 
Q 2525 409 2770 889 
Q 3016 1369 3016 2328 
Q 3016 3291 2770 3770 
Q 2525 4250 2034 4250 
z
M 2034 4750 
Q 2819 4750 3233 4129 
Q 3647 3509 3647 2328 
Q 3647 1150 3233 529 
Q 2819 -91 2034 -91 
Q 1250 -91 836 529 
Q 422 1150 422 2328 
Q 422 3509 836 4129 
Q 1250 4750 2034 4750 
z
" transform="scale(0.015625)"/>
        <path id="DejaVuSans-2e" d="M 684 794 
L 1344 794 
L 1344 0 
L 684 0 
L 684 794 
z
" transform="scale(0.015625)"/>
        <path id="DejaVuSans-31" d="M 794 531 
L 1825 531 
L 1825 4091 
L 703 3866 
L 703 4441 
L 1819 4666 
L 2450 4666 
L 2450 531 
L 3481 531 
L 3481 0 
L 794 0 
L 794 531 
z
" transform="scale(0.015625)"/>
       </defs>
       <use xlink:href="#DejaVuSans-30"/>
       <use xlink:href="#DejaVuSans-2e" transform="translate(63.623047 0)"/>
       <use xlink:href="#DejaVuSans-31" transform="translate(95.410156 0)"/>
      </g>
     </g>
    </g>
    <g id="xtick_2">
     <g id="line2d_2">
      <g>
       <use xlink:href="#mf7c2eb9ab8" x="231.887697" y="170.918125" style="stroke: #000000; stroke-width: 0.8"/>
      </g>
     </g>
     <g id="text_2">
      <!-- 0.2 -->
      <g transform="translate(223.936134 185.516562) scale(0.1 -0.1)">
       <defs>
        <path id="DejaVuSans-32" d="M 1228 531 
L 3431 531 
L 3431 0 
L 469 0 
L 469 531 
Q 828 903 1448 1529 
Q 2069 2156 2228 2338 
Q 2531 2678 2651 2914 
Q 2772 3150 2772 3378 
Q 2772 3750 2511 3984 
Q 2250 4219 1831 4219 
Q 1534 4219 1204 4116 
Q 875 4013 500 3803 
L 500 4441 
Q 881 4594 1212 4672 
Q 1544 4750 1819 4750 
Q 2544 4750 2975 4387 
Q 3406 4025 3406 3419 
Q 3406 3131 3298 2873 
Q 3191 2616 2906 2266 
Q 2828 2175 2409 1742 
Q 1991 1309 1228 531 
z
" transform="scale(0.015625)"/>
       </defs>
       <use xlink:href="#DejaVuSans-30"/>
       <use xlink:href="#DejaVuSans-2e" transform="translate(63.623047 0)"/>
       <use xlink:href="#DejaVuSans-32" transform="translate(95.410156 0)"/>
      </g>
     </g>
    </g>
    <g id="text_3">
     <!-- ARI Score -->
     <g transform="translate(164.700625 199.194687) scale(0.1 -0.1)">
      <defs>
       <path id="DejaVuSans-41" d="M 2188 4044 
L 1331 1722 
L 3047 1722 
L 2188 4044 
z
M 1831 4666 
L 2547 4666 
L 4325 0 
L 3669 0 
L 3244 1197 
L 1141 1197 
L 716 0 
L 50 0 
L 1831 4666 
z
" transform="scale(0.015625)"/>
       <path id="DejaVuSans-52" d="M 2841 2188 
Q 3044 2119 3236 1894 
Q 3428 1669 3622 1275 
L 4263 0 
L 3584 0 
L 2988 1197 
Q 2756 1666 2539 1819 
Q 2322 1972 1947 1972 
L 1259 1972 
L 1259 0 
L 628 0 
L 628 4666 
L 2053 4666 
Q 2853 4666 3247 4331 
Q 3641 3997 3641 3322 
Q 3641 2881 3436 2590 
Q 3231 2300 2841 2188 
z
M 1259 4147 
L 1259 2491 
L 2053 2491 
Q 2509 2491 2742 2702 
Q 2975 2913 2975 3322 
Q 2975 3731 2742 3939 
Q 2509 4147 2053 4147 
L 1259 4147 
z
" transform="scale(0.015625)"/>
       <path id="DejaVuSans-49" d="M 628 4666 
L 1259 4666 
L 1259 0 
L 628 0 
L 628 4666 
z
" transform="scale(0.015625)"/>
       <path id="DejaVuSans-20" transform="scale(0.015625)"/>
       <path id="DejaVuSans-53" d="M 3425 4513 
L 3425 3897 
Q 3066 4069 2747 4153 
Q 2428 4238 2131 4238 
Q 1616 4238 1336 4038 
Q 1056 3838 1056 3469 
Q 1056 3159 1242 3001 
Q 1428 2844 1947 2747 
L 2328 2669 
Q 3034 2534 3370 2195 
Q 3706 1856 3706 1288 
Q 3706 609 3251 259 
Q 2797 -91 1919 -91 
Q 1588 -91 1214 -16 
Q 841 59 441 206 
L 441 856 
Q 825 641 1194 531 
Q 1563 422 1919 422 
Q 2459 422 2753 634 
Q 3047 847 3047 1241 
Q 3047 1584 2836 1778 
Q 2625 1972 2144 2069 
L 1759 2144 
Q 1053 2284 737 2584 
Q 422 2884 422 3419 
Q 422 4038 858 4394 
Q 1294 4750 2059 4750 
Q 2388 4750 2728 4690 
Q 3069 4631 3425 4513 
z
" transform="scale(0.015625)"/>
       <path id="DejaVuSans-63" d="M 3122 3366 
L 3122 2828 
Q 2878 2963 2633 3030 
Q 2388 3097 2138 3097 
Q 1578 3097 1268 2742 
Q 959 2388 959 1747 
Q 959 1106 1268 751 
Q 1578 397 2138 397 
Q 2388 397 2633 464 
Q 2878 531 3122 666 
L 3122 134 
Q 2881 22 2623 -34 
Q 2366 -91 2075 -91 
Q 1284 -91 818 406 
Q 353 903 353 1747 
Q 353 2603 823 3093 
Q 1294 3584 2113 3584 
Q 2378 3584 2631 3529 
Q 2884 3475 3122 3366 
z
" transform="scale(0.015625)"/>
       <path id="DejaVuSans-6f" d="M 1959 3097 
Q 1497 3097 1228 2736 
Q 959 2375 959 1747 
Q 959 1119 1226 758 
Q 1494 397 1959 397 
Q 2419 397 2687 759 
Q 2956 1122 2956 1747 
Q 2956 2369 2687 2733 
Q 2419 3097 1959 3097 
z
M 1959 3584 
Q 2709 3584 3137 3096 
Q 3566 2609 3566 1747 
Q 3566 888 3137 398 
Q 2709 -91 1959 -91 
Q 1206 -91 779 398 
Q 353 888 353 1747 
Q 353 2609 779 3096 
Q 1206 3584 1959 3584 
z
" transform="scale(0.015625)"/>
       <path id="DejaVuSans-72" d="M 2631 2963 
Q 2534 3019 2420 3045 
Q 2306 3072 2169 3072 
Q 1681 3072 1420 2755 
Q 1159 2438 1159 1844 
L 1159 0 
L 581 0 
L 581 3500 
L 1159 3500 
L 1159 2956 
Q 1341 3275 1631 3429 
Q 1922 3584 2338 3584 
Q 2397 3584 2469 3576 
Q 2541 3569 2628 3553 
L 2631 2963 
z
" transform="scale(0.015625)"/>
       <path id="DejaVuSans-65" d="M 3597 1894 
L 3597 1613 
L 953 1613 
Q 991 1019 1311 708 
Q 1631 397 2203 397 
Q 2534 397 2845 478 
Q 3156 559 3463 722 
L 3463 178 
Q 3153 47 2828 -22 
Q 2503 -91 2169 -91 
Q 1331 -91 842 396 
Q 353 884 353 1716 
Q 353 2575 817 3079 
Q 1281 3584 2069 3584 
Q 2775 3584 3186 3129 
Q 3597 2675 3597 1894 
z
M 3022 2063 
Q 3016 2534 2758 2815 
Q 2500 3097 2075 3097 
Q 1594 3097 1305 2825 
Q 1016 2553 972 2059 
L 3022 2063 
z
" transform="scale(0.015625)"/>
      </defs>
      <use xlink:href="#DejaVuSans-41"/>
      <use xlink:href="#DejaVuSans-52" transform="translate(68.408203 0)"/>
      <use xlink:href="#DejaVuSans-49" transform="translate(137.890625 0)"/>
      <use xlink:href="#DejaVuSans-20" transform="translate(167.382812 0)"/>
      <use xlink:href="#DejaVuSans-53" transform="translate(199.169922 0)"/>
      <use xlink:href="#DejaVuSans-63" transform="translate(262.646484 0)"/>
      <use xlink:href="#DejaVuSans-6f" transform="translate(317.626953 0)"/>
      <use xlink:href="#DejaVuSans-72" transform="translate(378.808594 0)"/>
      <use xlink:href="#DejaVuSans-65" transform="translate(417.671875 0)"/>
     </g>
    </g>
   </g>
   <g id="matplotlib.axis_2">
    <g id="ytick_1">
     <g id="line2d_3">
      <defs>
       <path id="m7c2d841296" d="M 0 0 
L -3.5 0 
" style="stroke: #000000; stroke-width: 0.8"/>
      </defs>
      <g>
       <use xlink:href="#m7c2d841296" x="103.641562" y="148.906834" style="stroke: #000000; stroke-width: 0.8"/>
      </g>
     </g>
     <g id="text_4">
      <!-- 0.1 -->
      <g transform="translate(80.738437 152.706052) scale(0.1 -0.1)">
       <use xlink:href="#DejaVuSans-30"/>
       <use xlink:href="#DejaVuSans-2e" transform="translate(63.623047 0)"/>
       <use xlink:href="#DejaVuSans-31" transform="translate(95.410156 0)"/>
      </g>
     </g>
    </g>
    <g id="ytick_2">
     <g id="line2d_4">
      <g>
       <use xlink:href="#m7c2d841296" x="103.641562" y="113.671855" style="stroke: #000000; stroke-width: 0.8"/>
      </g>
     </g>
     <g id="text_5">
      <!-- 0.2 -->
      <g transform="translate(80.738437 117.471074) scale(0.1 -0.1)">
       <use xlink:href="#DejaVuSans-30"/>
       <use xlink:href="#DejaVuSans-2e" transform="translate(63.623047 0)"/>
       <use xlink:href="#DejaVuSans-32" transform="translate(95.410156 0)"/>
      </g>
     </g>
    </g>
    <g id="ytick_3">
     <g id="line2d_5">
      <g>
       <use xlink:href="#m7c2d841296" x="103.641562" y="78.436876" style="stroke: #000000; stroke-width: 0.8"/>
      </g>
     </g>
     <g id="text_6">
      <!-- 0.3 -->
      <g transform="translate(80.738437 82.236095) scale(0.1 -0.1)">
       <defs>
        <path id="DejaVuSans-33" d="M 2597 2516 
Q 3050 2419 3304 2112 
Q 3559 1806 3559 1356 
Q 3559 666 3084 287 
Q 2609 -91 1734 -91 
Q 1441 -91 1130 -33 
Q 819 25 488 141 
L 488 750 
Q 750 597 1062 519 
Q 1375 441 1716 441 
Q 2309 441 2620 675 
Q 2931 909 2931 1356 
Q 2931 1769 2642 2001 
Q 2353 2234 1838 2234 
L 1294 2234 
L 1294 2753 
L 1863 2753 
Q 2328 2753 2575 2939 
Q 2822 3125 2822 3475 
Q 2822 3834 2567 4026 
Q 2313 4219 1838 4219 
Q 1578 4219 1281 4162 
Q 984 4106 628 3988 
L 628 4550 
Q 988 4650 1302 4700 
Q 1616 4750 1894 4750 
Q 2613 4750 3031 4423 
Q 3450 4097 3450 3541 
Q 3450 3153 3228 2886 
Q 3006 2619 2597 2516 
z
" transform="scale(0.015625)"/>
       </defs>
       <use xlink:href="#DejaVuSans-30"/>
       <use xlink:href="#DejaVuSans-2e" transform="translate(63.623047 0)"/>
       <use xlink:href="#DejaVuSans-33" transform="translate(95.410156 0)"/>
      </g>
     </g>
    </g>
    <g id="ytick_4">
     <g id="line2d_6">
      <g>
       <use xlink:href="#m7c2d841296" x="103.641562" y="43.201897" style="stroke: #000000; stroke-width: 0.8"/>
      </g>
     </g>
     <g id="text_7">
      <!-- 0.4 -->
      <g transform="translate(80.738437 47.001116) scale(0.1 -0.1)">
       <defs>
        <path id="DejaVuSans-34" d="M 2419 4116 
L 825 1625 
L 2419 1625 
L 2419 4116 
z
M 2253 4666 
L 3047 4666 
L 3047 1625 
L 3713 1625 
L 3713 1100 
L 3047 1100 
L 3047 0 
L 2419 0 
L 2419 1100 
L 313 1100 
L 313 1709 
L 2253 4666 
z
" transform="scale(0.015625)"/>
       </defs>
       <use xlink:href="#DejaVuSans-30"/>
       <use xlink:href="#DejaVuSans-2e" transform="translate(63.623047 0)"/>
       <use xlink:href="#DejaVuSans-34" transform="translate(95.410156 0)"/>
      </g>
     </g>
    </g>
    <g id="text_8">
     <!-- NMI Score -->
     <g transform="translate(74.65875 121.739219) rotate(-90) scale(0.1 -0.1)">
      <defs>
       <path id="DejaVuSans-4e" d="M 628 4666 
L 1478 4666 
L 3547 763 
L 3547 4666 
L 4159 4666 
L 4159 0 
L 3309 0 
L 1241 3903 
L 1241 0 
L 628 0 
L 628 4666 
z
" transform="scale(0.015625)"/>
       <path id="DejaVuSans-4d" d="M 628 4666 
L 1569 4666 
L 2759 1491 
L 3956 4666 
L 4897 4666 
L 4897 0 
L 4281 0 
L 4281 4097 
L 3078 897 
L 2444 897 
L 1241 4097 
L 1241 0 
L 628 0 
L 628 4666 
z
" transform="scale(0.015625)"/>
      </defs>
      <use xlink:href="#DejaVuSans-4e"/>
      <use xlink:href="#DejaVuSans-4d" transform="translate(74.804688 0)"/>
      <use xlink:href="#DejaVuSans-49" transform="translate(161.083984 0)"/>
      <use xlink:href="#DejaVuSans-20" transform="translate(190.576172 0)"/>
      <use xlink:href="#DejaVuSans-53" transform="translate(222.363281 0)"/>
      <use xlink:href="#DejaVuSans-63" transform="translate(285.839844 0)"/>
      <use xlink:href="#DejaVuSans-6f" transform="translate(340.820312 0)"/>
      <use xlink:href="#DejaVuSans-72" transform="translate(402.001953 0)"/>
      <use xlink:href="#DejaVuSans-65" transform="translate(440.865234 0)"/>
     </g>
    </g>
   </g>
   <g id="line2d_7"/>
   <g id="line2d_8"/>
   <g id="line2d_9"/>
   <g id="line2d_10"/>
   <g id="line2d_11"/>
   <g id="line2d_12"/>
   <g id="line2d_13"/>
   <g id="line2d_14"/>
   <g id="line2d_15"/>
   <g id="line2d_16"/>
   <g id="patch_3">
    <path d="M 103.641562 170.918125 
L 103.641562 22.318125 
" style="fill: none; stroke: #000000; stroke-width: 0.8; stroke-linejoin: miter; stroke-linecap: square"/>
   </g>
   <g id="patch_4">
    <path d="M 273.681562 170.918125 
L 273.681562 22.318125 
" style="fill: none; stroke: #000000; stroke-width: 0.8; stroke-linejoin: miter; stroke-linecap: square"/>
   </g>
   <g id="patch_5">
    <path d="M 103.641562 170.918125 
L 273.681562 170.918125 
" style="fill: none; stroke: #000000; stroke-width: 0.8; stroke-linejoin: miter; stroke-linecap: square"/>
   </g>
   <g id="patch_6">
    <path d="M 103.641562 22.318125 
L 273.681562 22.318125 
" style="fill: none; stroke: #000000; stroke-width: 0.8; stroke-linejoin: miter; stroke-linecap: square"/>
   </g>
   <g id="text_9">
    <!-- Correlation between ARI and NMI Scores across Embeddings -->
    <g transform="translate(7.2 16.318125) scale(0.12 -0.12)">
     <defs>
      <path id="DejaVuSans-43" d="M 4122 4306 
L 4122 3641 
Q 3803 3938 3442 4084 
Q 3081 4231 2675 4231 
Q 1875 4231 1450 3742 
Q 1025 3253 1025 2328 
Q 1025 1406 1450 917 
Q 1875 428 2675 428 
Q 3081 428 3442 575 
Q 3803 722 4122 1019 
L 4122 359 
Q 3791 134 3420 21 
Q 3050 -91 2638 -91 
Q 1578 -91 968 557 
Q 359 1206 359 2328 
Q 359 3453 968 4101 
Q 1578 4750 2638 4750 
Q 3056 4750 3426 4639 
Q 3797 4528 4122 4306 
z
" transform="scale(0.015625)"/>
      <path id="DejaVuSans-6c" d="M 603 4863 
L 1178 4863 
L 1178 0 
L 603 0 
L 603 4863 
z
" transform="scale(0.015625)"/>
      <path id="DejaVuSans-61" d="M 2194 1759 
Q 1497 1759 1228 1600 
Q 959 1441 959 1056 
Q 959 750 1161 570 
Q 1363 391 1709 391 
Q 2188 391 2477 730 
Q 2766 1069 2766 1631 
L 2766 1759 
L 2194 1759 
z
M 3341 1997 
L 3341 0 
L 2766 0 
L 2766 531 
Q 2569 213 2275 61 
Q 1981 -91 1556 -91 
Q 1019 -91 701 211 
Q 384 513 384 1019 
Q 384 1609 779 1909 
Q 1175 2209 1959 2209 
L 2766 2209 
L 2766 2266 
Q 2766 2663 2505 2880 
Q 2244 3097 1772 3097 
Q 1472 3097 1187 3025 
Q 903 2953 641 2809 
L 641 3341 
Q 956 3463 1253 3523 
Q 1550 3584 1831 3584 
Q 2591 3584 2966 3190 
Q 3341 2797 3341 1997 
z
" transform="scale(0.015625)"/>
      <path id="DejaVuSans-74" d="M 1172 4494 
L 1172 3500 
L 2356 3500 
L 2356 3053 
L 1172 3053 
L 1172 1153 
Q 1172 725 1289 603 
Q 1406 481 1766 481 
L 2356 481 
L 2356 0 
L 1766 0 
Q 1100 0 847 248 
Q 594 497 594 1153 
L 594 3053 
L 172 3053 
L 172 3500 
L 594 3500 
L 594 4494 
L 1172 4494 
z
" transform="scale(0.015625)"/>
      <path id="DejaVuSans-69" d="M 603 3500 
L 1178 3500 
L 1178 0 
L 603 0 
L 603 3500 
z
M 603 4863 
L 1178 4863 
L 1178 4134 
L 603 4134 
L 603 4863 
z
" transform="scale(0.015625)"/>
      <path id="DejaVuSans-6e" d="M 3513 2113 
L 3513 0 
L 2938 0 
L 2938 2094 
Q 2938 2591 2744 2837 
Q 2550 3084 2163 3084 
Q 1697 3084 1428 2787 
Q 1159 2491 1159 1978 
L 1159 0 
L 581 0 
L 581 3500 
L 1159 3500 
L 1159 2956 
Q 1366 3272 1645 3428 
Q 1925 3584 2291 3584 
Q 2894 3584 3203 3211 
Q 3513 2838 3513 2113 
z
" transform="scale(0.015625)"/>
      <path id="DejaVuSans-62" d="M 3116 1747 
Q 3116 2381 2855 2742 
Q 2594 3103 2138 3103 
Q 1681 3103 1420 2742 
Q 1159 2381 1159 1747 
Q 1159 1113 1420 752 
Q 1681 391 2138 391 
Q 2594 391 2855 752 
Q 3116 1113 3116 1747 
z
M 1159 2969 
Q 1341 3281 1617 3432 
Q 1894 3584 2278 3584 
Q 2916 3584 3314 3078 
Q 3713 2572 3713 1747 
Q 3713 922 3314 415 
Q 2916 -91 2278 -91 
Q 1894 -91 1617 61 
Q 1341 213 1159 525 
L 1159 0 
L 581 0 
L 581 4863 
L 1159 4863 
L 1159 2969 
z
" transform="scale(0.015625)"/>
      <path id="DejaVuSans-77" d="M 269 3500 
L 844 3500 
L 1563 769 
L 2278 3500 
L 2956 3500 
L 3675 769 
L 4391 3500 
L 4966 3500 
L 4050 0 
L 3372 0 
L 2619 2869 
L 1863 0 
L 1184 0 
L 269 3500 
z
" transform="scale(0.015625)"/>
      <path id="DejaVuSans-64" d="M 2906 2969 
L 2906 4863 
L 3481 4863 
L 3481 0 
L 2906 0 
L 2906 525 
Q 2725 213 2448 61 
Q 2172 -91 1784 -91 
Q 1150 -91 751 415 
Q 353 922 353 1747 
Q 353 2572 751 3078 
Q 1150 3584 1784 3584 
Q 2172 3584 2448 3432 
Q 2725 3281 2906 2969 
z
M 947 1747 
Q 947 1113 1208 752 
Q 1469 391 1925 391 
Q 2381 391 2643 752 
Q 2906 1113 2906 1747 
Q 2906 2381 2643 2742 
Q 2381 3103 1925 3103 
Q 1469 3103 1208 2742 
Q 947 2381 947 1747 
z
" transform="scale(0.015625)"/>
      <path id="DejaVuSans-73" d="M 2834 3397 
L 2834 2853 
Q 2591 2978 2328 3040 
Q 2066 3103 1784 3103 
Q 1356 3103 1142 2972 
Q 928 2841 928 2578 
Q 928 2378 1081 2264 
Q 1234 2150 1697 2047 
L 1894 2003 
Q 2506 1872 2764 1633 
Q 3022 1394 3022 966 
Q 3022 478 2636 193 
Q 2250 -91 1575 -91 
Q 1294 -91 989 -36 
Q 684 19 347 128 
L 347 722 
Q 666 556 975 473 
Q 1284 391 1588 391 
Q 1994 391 2212 530 
Q 2431 669 2431 922 
Q 2431 1156 2273 1281 
Q 2116 1406 1581 1522 
L 1381 1569 
Q 847 1681 609 1914 
Q 372 2147 372 2553 
Q 372 3047 722 3315 
Q 1072 3584 1716 3584 
Q 2034 3584 2315 3537 
Q 2597 3491 2834 3397 
z
" transform="scale(0.015625)"/>
      <path id="DejaVuSans-45" d="M 628 4666 
L 3578 4666 
L 3578 4134 
L 1259 4134 
L 1259 2753 
L 3481 2753 
L 3481 2222 
L 1259 2222 
L 1259 531 
L 3634 531 
L 3634 0 
L 628 0 
L 628 4666 
z
" transform="scale(0.015625)"/>
      <path id="DejaVuSans-6d" d="M 3328 2828 
Q 3544 3216 3844 3400 
Q 4144 3584 4550 3584 
Q 5097 3584 5394 3201 
Q 5691 2819 5691 2113 
L 5691 0 
L 5113 0 
L 5113 2094 
Q 5113 2597 4934 2840 
Q 4756 3084 4391 3084 
Q 3944 3084 3684 2787 
Q 3425 2491 3425 1978 
L 3425 0 
L 2847 0 
L 2847 2094 
Q 2847 2600 2669 2842 
Q 2491 3084 2119 3084 
Q 1678 3084 1418 2786 
Q 1159 2488 1159 1978 
L 1159 0 
L 581 0 
L 581 3500 
L 1159 3500 
L 1159 2956 
Q 1356 3278 1631 3431 
Q 1906 3584 2284 3584 
Q 2666 3584 2933 3390 
Q 3200 3197 3328 2828 
z
" transform="scale(0.015625)"/>
      <path id="DejaVuSans-67" d="M 2906 1791 
Q 2906 2416 2648 2759 
Q 2391 3103 1925 3103 
Q 1463 3103 1205 2759 
Q 947 2416 947 1791 
Q 947 1169 1205 825 
Q 1463 481 1925 481 
Q 2391 481 2648 825 
Q 2906 1169 2906 1791 
z
M 3481 434 
Q 3481 -459 3084 -895 
Q 2688 -1331 1869 -1331 
Q 1566 -1331 1297 -1286 
Q 1028 -1241 775 -1147 
L 775 -588 
Q 1028 -725 1275 -790 
Q 1522 -856 1778 -856 
Q 2344 -856 2625 -561 
Q 2906 -266 2906 331 
L 2906 616 
Q 2728 306 2450 153 
Q 2172 0 1784 0 
Q 1141 0 747 490 
Q 353 981 353 1791 
Q 353 2603 747 3093 
Q 1141 3584 1784 3584 
Q 2172 3584 2450 3431 
Q 2728 3278 2906 2969 
L 2906 3500 
L 3481 3500 
L 3481 434 
z
" transform="scale(0.015625)"/>
     </defs>
     <use xlink:href="#DejaVuSans-43"/>
     <use xlink:href="#DejaVuSans-6f" transform="translate(69.824219 0)"/>
     <use xlink:href="#DejaVuSans-72" transform="translate(131.005859 0)"/>
     <use xlink:href="#DejaVuSans-72" transform="translate(170.369141 0)"/>
     <use xlink:href="#DejaVuSans-65" transform="translate(209.232422 0)"/>
     <use xlink:href="#DejaVuSans-6c" transform="translate(270.755859 0)"/>
     <use xlink:href="#DejaVuSans-61" transform="translate(298.539062 0)"/>
     <use xlink:href="#DejaVuSans-74" transform="translate(359.818359 0)"/>
     <use xlink:href="#DejaVuSans-69" transform="translate(399.027344 0)"/>
     <use xlink:href="#DejaVuSans-6f" transform="translate(426.810547 0)"/>
     <use xlink:href="#DejaVuSans-6e" transform="translate(487.992188 0)"/>
     <use xlink:href="#DejaVuSans-20" transform="translate(551.371094 0)"/>
     <use xlink:href="#DejaVuSans-62" transform="translate(583.158203 0)"/>
     <use xlink:href="#DejaVuSans-65" transform="translate(646.634766 0)"/>
     <use xlink:href="#DejaVuSans-74" transform="translate(708.158203 0)"/>
     <use xlink:href="#DejaVuSans-77" transform="translate(747.367188 0)"/>
     <use xlink:href="#DejaVuSans-65" transform="translate(829.154297 0)"/>
     <use xlink:href="#DejaVuSans-65" transform="translate(890.677734 0)"/>
     <use xlink:href="#DejaVuSans-6e" transform="translate(952.201172 0)"/>
     <use xlink:href="#DejaVuSans-20" transform="translate(1015.580078 0)"/>
     <use xlink:href="#DejaVuSans-41" transform="translate(1047.367188 0)"/>
     <use xlink:href="#DejaVuSans-52" transform="translate(1115.775391 0)"/>
     <use xlink:href="#DejaVuSans-49" transform="translate(1185.257812 0)"/>
     <use xlink:href="#DejaVuSans-20" transform="translate(1214.75 0)"/>
     <use xlink:href="#DejaVuSans-61" transform="translate(1246.537109 0)"/>
     <use xlink:href="#DejaVuSans-6e" transform="translate(1307.816406 0)"/>
     <use xlink:href="#DejaVuSans-64" transform="translate(1371.195312 0)"/>
     <use xlink:href="#DejaVuSans-20" transform="translate(1434.671875 0)"/>
     <use xlink:href="#DejaVuSans-4e" transform="translate(1466.458984 0)"/>
     <use xlink:href="#DejaVuSans-4d" transform="translate(1541.263672 0)"/>
     <use xlink:href="#DejaVuSans-49" transform="translate(1627.542969 0)"/>
     <use xlink:href="#DejaVuSans-20" transform="translate(1657.035156 0)"/>
     <use xlink:href="#DejaVuSans-53" transform="translate(1688.822266 0)"/>
     <use xlink:href="#DejaVuSans-63" transform="translate(1752.298828 0)"/>
     <use xlink:href="#DejaVuSans-6f" transform="translate(1807.279297 0)"/>
     <use xlink:href="#DejaVuSans-72" transform="translate(1868.460938 0)"/>
     <use xlink:href="#DejaVuSans-65" transform="translate(1907.324219 0)"/>
     <use xlink:href="#DejaVuSans-73" transform="translate(1968.847656 0)"/>
     <use xlink:href="#DejaVuSans-20" transform="translate(2020.947266 0)"/>
     <use xlink:href="#DejaVuSans-61" transform="translate(2052.734375 0)"/>
     <use xlink:href="#DejaVuSans-63" transform="translate(2114.013672 0)"/>
     <use xlink:href="#DejaVuSans-72" transform="translate(2168.994141 0)"/>
     <use xlink:href="#DejaVuSans-6f" transform="translate(2207.857422 0)"/>
     <use xlink:href="#DejaVuSans-73" transform="translate(2269.039062 0)"/>
     <use xlink:href="#DejaVuSans-73" transform="translate(2321.138672 0)"/>
     <use xlink:href="#DejaVuSans-20" transform="translate(2373.238281 0)"/>
     <use xlink:href="#DejaVuSans-45" transform="translate(2405.025391 0)"/>
     <use xlink:href="#DejaVuSans-6d" transform="translate(2468.208984 0)"/>
     <use xlink:href="#DejaVuSans-62" transform="translate(2565.621094 0)"/>
     <use xlink:href="#DejaVuSans-65" transform="translate(2629.097656 0)"/>
     <use xlink:href="#DejaVuSans-64" transform="translate(2690.621094 0)"/>
     <use xlink:href="#DejaVuSans-64" transform="translate(2754.097656 0)"/>
     <use xlink:href="#DejaVuSans-69" transform="translate(2817.574219 0)"/>
     <use xlink:href="#DejaVuSans-6e" transform="translate(2845.357422 0)"/>
     <use xlink:href="#DejaVuSans-67" transform="translate(2908.736328 0)"/>
     <use xlink:href="#DejaVuSans-73" transform="translate(2972.212891 0)"/>
    </g>
   </g>
   <g id="legend_1">
    <g id="patch_7">
     <path d="M 289.183562 193.168125 
L 466.716375 193.168125 
Q 468.716375 193.168125 468.716375 191.168125 
L 468.716375 29.318125 
Q 468.716375 27.318125 466.716375 27.318125 
L 289.183562 27.318125 
Q 287.183562 27.318125 287.183562 29.318125 
L 287.183562 191.168125 
Q 287.183562 193.168125 289.183562 193.168125 
z
" style="fill: #ffffff; opacity: 0.8; stroke: #cccccc; stroke-linejoin: miter"/>
    </g>
    <g id="text_10">
     <!-- Embedding and Clustering Method -->
     <g transform="translate(291.183562 38.916562) scale(0.1 -0.1)">
      <defs>
       <path id="DejaVuSans-75" d="M 544 1381 
L 544 3500 
L 1119 3500 
L 1119 1403 
Q 1119 906 1312 657 
Q 1506 409 1894 409 
Q 2359 409 2629 706 
Q 2900 1003 2900 1516 
L 2900 3500 
L 3475 3500 
L 3475 0 
L 2900 0 
L 2900 538 
Q 2691 219 2414 64 
Q 2138 -91 1772 -91 
Q 1169 -91 856 284 
Q 544 659 544 1381 
z
M 1991 3584 
L 1991 3584 
z
" transform="scale(0.015625)"/>
       <path id="DejaVuSans-68" d="M 3513 2113 
L 3513 0 
L 2938 0 
L 2938 2094 
Q 2938 2591 2744 2837 
Q 2550 3084 2163 3084 
Q 1697 3084 1428 2787 
Q 1159 2491 1159 1978 
L 1159 0 
L 581 0 
L 581 4863 
L 1159 4863 
L 1159 2956 
Q 1366 3272 1645 3428 
Q 1925 3584 2291 3584 
Q 2894 3584 3203 3211 
Q 3513 2838 3513 2113 
z
" transform="scale(0.015625)"/>
      </defs>
      <use xlink:href="#DejaVuSans-45"/>
      <use xlink:href="#DejaVuSans-6d" transform="translate(63.183594 0)"/>
      <use xlink:href="#DejaVuSans-62" transform="translate(160.595703 0)"/>
      <use xlink:href="#DejaVuSans-65" transform="translate(224.072266 0)"/>
      <use xlink:href="#DejaVuSans-64" transform="translate(285.595703 0)"/>
      <use xlink:href="#DejaVuSans-64" transform="translate(349.072266 0)"/>
      <use xlink:href="#DejaVuSans-69" transform="translate(412.548828 0)"/>
      <use xlink:href="#DejaVuSans-6e" transform="translate(440.332031 0)"/>
      <use xlink:href="#DejaVuSans-67" transform="translate(503.710938 0)"/>
      <use xlink:href="#DejaVuSans-20" transform="translate(567.1875 0)"/>
      <use xlink:href="#DejaVuSans-61" transform="translate(598.974609 0)"/>
      <use xlink:href="#DejaVuSans-6e" transform="translate(660.253906 0)"/>
      <use xlink:href="#DejaVuSans-64" transform="translate(723.632812 0)"/>
      <use xlink:href="#DejaVuSans-20" transform="translate(787.109375 0)"/>
      <use xlink:href="#DejaVuSans-43" transform="translate(818.896484 0)"/>
      <use xlink:href="#DejaVuSans-6c" transform="translate(888.720703 0)"/>
      <use xlink:href="#DejaVuSans-75" transform="translate(916.503906 0)"/>
      <use xlink:href="#DejaVuSans-73" transform="translate(979.882812 0)"/>
      <use xlink:href="#DejaVuSans-74" transform="translate(1031.982422 0)"/>
      <use xlink:href="#DejaVuSans-65" transform="translate(1071.191406 0)"/>
      <use xlink:href="#DejaVuSans-72" transform="translate(1132.714844 0)"/>
      <use xlink:href="#DejaVuSans-69" transform="translate(1173.828125 0)"/>
      <use xlink:href="#DejaVuSans-6e" transform="translate(1201.611328 0)"/>
      <use xlink:href="#DejaVuSans-67" transform="translate(1264.990234 0)"/>
      <use xlink:href="#DejaVuSans-20" transform="translate(1328.466797 0)"/>
      <use xlink:href="#DejaVuSans-4d" transform="translate(1360.253906 0)"/>
      <use xlink:href="#DejaVuSans-65" transform="translate(1446.533203 0)"/>
      <use xlink:href="#DejaVuSans-74" transform="translate(1508.056641 0)"/>
      <use xlink:href="#DejaVuSans-68" transform="translate(1547.265625 0)"/>
      <use xlink:href="#DejaVuSans-6f" transform="translate(1610.644531 0)"/>
      <use xlink:href="#DejaVuSans-64" transform="translate(1671.826172 0)"/>
     </g>
    </g>
    <g id="line2d_17"/>
    <g id="text_11">
     <!-- embedding -->
     <g transform="translate(357.822625 53.594687) scale(0.1 -0.1)">
      <use xlink:href="#DejaVuSans-65"/>
      <use xlink:href="#DejaVuSans-6d" transform="translate(61.523438 0)"/>
      <use xlink:href="#DejaVuSans-62" transform="translate(158.935547 0)"/>
      <use xlink:href="#DejaVuSans-65" transform="translate(222.412109 0)"/>
      <use xlink:href="#DejaVuSans-64" transform="translate(283.935547 0)"/>
      <use xlink:href="#DejaVuSans-64" transform="translate(347.412109 0)"/>
      <use xlink:href="#DejaVuSans-69" transform="translate(410.888672 0)"/>
      <use xlink:href="#DejaVuSans-6e" transform="translate(438.671875 0)"/>
      <use xlink:href="#DejaVuSans-67" transform="translate(502.050781 0)"/>
     </g>
    </g>
    <g id="line2d_18">
     <defs>
      <path id="mc9e6798401" d="M 0 5 
C 1.326016 5 2.597899 4.473168 3.535534 3.535534 
C 4.473168 2.597899 5 1.326016 5 0 
C 5 -1.326016 4.473168 -2.597899 3.535534 -3.535534 
C 2.597899 -4.473168 1.326016 -5 0 -5 
C -1.326016 -5 -2.597899 -4.473168 -3.535534 -3.535534 
C -4.473168 -2.597899 -5 -1.326016 -5 0 
C -5 1.326016 -4.473168 2.597899 -3.535534 3.535534 
C -2.597899 4.473168 -1.326016 5 0 5 
z
" style="stroke: #ffffff; stroke-width: 0.8"/>
     </defs>
     <g>
      <use xlink:href="#mc9e6798401" x="339.822625" y="64.772812" style="fill: #1f77b4; stroke: #ffffff; stroke-width: 0.8"/>
     </g>
    </g>
    <g id="text_12">
     <!-- bag_of_words -->
     <g transform="translate(357.822625 68.272812) scale(0.1 -0.1)">
      <defs>
       <path id="DejaVuSans-5f" d="M 3263 -1063 
L 3263 -1509 
L -63 -1509 
L -63 -1063 
L 3263 -1063 
z
" transform="scale(0.015625)"/>
       <path id="DejaVuSans-66" d="M 2375 4863 
L 2375 4384 
L 1825 4384 
Q 1516 4384 1395 4259 
Q 1275 4134 1275 3809 
L 1275 3500 
L 2222 3500 
L 2222 3053 
L 1275 3053 
L 1275 0 
L 697 0 
L 697 3053 
L 147 3053 
L 147 3500 
L 697 3500 
L 697 3744 
Q 697 4328 969 4595 
Q 1241 4863 1831 4863 
L 2375 4863 
z
" transform="scale(0.015625)"/>
      </defs>
      <use xlink:href="#DejaVuSans-62"/>
      <use xlink:href="#DejaVuSans-61" transform="translate(63.476562 0)"/>
      <use xlink:href="#DejaVuSans-67" transform="translate(124.755859 0)"/>
      <use xlink:href="#DejaVuSans-5f" transform="translate(188.232422 0)"/>
      <use xlink:href="#DejaVuSans-6f" transform="translate(238.232422 0)"/>
      <use xlink:href="#DejaVuSans-66" transform="translate(299.414062 0)"/>
      <use xlink:href="#DejaVuSans-5f" transform="translate(334.619141 0)"/>
      <use xlink:href="#DejaVuSans-77" transform="translate(384.619141 0)"/>
      <use xlink:href="#DejaVuSans-6f" transform="translate(466.40625 0)"/>
      <use xlink:href="#DejaVuSans-72" transform="translate(527.587891 0)"/>
      <use xlink:href="#DejaVuSans-64" transform="translate(566.951172 0)"/>
      <use xlink:href="#DejaVuSans-73" transform="translate(630.427734 0)"/>
     </g>
    </g>
    <g id="line2d_19">
     <defs>
      <path id="m8567498328" d="M 0 5 
C 1.326016 5 2.597899 4.473168 3.535534 3.535534 
C 4.473168 2.597899 5 1.326016 5 0 
C 5 -1.326016 4.473168 -2.597899 3.535534 -3.535534 
C 2.597899 -4.473168 1.326016 -5 0 -5 
C -1.326016 -5 -2.597899 -4.473168 -3.535534 -3.535534 
C -4.473168 -2.597899 -5 -1.326016 -5 0 
C -5 1.326016 -4.473168 2.597899 -3.535534 3.535534 
C -2.597899 4.473168 -1.326016 5 0 5 
z
" style="stroke: #ffffff; stroke-width: 0.8"/>
     </defs>
     <g>
      <use xlink:href="#m8567498328" x="339.822625" y="79.729062" style="fill: #ff7f0e; stroke: #ffffff; stroke-width: 0.8"/>
     </g>
    </g>
    <g id="text_13">
     <!-- esm2_150M -->
     <g transform="translate(357.822625 83.229062) scale(0.1 -0.1)">
      <defs>
       <path id="DejaVuSans-35" d="M 691 4666 
L 3169 4666 
L 3169 4134 
L 1269 4134 
L 1269 2991 
Q 1406 3038 1543 3061 
Q 1681 3084 1819 3084 
Q 2600 3084 3056 2656 
Q 3513 2228 3513 1497 
Q 3513 744 3044 326 
Q 2575 -91 1722 -91 
Q 1428 -91 1123 -41 
Q 819 9 494 109 
L 494 744 
Q 775 591 1075 516 
Q 1375 441 1709 441 
Q 2250 441 2565 725 
Q 2881 1009 2881 1497 
Q 2881 1984 2565 2268 
Q 2250 2553 1709 2553 
Q 1456 2553 1204 2497 
Q 953 2441 691 2322 
L 691 4666 
z
" transform="scale(0.015625)"/>
      </defs>
      <use xlink:href="#DejaVuSans-65"/>
      <use xlink:href="#DejaVuSans-73" transform="translate(61.523438 0)"/>
      <use xlink:href="#DejaVuSans-6d" transform="translate(113.623047 0)"/>
      <use xlink:href="#DejaVuSans-32" transform="translate(211.035156 0)"/>
      <use xlink:href="#DejaVuSans-5f" transform="translate(274.658203 0)"/>
      <use xlink:href="#DejaVuSans-31" transform="translate(324.658203 0)"/>
      <use xlink:href="#DejaVuSans-35" transform="translate(388.28125 0)"/>
      <use xlink:href="#DejaVuSans-30" transform="translate(451.904297 0)"/>
      <use xlink:href="#DejaVuSans-4d" transform="translate(515.527344 0)"/>
     </g>
    </g>
    <g id="line2d_20">
     <defs>
      <path id="m5d90fd2e3e" d="M 0 5 
C 1.326016 5 2.597899 4.473168 3.535534 3.535534 
C 4.473168 2.597899 5 1.326016 5 0 
C 5 -1.326016 4.473168 -2.597899 3.535534 -3.535534 
C 2.597899 -4.473168 1.326016 -5 0 -5 
C -1.326016 -5 -2.597899 -4.473168 -3.535534 -3.535534 
C -4.473168 -2.597899 -5 -1.326016 -5 0 
C -5 1.326016 -4.473168 2.597899 -3.535534 3.535534 
C -2.597899 4.473168 -1.326016 5 0 5 
z
" style="stroke: #ffffff; stroke-width: 0.8"/>
     </defs>
     <g>
      <use xlink:href="#m5d90fd2e3e" x="339.822625" y="94.685312" style="fill: #2ca02c; stroke: #ffffff; stroke-width: 0.8"/>
     </g>
    </g>
    <g id="text_14">
     <!-- esm2_35M -->
     <g transform="translate(357.822625 98.185312) scale(0.1 -0.1)">
      <use xlink:href="#DejaVuSans-65"/>
      <use xlink:href="#DejaVuSans-73" transform="translate(61.523438 0)"/>
      <use xlink:href="#DejaVuSans-6d" transform="translate(113.623047 0)"/>
      <use xlink:href="#DejaVuSans-32" transform="translate(211.035156 0)"/>
      <use xlink:href="#DejaVuSans-5f" transform="translate(274.658203 0)"/>
      <use xlink:href="#DejaVuSans-33" transform="translate(324.658203 0)"/>
      <use xlink:href="#DejaVuSans-35" transform="translate(388.28125 0)"/>
      <use xlink:href="#DejaVuSans-4d" transform="translate(451.904297 0)"/>
     </g>
    </g>
    <g id="line2d_21">
     <defs>
      <path id="m89ea849151" d="M 0 5 
C 1.326016 5 2.597899 4.473168 3.535534 3.535534 
C 4.473168 2.597899 5 1.326016 5 0 
C 5 -1.326016 4.473168 -2.597899 3.535534 -3.535534 
C 2.597899 -4.473168 1.326016 -5 0 -5 
C -1.326016 -5 -2.597899 -4.473168 -3.535534 -3.535534 
C -4.473168 -2.597899 -5 -1.326016 -5 0 
C -5 1.326016 -4.473168 2.597899 -3.535534 3.535534 
C -2.597899 4.473168 -1.326016 5 0 5 
z
" style="stroke: #ffffff; stroke-width: 0.8"/>
     </defs>
     <g>
      <use xlink:href="#m89ea849151" x="339.822625" y="109.641562" style="fill: #d62728; stroke: #ffffff; stroke-width: 0.8"/>
     </g>
    </g>
    <g id="text_15">
     <!-- esm2_8M -->
     <g transform="translate(357.822625 113.141562) scale(0.1 -0.1)">
      <defs>
       <path id="DejaVuSans-38" d="M 2034 2216 
Q 1584 2216 1326 1975 
Q 1069 1734 1069 1313 
Q 1069 891 1326 650 
Q 1584 409 2034 409 
Q 2484 409 2743 651 
Q 3003 894 3003 1313 
Q 3003 1734 2745 1975 
Q 2488 2216 2034 2216 
z
M 1403 2484 
Q 997 2584 770 2862 
Q 544 3141 544 3541 
Q 544 4100 942 4425 
Q 1341 4750 2034 4750 
Q 2731 4750 3128 4425 
Q 3525 4100 3525 3541 
Q 3525 3141 3298 2862 
Q 3072 2584 2669 2484 
Q 3125 2378 3379 2068 
Q 3634 1759 3634 1313 
Q 3634 634 3220 271 
Q 2806 -91 2034 -91 
Q 1263 -91 848 271 
Q 434 634 434 1313 
Q 434 1759 690 2068 
Q 947 2378 1403 2484 
z
M 1172 3481 
Q 1172 3119 1398 2916 
Q 1625 2713 2034 2713 
Q 2441 2713 2670 2916 
Q 2900 3119 2900 3481 
Q 2900 3844 2670 4047 
Q 2441 4250 2034 4250 
Q 1625 4250 1398 4047 
Q 1172 3844 1172 3481 
z
" transform="scale(0.015625)"/>
      </defs>
      <use xlink:href="#DejaVuSans-65"/>
      <use xlink:href="#DejaVuSans-73" transform="translate(61.523438 0)"/>
      <use xlink:href="#DejaVuSans-6d" transform="translate(113.623047 0)"/>
      <use xlink:href="#DejaVuSans-32" transform="translate(211.035156 0)"/>
      <use xlink:href="#DejaVuSans-5f" transform="translate(274.658203 0)"/>
      <use xlink:href="#DejaVuSans-38" transform="translate(324.658203 0)"/>
      <use xlink:href="#DejaVuSans-4d" transform="translate(388.28125 0)"/>
     </g>
    </g>
    <g id="line2d_22">
     <defs>
      <path id="mcd1817006f" d="M 0 5 
C 1.326016 5 2.597899 4.473168 3.535534 3.535534 
C 4.473168 2.597899 5 1.326016 5 0 
C 5 -1.326016 4.473168 -2.597899 3.535534 -3.535534 
C 2.597899 -4.473168 1.326016 -5 0 -5 
C -1.326016 -5 -2.597899 -4.473168 -3.535534 -3.535534 
C -4.473168 -2.597899 -5 -1.326016 -5 0 
C -5 1.326016 -4.473168 2.597899 -3.535534 3.535534 
C -2.597899 4.473168 -1.326016 5 0 5 
z
" style="stroke: #ffffff; stroke-width: 0.8"/>
     </defs>
     <g>
      <use xlink:href="#mcd1817006f" x="339.822625" y="124.597812" style="fill: #9467bd; stroke: #ffffff; stroke-width: 0.8"/>
     </g>
    </g>
    <g id="text_16">
     <!-- prot_bert -->
     <g transform="translate(357.822625 128.097812) scale(0.1 -0.1)">
      <defs>
       <path id="DejaVuSans-70" d="M 1159 525 
L 1159 -1331 
L 581 -1331 
L 581 3500 
L 1159 3500 
L 1159 2969 
Q 1341 3281 1617 3432 
Q 1894 3584 2278 3584 
Q 2916 3584 3314 3078 
Q 3713 2572 3713 1747 
Q 3713 922 3314 415 
Q 2916 -91 2278 -91 
Q 1894 -91 1617 61 
Q 1341 213 1159 525 
z
M 3116 1747 
Q 3116 2381 2855 2742 
Q 2594 3103 2138 3103 
Q 1681 3103 1420 2742 
Q 1159 2381 1159 1747 
Q 1159 1113 1420 752 
Q 1681 391 2138 391 
Q 2594 391 2855 752 
Q 3116 1113 3116 1747 
z
" transform="scale(0.015625)"/>
      </defs>
      <use xlink:href="#DejaVuSans-70"/>
      <use xlink:href="#DejaVuSans-72" transform="translate(63.476562 0)"/>
      <use xlink:href="#DejaVuSans-6f" transform="translate(102.339844 0)"/>
      <use xlink:href="#DejaVuSans-74" transform="translate(163.521484 0)"/>
      <use xlink:href="#DejaVuSans-5f" transform="translate(202.730469 0)"/>
      <use xlink:href="#DejaVuSans-62" transform="translate(252.730469 0)"/>
      <use xlink:href="#DejaVuSans-65" transform="translate(316.207031 0)"/>
      <use xlink:href="#DejaVuSans-72" transform="translate(377.730469 0)"/>
      <use xlink:href="#DejaVuSans-74" transform="translate(418.84375 0)"/>
     </g>
    </g>
    <g id="line2d_23"/>
    <g id="text_17">
     <!-- clustering -->
     <g transform="translate(357.822625 143.054062) scale(0.1 -0.1)">
      <use xlink:href="#DejaVuSans-63"/>
      <use xlink:href="#DejaVuSans-6c" transform="translate(54.980469 0)"/>
      <use xlink:href="#DejaVuSans-75" transform="translate(82.763672 0)"/>
      <use xlink:href="#DejaVuSans-73" transform="translate(146.142578 0)"/>
      <use xlink:href="#DejaVuSans-74" transform="translate(198.242188 0)"/>
      <use xlink:href="#DejaVuSans-65" transform="translate(237.451172 0)"/>
      <use xlink:href="#DejaVuSans-72" transform="translate(298.974609 0)"/>
      <use xlink:href="#DejaVuSans-69" transform="translate(340.087891 0)"/>
      <use xlink:href="#DejaVuSans-6e" transform="translate(367.871094 0)"/>
      <use xlink:href="#DejaVuSans-67" transform="translate(431.25 0)"/>
     </g>
    </g>
    <g id="line2d_24">
     <defs>
      <path id="m62d08b92de" d="M 0 5 
C 1.326016 5 2.597899 4.473168 3.535534 3.535534 
C 4.473168 2.597899 5 1.326016 5 0 
C 5 -1.326016 4.473168 -2.597899 3.535534 -3.535534 
C 2.597899 -4.473168 1.326016 -5 0 -5 
C -1.326016 -5 -2.597899 -4.473168 -3.535534 -3.535534 
C -4.473168 -2.597899 -5 -1.326016 -5 0 
C -5 1.326016 -4.473168 2.597899 -3.535534 3.535534 
C -2.597899 4.473168 -1.326016 5 0 5 
z
" style="stroke: #ffffff; stroke-width: 0.8"/>
     </defs>
     <g>
      <use xlink:href="#m62d08b92de" x="339.822625" y="154.232187" style="fill: #333333; stroke: #ffffff; stroke-width: 0.8"/>
     </g>
    </g>
    <g id="text_18">
     <!-- hierarchical -->
     <g transform="translate(357.822625 157.732187) scale(0.1 -0.1)">
      <use xlink:href="#DejaVuSans-68"/>
      <use xlink:href="#DejaVuSans-69" transform="translate(63.378906 0)"/>
      <use xlink:href="#DejaVuSans-65" transform="translate(91.162109 0)"/>
      <use xlink:href="#DejaVuSans-72" transform="translate(152.685547 0)"/>
      <use xlink:href="#DejaVuSans-61" transform="translate(193.798828 0)"/>
      <use xlink:href="#DejaVuSans-72" transform="translate(255.078125 0)"/>
      <use xlink:href="#DejaVuSans-63" transform="translate(293.941406 0)"/>
      <use xlink:href="#DejaVuSans-68" transform="translate(348.921875 0)"/>
      <use xlink:href="#DejaVuSans-69" transform="translate(412.300781 0)"/>
      <use xlink:href="#DejaVuSans-63" transform="translate(440.083984 0)"/>
      <use xlink:href="#DejaVuSans-61" transform="translate(495.064453 0)"/>
      <use xlink:href="#DejaVuSans-6c" transform="translate(556.34375 0)"/>
     </g>
    </g>
    <g id="line2d_25">
     <defs>
      <path id="ma8da3f81d9" d="M -2.5 5 
L 0 2.5 
L 2.5 5 
L 5 2.5 
L 2.5 0 
L 5 -2.5 
L 2.5 -5 
L 0 -2.5 
L -2.5 -5 
L -5 -2.5 
L -2.5 0 
L -5 2.5 
z
" style="stroke: #ffffff; stroke-width: 0.8; stroke-linejoin: miter"/>
     </defs>
     <g>
      <use xlink:href="#ma8da3f81d9" x="339.822625" y="168.910312" style="fill: #333333; stroke: #ffffff; stroke-width: 0.8; stroke-linejoin: miter"/>
     </g>
    </g>
    <g id="text_19">
     <!-- kmeans -->
     <g transform="translate(357.822625 172.410312) scale(0.1 -0.1)">
      <defs>
       <path id="DejaVuSans-6b" d="M 581 4863 
L 1159 4863 
L 1159 1991 
L 2875 3500 
L 3609 3500 
L 1753 1863 
L 3688 0 
L 2938 0 
L 1159 1709 
L 1159 0 
L 581 0 
L 581 4863 
z
" transform="scale(0.015625)"/>
      </defs>
      <use xlink:href="#DejaVuSans-6b"/>
      <use xlink:href="#DejaVuSans-6d" transform="translate(57.910156 0)"/>
      <use xlink:href="#DejaVuSans-65" transform="translate(155.322266 0)"/>
      <use xlink:href="#DejaVuSans-61" transform="translate(216.845703 0)"/>
      <use xlink:href="#DejaVuSans-6e" transform="translate(278.125 0)"/>
      <use xlink:href="#DejaVuSans-73" transform="translate(341.503906 0)"/>
     </g>
    </g>
    <g id="line2d_26">
     <defs>
      <path id="m94274f013a" d="M -3.535534 -3.535534 
L -3.535534 3.535534 
L 3.535534 3.535534 
L 3.535534 -3.535534 
z
" style="stroke: #ffffff; stroke-width: 0.8; stroke-linejoin: miter"/>
     </defs>
     <g>
      <use xlink:href="#m94274f013a" x="339.822625" y="183.588437" style="fill: #333333; stroke: #ffffff; stroke-width: 0.8; stroke-linejoin: miter"/>
     </g>
    </g>
    <g id="text_20">
     <!-- spectral -->
     <g transform="translate(357.822625 187.088437) scale(0.1 -0.1)">
      <use xlink:href="#DejaVuSans-73"/>
      <use xlink:href="#DejaVuSans-70" transform="translate(52.099609 0)"/>
      <use xlink:href="#DejaVuSans-65" transform="translate(115.576172 0)"/>
      <use xlink:href="#DejaVuSans-63" transform="translate(177.099609 0)"/>
      <use xlink:href="#DejaVuSans-74" transform="translate(232.080078 0)"/>
      <use xlink:href="#DejaVuSans-72" transform="translate(271.289062 0)"/>
      <use xlink:href="#DejaVuSans-61" transform="translate(312.402344 0)"/>
      <use xlink:href="#DejaVuSans-6c" transform="translate(373.681641 0)"/>
     </g>
    </g>
   </g>
  </g>
 </g>
 <defs>
  <clipPath id="pcf77cac039">
   <rect x="103.641562" y="22.318125" width="170.04" height="148.6"/>
  </clipPath>
 </defs>
</svg>
