<?xml version="1.0" encoding="utf-8" standalone="no"?>
<!DOCTYPE svg PUBLIC "-//W3C//DTD SVG 1.1//EN"
  "http://www.w3.org/Graphics/SVG/1.1/DTD/svg11.dtd">
<svg xmlns:xlink="http://www.w3.org/1999/xlink" width="468.887375pt" height="208.474375pt" viewBox="0 0 468.887375 208.474375" xmlns="http://www.w3.org/2000/svg" version="1.1">
 <metadata>
  <rdf:RDF xmlns:dc="http://purl.org/dc/elements/1.1/" xmlns:cc="http://creativecommons.org/ns#" xmlns:rdf="http://www.w3.org/1999/02/22-rdf-syntax-ns#">
   <cc:Work>
    <dc:type rdf:resource="http://purl.org/dc/dcmitype/StillImage"/>
    <dc:date>2025-12-08T15:24:50.333284</dc:date>
    <dc:format>image/svg+xml</dc:format>
    <dc:creator>
     <cc:Agent>
      <dc:title>Matplotlib v3.10.6, https://matplotlib.org/</dc:title>
     </cc:Agent>
    </dc:creator>
   </cc:Work>
  </rdf:RDF>
 </metadata>
 <defs>
  <style type="text/css">*{stroke-linejoin: round; stroke-linecap: butt}</style>
 </defs>
 <g id="figure_1">
  <g id="patch_1">
   <path d="M 0 208.474375 
L 468.887375 208.474375 
L 468.887375 0 
L 0 0 
z
" style="fill: #ffffff"/>
  </g>
  <g id="axes_1">
   <g id="patch_2">
    <path d="M 110.031563 170.918125 
L 267.291562 170.918125 
L 267.291562 22.318125 
L 110.031563 22.318125 
z
" style="fill: #ffffff"/>
   </g>
   <g id="PathCollection_1">
    <path d="M 161.154635 119.44262 
C 162.48065 119.44262 163.752534 118.915788 164.690169 117.978154 
C 165.627803 117.040519 166.154635 115.768635 166.154635 114.44262 
C 166.154635 113.116604 165.627803 111.844721 164.690169 110.907086 
C 163.752534 109.969451 162.48065 109.44262 161.154635 109.44262 
C 159.828619 109.44262 158.556736 109.969451 157.619101 110.907086 
C 156.681467 111.844721 156.154635 113.116604 156.154635 114.44262 
C 156.154635 115.768635 156.681467 117.040519 157.619101 117.978154 
C 158.556736 118.915788 159.828619 119.44262 161.154635 119.44262 
z
" clip-path="url(#p2c10a7938b)" style="fill: #1f77b4; stroke: #ffffff; stroke-width: 0.8"/>
    <path d="M 117.756177 165.666908 
L 120.256177 163.166908 
L 122.756177 165.666908 
L 125.256177 163.166908 
L 122.756177 160.666908 
L 125.256177 158.166908 
L 122.756177 155.666908 
L 120.256177 158.166908 
L 117.756177 155.666908 
L 115.256177 158.166908 
L 117.756177 160.666908 
L 115.256177 163.166908 
z
" clip-path="url(#p2c10a7938b)" style="fill: #1f77b4; stroke: #ffffff; stroke-width: 0.8"/>
    <path d="M 167.8504 124.047992 
C 169.176416 124.047992 170.4483 123.52116 171.385934 122.583526 
C 172.323569 121.645891 172.8504 120.374007 172.8504 119.047992 
C 172.8504 117.721976 172.323569 116.450092 171.385934 115.512458 
C 170.4483 114.574823 169.176416 114.047992 167.8504 114.047992 
C 166.524385 114.047992 165.252501 114.574823 164.314866 115.512458 
C 163.377232 116.450092 162.8504 117.721976 162.8504 119.047992 
C 162.8504 120.374007 163.377232 121.645891 164.314866 122.583526 
C 165.252501 123.52116 166.524385 124.047992 167.8504 124.047992 
z
" clip-path="url(#p2c10a7938b)" style="fill: #1f77b4; stroke: #ffffff; stroke-width: 0.8"/>
    <path d="M 117.57521 150.230384 
L 120.07521 147.730384 
L 122.57521 150.230384 
L 125.07521 147.730384 
L 122.57521 145.230384 
L 125.07521 142.730384 
L 122.57521 140.230384 
L 120.07521 142.730384 
L 117.57521 140.230384 
L 115.07521 142.730384 
L 117.57521 145.230384 
L 115.07521 147.730384 
z
" clip-path="url(#p2c10a7938b)" style="fill: #1f77b4; stroke: #ffffff; stroke-width: 0.8"/>
    <path d="M 169.117167 128.653364 
C 170.443182 128.653364 171.715066 128.126532 172.652701 127.188898 
C 173.590335 126.251263 174.117167 124.979379 174.117167 123.653364 
C 174.117167 122.327348 173.590335 121.055464 172.652701 120.11783 
C 171.715066 119.180195 170.443182 118.653364 169.117167 118.653364 
C 167.791151 118.653364 166.519267 119.180195 165.581633 120.11783 
C 164.643998 121.055464 164.117167 122.327348 164.117167 123.653364 
C 164.117167 124.979379 164.643998 126.251263 165.581633 127.188898 
C 166.519267 128.126532 167.791151 128.653364 169.117167 128.653364 
z
" clip-path="url(#p2c10a7938b)" style="fill: #1f77b4; stroke: #ffffff; stroke-width: 0.8"/>
    <path d="M 126.442575 158.247142 
L 128.942575 155.747142 
L 131.442575 158.247142 
L 133.942575 155.747142 
L 131.442575 153.247142 
L 133.942575 150.747142 
L 131.442575 148.247142 
L 128.942575 150.747142 
L 126.442575 148.247142 
L 123.942575 150.747142 
L 126.442575 153.247142 
L 123.942575 155.747142 
z
" clip-path="url(#p2c10a7938b)" style="fill: #1f77b4; stroke: #ffffff; stroke-width: 0.8"/>
    <path d="M 177.260665 111.596431 
C 178.58668 111.596431 179.858564 111.069599 180.796199 110.131965 
C 181.733833 109.19433 182.260665 107.922446 182.260665 106.596431 
C 182.260665 105.270415 181.733833 103.998531 180.796199 103.060897 
C 179.858564 102.123262 178.58668 101.596431 177.260665 101.596431 
C 175.934649 101.596431 174.662766 102.123262 173.725131 103.060897 
C 172.787496 103.998531 172.260665 105.270415 172.260665 106.596431 
C 172.260665 107.922446 172.787496 109.19433 173.725131 110.131965 
C 174.662766 111.069599 175.934649 111.596431 177.260665 111.596431 
z
" clip-path="url(#p2c10a7938b)" style="fill: #ff7f0e; stroke: #ffffff; stroke-width: 0.8"/>
    <path d="M 115.041678 168.310733 
L 117.541678 165.810733 
L 120.041678 168.310733 
L 122.541678 165.810733 
L 120.041678 163.310733 
L 122.541678 160.810733 
L 120.041678 158.310733 
L 117.541678 160.810733 
L 115.041678 158.310733 
L 112.541678 160.810733 
L 115.041678 163.310733 
L 112.541678 165.810733 
z
" clip-path="url(#p2c10a7938b)" style="fill: #ff7f0e; stroke: #ffffff; stroke-width: 0.8"/>
    <path d="M 172.736499 121.148313 
C 174.062515 121.148313 175.334399 120.621482 176.272033 119.683847 
C 177.209668 118.746213 177.736499 117.474329 177.736499 116.148313 
C 177.736499 114.822298 177.209668 113.550414 176.272033 112.612779 
C 175.334399 111.675145 174.062515 111.148313 172.736499 111.148313 
C 171.410484 111.148313 170.1386 111.675145 169.200965 112.612779 
C 168.263331 113.550414 167.736499 114.822298 167.736499 116.148313 
C 167.736499 117.474329 168.263331 118.746213 169.200965 119.683847 
C 170.1386 120.621482 171.410484 121.148313 172.736499 121.148313 
z
" clip-path="url(#p2c10a7938b)" style="fill: #ff7f0e; stroke: #ffffff; stroke-width: 0.8"/>
    <path d="M 117.57521 164.643492 
L 120.07521 162.143492 
L 122.57521 164.643492 
L 125.07521 162.143492 
L 122.57521 159.643492 
L 125.07521 157.143492 
L 122.57521 154.643492 
L 120.07521 157.143492 
L 117.57521 154.643492 
L 115.07521 157.143492 
L 117.57521 159.643492 
L 115.07521 162.143492 
z
" clip-path="url(#p2c10a7938b)" style="fill: #ff7f0e; stroke: #ffffff; stroke-width: 0.8"/>
    <path d="M 260.143381 34.07267 
C 261.469396 34.07267 262.74128 33.545839 263.678915 32.608204 
C 264.616549 31.67057 265.143381 30.398686 265.143381 29.07267 
C 265.143381 27.746655 264.616549 26.474771 263.678915 25.537137 
C 262.74128 24.599502 261.469396 24.07267 260.143381 24.07267 
C 258.817365 24.07267 257.545481 24.599502 256.607847 25.537137 
C 255.670212 26.474771 255.143381 27.746655 255.143381 29.07267 
C 255.143381 30.398686 255.670212 31.67057 256.607847 32.608204 
C 257.545481 33.545839 258.817365 34.07267 260.143381 34.07267 
z
" clip-path="url(#p2c10a7938b)" style="fill: #ff7f0e; stroke: #ffffff; stroke-width: 0.8"/>
    <path d="M 142.548605 144.260457 
L 145.048605 141.760457 
L 147.548605 144.260457 
L 150.048605 141.760457 
L 147.548605 139.260457 
L 150.048605 136.760457 
L 147.548605 134.260457 
L 145.048605 136.760457 
L 142.548605 134.260457 
L 140.048605 136.760457 
L 142.548605 139.260457 
L 140.048605 141.760457 
z
" clip-path="url(#p2c10a7938b)" style="fill: #ff7f0e; stroke: #ffffff; stroke-width: 0.8"/>
    <path d="M 188.299629 104.688373 
C 189.625645 104.688373 190.897529 104.161541 191.835163 103.223907 
C 192.772798 102.286272 193.299629 101.014388 193.299629 99.688373 
C 193.299629 98.362357 192.772798 97.090474 191.835163 96.152839 
C 190.897529 95.215204 189.625645 94.688373 188.299629 94.688373 
C 186.973614 94.688373 185.70173 95.215204 184.764095 96.152839 
C 183.826461 97.090474 183.299629 98.362357 183.299629 99.688373 
C 183.299629 101.014388 183.826461 102.286272 184.764095 103.223907 
C 185.70173 104.161541 186.973614 104.688373 188.299629 104.688373 
z
" clip-path="url(#p2c10a7938b)" style="fill: #2ca02c; stroke: #ffffff; stroke-width: 0.8"/>
    <path d="M 115.222644 168.566587 
L 117.722644 166.066587 
L 120.222644 168.566587 
L 122.722644 166.066587 
L 120.222644 163.566587 
L 122.722644 161.066587 
L 120.222644 158.566587 
L 117.722644 161.066587 
L 115.222644 158.566587 
L 112.722644 161.066587 
L 115.222644 163.566587 
L 112.722644 166.066587 
z
" clip-path="url(#p2c10a7938b)" style="fill: #2ca02c; stroke: #ffffff; stroke-width: 0.8"/>
    <path d="M 162.059468 126.691816 
C 163.385484 126.691816 164.657367 126.164985 165.595002 125.22735 
C 166.532637 124.289716 167.059468 123.017832 167.059468 121.691816 
C 167.059468 120.365801 166.532637 119.093917 165.595002 118.156283 
C 164.657367 117.218648 163.385484 116.691816 162.059468 116.691816 
C 160.733453 116.691816 159.461569 117.218648 158.523934 118.156283 
C 157.5863 119.093917 157.059468 120.365801 157.059468 121.691816 
C 157.059468 123.017832 157.5863 124.289716 158.523934 125.22735 
C 159.461569 126.164985 160.733453 126.691816 162.059468 126.691816 
z
" clip-path="url(#p2c10a7938b)" style="fill: #2ca02c; stroke: #ffffff; stroke-width: 0.8"/>
    <path d="M 117.213277 166.008047 
L 119.713277 163.508047 
L 122.213277 166.008047 
L 124.713277 163.508047 
L 122.213277 161.008047 
L 124.713277 158.508047 
L 122.213277 156.008047 
L 119.713277 158.508047 
L 117.213277 156.008047 
L 114.713277 158.508047 
L 117.213277 161.008047 
L 114.713277 163.508047 
z
" clip-path="url(#p2c10a7938b)" style="fill: #2ca02c; stroke: #ffffff; stroke-width: 0.8"/>
    <path d="M 241.503818 52.238304 
C 242.829833 52.238304 244.101717 51.711473 245.039352 50.773838 
C 245.976986 49.836203 246.503818 48.56432 246.503818 47.238304 
C 246.503818 45.912289 245.976986 44.640405 245.039352 43.70277 
C 244.101717 42.765136 242.829833 42.238304 241.503818 42.238304 
C 240.177802 42.238304 238.905919 42.765136 237.968284 43.70277 
C 237.03065 44.640405 236.503818 45.912289 236.503818 47.238304 
C 236.503818 48.56432 237.03065 49.836203 237.968284 50.773838 
C 238.905919 51.711473 240.177802 52.238304 241.503818 52.238304 
z
" clip-path="url(#p2c10a7938b)" style="fill: #2ca02c; stroke: #ffffff; stroke-width: 0.8"/>
    <path d="M 136.576706 148.354121 
L 139.076706 145.854121 
L 141.576706 148.354121 
L 144.076706 145.854121 
L 141.576706 143.354121 
L 144.076706 140.854121 
L 141.576706 138.354121 
L 139.076706 140.854121 
L 136.576706 138.354121 
L 134.076706 140.854121 
L 136.576706 143.354121 
L 134.076706 145.854121 
z
" clip-path="url(#p2c10a7938b)" style="fill: #2ca02c; stroke: #ffffff; stroke-width: 0.8"/>
    <path d="M 170.5649 115.690095 
C 171.890915 115.690095 173.162799 115.163263 174.100434 114.225629 
C 175.038068 113.287994 175.5649 112.01611 175.5649 110.690095 
C 175.5649 109.364079 175.038068 108.092195 174.100434 107.154561 
C 173.162799 106.216926 171.890915 105.690095 170.5649 105.690095 
C 169.238884 105.690095 167.967 106.216926 167.029366 107.154561 
C 166.091731 108.092195 165.5649 109.364079 165.5649 110.690095 
C 165.5649 112.01611 166.091731 113.287994 167.029366 114.225629 
C 167.967 115.163263 169.238884 115.690095 170.5649 115.690095 
z
" clip-path="url(#p2c10a7938b)" style="fill: #d62728; stroke: #ffffff; stroke-width: 0.8"/>
    <path d="M 114.679744 169.16358 
L 117.179744 166.66358 
L 119.679744 169.16358 
L 122.179744 166.66358 
L 119.679744 164.16358 
L 122.179744 161.66358 
L 119.679744 159.16358 
L 117.179744 161.66358 
L 114.679744 159.16358 
L 112.179744 161.66358 
L 114.679744 164.16358 
L 112.179744 166.66358 
z
" clip-path="url(#p2c10a7938b)" style="fill: #d62728; stroke: #ffffff; stroke-width: 0.8"/>
    <path d="M 179.975164 103.579672 
C 181.30118 103.579672 182.573064 103.052841 183.510698 102.115206 
C 184.448333 101.177572 184.975164 99.905688 184.975164 98.579672 
C 184.975164 97.253657 184.448333 95.981773 183.510698 95.044138 
C 182.573064 94.106504 181.30118 93.579672 179.975164 93.579672 
C 178.649149 93.579672 177.377265 94.106504 176.43963 95.044138 
C 175.501996 95.981773 174.975164 97.253657 174.975164 98.579672 
C 174.975164 99.905688 175.501996 101.177572 176.43963 102.115206 
C 177.377265 103.052841 178.649149 103.579672 179.975164 103.579672 
z
" clip-path="url(#p2c10a7938b)" style="fill: #d62728; stroke: #ffffff; stroke-width: 0.8"/>
    <path d="M 117.57521 163.705361 
L 120.07521 161.205361 
L 122.57521 163.705361 
L 125.07521 161.205361 
L 122.57521 158.705361 
L 125.07521 156.205361 
L 122.57521 153.705361 
L 120.07521 156.205361 
L 117.57521 153.705361 
L 115.07521 156.205361 
L 117.57521 158.705361 
L 115.07521 161.205361 
z
" clip-path="url(#p2c10a7938b)" style="fill: #d62728; stroke: #ffffff; stroke-width: 0.8"/>
    <path d="M 221.416522 66.736697 
C 222.742538 66.736697 224.014422 66.209866 224.952056 65.272231 
C 225.889691 64.334596 226.416522 63.062713 226.416522 61.736697 
C 226.416522 60.410682 225.889691 59.138798 224.952056 58.201163 
C 224.014422 57.263529 222.742538 56.736697 221.416522 56.736697 
C 220.090507 56.736697 218.818623 57.263529 217.880988 58.201163 
C 216.943354 59.138798 216.416522 60.410682 216.416522 61.736697 
C 216.416522 63.062713 216.943354 64.334596 217.880988 65.272231 
C 218.818623 66.209866 220.090507 66.736697 221.416522 66.736697 
z
" clip-path="url(#p2c10a7938b)" style="fill: #d62728; stroke: #ffffff; stroke-width: 0.8"/>
    <path d="M 148.520504 142.384195 
L 151.020504 139.884195 
L 153.520504 142.384195 
L 156.020504 139.884195 
L 153.520504 137.384195 
L 156.020504 134.884195 
L 153.520504 132.384195 
L 151.020504 134.884195 
L 148.520504 132.384195 
L 146.020504 134.884195 
L 148.520504 137.384195 
L 146.020504 139.884195 
z
" clip-path="url(#p2c10a7938b)" style="fill: #d62728; stroke: #ffffff; stroke-width: 0.8"/>
    <path d="M 159.344969 125.583116 
C 160.670984 125.583116 161.942868 125.056284 162.880503 124.11865 
C 163.818137 123.181015 164.344969 121.909131 164.344969 120.583116 
C 164.344969 119.2571 163.818137 117.985216 162.880503 117.047582 
C 161.942868 116.109947 160.670984 115.583116 159.344969 115.583116 
C 158.018953 115.583116 156.747069 116.109947 155.809435 117.047582 
C 154.8718 117.985216 154.344969 119.2571 154.344969 120.583116 
C 154.344969 121.909131 154.8718 123.181015 155.809435 124.11865 
C 156.747069 125.056284 158.018953 125.583116 159.344969 125.583116 
z
" clip-path="url(#p2c10a7938b)" style="fill: #9467bd; stroke: #ffffff; stroke-width: 0.8"/>
    <path d="M 117.394244 166.43447 
L 119.894244 163.93447 
L 122.394244 166.43447 
L 124.894244 163.93447 
L 122.394244 161.43447 
L 124.894244 158.93447 
L 122.394244 156.43447 
L 119.894244 158.93447 
L 117.394244 156.43447 
L 114.894244 158.93447 
L 117.394244 161.43447 
L 114.894244 163.93447 
z
" clip-path="url(#p2c10a7938b)" style="fill: #9467bd; stroke: #ffffff; stroke-width: 0.8"/>
    <path d="M 164.773968 123.450999 
C 166.099983 123.450999 167.371867 122.924168 168.309501 121.986533 
C 169.247136 121.048899 169.773968 119.777015 169.773968 118.450999 
C 169.773968 117.124984 169.247136 115.8531 168.309501 114.915465 
C 167.371867 113.977831 166.099983 113.450999 164.773968 113.450999 
C 163.447952 113.450999 162.176068 113.977831 161.238434 114.915465 
C 160.300799 115.8531 159.773968 117.124984 159.773968 118.450999 
C 159.773968 119.777015 160.300799 121.048899 161.238434 121.986533 
C 162.176068 122.924168 163.447952 123.450999 164.773968 123.450999 
z
" clip-path="url(#p2c10a7938b)" style="fill: #9467bd; stroke: #ffffff; stroke-width: 0.8"/>
    <path d="M 117.756177 165.496339 
L 120.256177 162.996339 
L 122.756177 165.496339 
L 125.256177 162.996339 
L 122.756177 160.496339 
L 125.256177 157.996339 
L 122.756177 155.496339 
L 120.256177 157.996339 
L 117.756177 155.496339 
L 115.256177 157.996339 
L 117.756177 160.496339 
L 115.256177 162.996339 
z
" clip-path="url(#p2c10a7938b)" style="fill: #9467bd; stroke: #ffffff; stroke-width: 0.8"/>
    <path d="M 188.661562 108.867322 
C 189.987578 108.867322 191.259462 108.34049 192.197096 107.402855 
C 193.134731 106.465221 193.661562 105.193337 193.661562 103.867322 
C 193.661562 102.541306 193.134731 101.269422 192.197096 100.331788 
C 191.259462 99.394153 189.987578 98.867322 188.661562 98.867322 
C 187.335547 98.867322 186.063663 99.394153 185.126029 100.331788 
C 184.188394 101.269422 183.661562 102.541306 183.661562 103.867322 
C 183.661562 105.193337 184.188394 106.465221 185.126029 107.402855 
C 186.063663 108.34049 187.335547 108.867322 188.661562 108.867322 
z
" clip-path="url(#p2c10a7938b)" style="fill: #9467bd; stroke: #ffffff; stroke-width: 0.8"/>
    <path d="M 130.966741 155.006325 
L 133.466741 152.506325 
L 135.966741 155.006325 
L 138.466741 152.506325 
L 135.966741 150.006325 
L 138.466741 147.506325 
L 135.966741 145.006325 
L 133.466741 147.506325 
L 130.966741 145.006325 
L 128.466741 147.506325 
L 130.966741 150.006325 
L 128.466741 152.506325 
z
" clip-path="url(#p2c10a7938b)" style="fill: #9467bd; stroke: #ffffff; stroke-width: 0.8"/>
   </g>
   <g id="matplotlib.axis_1">
    <g id="xtick_1">
     <g id="line2d_1">
      <defs>
       <path id="m5427d2259d" d="M 0 0 
L 0 3.5 
" style="stroke: #000000; stroke-width: 0.8"/>
      </defs>
      <g>
       <use xlink:href="#m5427d2259d" x="119.713277" y="170.918125" style="stroke: #000000; stroke-width: 0.8"/>
      </g>
     </g>
     <g id="text_1">
      <!-- 0.00 -->
      <g transform="translate(108.580465 185.516562) scale(0.1 -0.1)">
       <defs>
        <path id="DejaVuSans-30" d="M 2034 4250 
Q 1547 4250 1301 3770 
Q 1056 3291 1056 2328 
Q 1056 1369 1301 889 
Q 1547 409 2034 409 
Q 2525 409 2770 889 
Q 3016 1369 3016 2328 
Q 3016 3291 2770 3770 
Q 2525 4250 2034 4250 
z
M 2034 4750 
Q 2819 4750 3233 4129 
Q 3647 3509 3647 2328 
Q 3647 1150 3233 529 
Q 2819 -91 2034 -91 
Q 1250 -91 836 529 
Q 422 1150 422 2328 
Q 422 3509 836 4129 
Q 1250 4750 2034 4750 
z
" transform="scale(0.015625)"/>
        <path id="DejaVuSans-2e" d="M 684 794 
L 1344 794 
L 1344 0 
L 684 0 
L 684 794 
z
" transform="scale(0.015625)"/>
       </defs>
       <use xlink:href="#DejaVuSans-30"/>
       <use xlink:href="#DejaVuSans-2e" transform="translate(63.623047 0)"/>
       <use xlink:href="#DejaVuSans-30" transform="translate(95.410156 0)"/>
       <use xlink:href="#DejaVuSans-30" transform="translate(159.033203 0)"/>
      </g>
     </g>
    </g>
    <g id="xtick_2">
     <g id="line2d_2">
      <g>
       <use xlink:href="#m5427d2259d" x="155.906603" y="170.918125" style="stroke: #000000; stroke-width: 0.8"/>
      </g>
     </g>
     <g id="text_2">
      <!-- 0.02 -->
      <g transform="translate(144.77379 185.516562) scale(0.1 -0.1)">
       <defs>
        <path id="DejaVuSans-32" d="M 1228 531 
L 3431 531 
L 3431 0 
L 469 0 
L 469 531 
Q 828 903 1448 1529 
Q 2069 2156 2228 2338 
Q 2531 2678 2651 2914 
Q 2772 3150 2772 3378 
Q 2772 3750 2511 3984 
Q 2250 4219 1831 4219 
Q 1534 4219 1204 4116 
Q 875 4013 500 3803 
L 500 4441 
Q 881 4594 1212 4672 
Q 1544 4750 1819 4750 
Q 2544 4750 2975 4387 
Q 3406 4025 3406 3419 
Q 3406 3131 3298 2873 
Q 3191 2616 2906 2266 
Q 2828 2175 2409 1742 
Q 1991 1309 1228 531 
z
" transform="scale(0.015625)"/>
       </defs>
       <use xlink:href="#DejaVuSans-30"/>
       <use xlink:href="#DejaVuSans-2e" transform="translate(63.623047 0)"/>
       <use xlink:href="#DejaVuSans-30" transform="translate(95.410156 0)"/>
       <use xlink:href="#DejaVuSans-32" transform="translate(159.033203 0)"/>
      </g>
     </g>
    </g>
    <g id="xtick_3">
     <g id="line2d_3">
      <g>
       <use xlink:href="#m5427d2259d" x="192.099928" y="170.918125" style="stroke: #000000; stroke-width: 0.8"/>
      </g>
     </g>
     <g id="text_3">
      <!-- 0.04 -->
      <g transform="translate(180.967116 185.516562) scale(0.1 -0.1)">
       <defs>
        <path id="DejaVuSans-34" d="M 2419 4116 
L 825 1625 
L 2419 1625 
L 2419 4116 
z
M 2253 4666 
L 3047 4666 
L 3047 1625 
L 3713 1625 
L 3713 1100 
L 3047 1100 
L 3047 0 
L 2419 0 
L 2419 1100 
L 313 1100 
L 313 1709 
L 2253 4666 
z
" transform="scale(0.015625)"/>
       </defs>
       <use xlink:href="#DejaVuSans-30"/>
       <use xlink:href="#DejaVuSans-2e" transform="translate(63.623047 0)"/>
       <use xlink:href="#DejaVuSans-30" transform="translate(95.410156 0)"/>
       <use xlink:href="#DejaVuSans-34" transform="translate(159.033203 0)"/>
      </g>
     </g>
    </g>
    <g id="xtick_4">
     <g id="line2d_4">
      <g>
       <use xlink:href="#m5427d2259d" x="228.293254" y="170.918125" style="stroke: #000000; stroke-width: 0.8"/>
      </g>
     </g>
     <g id="text_4">
      <!-- 0.06 -->
      <g transform="translate(217.160442 185.516562) scale(0.1 -0.1)">
       <defs>
        <path id="DejaVuSans-36" d="M 2113 2584 
Q 1688 2584 1439 2293 
Q 1191 2003 1191 1497 
Q 1191 994 1439 701 
Q 1688 409 2113 409 
Q 2538 409 2786 701 
Q 3034 994 3034 1497 
Q 3034 2003 2786 2293 
Q 2538 2584 2113 2584 
z
M 3366 4563 
L 3366 3988 
Q 3128 4100 2886 4159 
Q 2644 4219 2406 4219 
Q 1781 4219 1451 3797 
Q 1122 3375 1075 2522 
Q 1259 2794 1537 2939 
Q 1816 3084 2150 3084 
Q 2853 3084 3261 2657 
Q 3669 2231 3669 1497 
Q 3669 778 3244 343 
Q 2819 -91 2113 -91 
Q 1303 -91 875 529 
Q 447 1150 447 2328 
Q 447 3434 972 4092 
Q 1497 4750 2381 4750 
Q 2619 4750 2861 4703 
Q 3103 4656 3366 4563 
z
" transform="scale(0.015625)"/>
       </defs>
       <use xlink:href="#DejaVuSans-30"/>
       <use xlink:href="#DejaVuSans-2e" transform="translate(63.623047 0)"/>
       <use xlink:href="#DejaVuSans-30" transform="translate(95.410156 0)"/>
       <use xlink:href="#DejaVuSans-36" transform="translate(159.033203 0)"/>
      </g>
     </g>
    </g>
    <g id="xtick_5">
     <g id="line2d_5">
      <g>
       <use xlink:href="#m5427d2259d" x="264.48658" y="170.918125" style="stroke: #000000; stroke-width: 0.8"/>
      </g>
     </g>
     <g id="text_5">
      <!-- 0.08 -->
      <g transform="translate(253.353767 185.516562) scale(0.1 -0.1)">
       <defs>
        <path id="DejaVuSans-38" d="M 2034 2216 
Q 1584 2216 1326 1975 
Q 1069 1734 1069 1313 
Q 1069 891 1326 650 
Q 1584 409 2034 409 
Q 2484 409 2743 651 
Q 3003 894 3003 1313 
Q 3003 1734 2745 1975 
Q 2488 2216 2034 2216 
z
M 1403 2484 
Q 997 2584 770 2862 
Q 544 3141 544 3541 
Q 544 4100 942 4425 
Q 1341 4750 2034 4750 
Q 2731 4750 3128 4425 
Q 3525 4100 3525 3541 
Q 3525 3141 3298 2862 
Q 3072 2584 2669 2484 
Q 3125 2378 3379 2068 
Q 3634 1759 3634 1313 
Q 3634 634 3220 271 
Q 2806 -91 2034 -91 
Q 1263 -91 848 271 
Q 434 634 434 1313 
Q 434 1759 690 2068 
Q 947 2378 1403 2484 
z
M 1172 3481 
Q 1172 3119 1398 2916 
Q 1625 2713 2034 2713 
Q 2441 2713 2670 2916 
Q 2900 3119 2900 3481 
Q 2900 3844 2670 4047 
Q 2441 4250 2034 4250 
Q 1625 4250 1398 4047 
Q 1172 3844 1172 3481 
z
" transform="scale(0.015625)"/>
       </defs>
       <use xlink:href="#DejaVuSans-30"/>
       <use xlink:href="#DejaVuSans-2e" transform="translate(63.623047 0)"/>
       <use xlink:href="#DejaVuSans-30" transform="translate(95.410156 0)"/>
       <use xlink:href="#DejaVuSans-38" transform="translate(159.033203 0)"/>
      </g>
     </g>
    </g>
    <g id="text_6">
     <!-- ARI Score -->
     <g transform="translate(164.700625 199.194687) scale(0.1 -0.1)">
      <defs>
       <path id="DejaVuSans-41" d="M 2188 4044 
L 1331 1722 
L 3047 1722 
L 2188 4044 
z
M 1831 4666 
L 2547 4666 
L 4325 0 
L 3669 0 
L 3244 1197 
L 1141 1197 
L 716 0 
L 50 0 
L 1831 4666 
z
" transform="scale(0.015625)"/>
       <path id="DejaVuSans-52" d="M 2841 2188 
Q 3044 2119 3236 1894 
Q 3428 1669 3622 1275 
L 4263 0 
L 3584 0 
L 2988 1197 
Q 2756 1666 2539 1819 
Q 2322 1972 1947 1972 
L 1259 1972 
L 1259 0 
L 628 0 
L 628 4666 
L 2053 4666 
Q 2853 4666 3247 4331 
Q 3641 3997 3641 3322 
Q 3641 2881 3436 2590 
Q 3231 2300 2841 2188 
z
M 1259 4147 
L 1259 2491 
L 2053 2491 
Q 2509 2491 2742 2702 
Q 2975 2913 2975 3322 
Q 2975 3731 2742 3939 
Q 2509 4147 2053 4147 
L 1259 4147 
z
" transform="scale(0.015625)"/>
       <path id="DejaVuSans-49" d="M 628 4666 
L 1259 4666 
L 1259 0 
L 628 0 
L 628 4666 
z
" transform="scale(0.015625)"/>
       <path id="DejaVuSans-20" transform="scale(0.015625)"/>
       <path id="DejaVuSans-53" d="M 3425 4513 
L 3425 3897 
Q 3066 4069 2747 4153 
Q 2428 4238 2131 4238 
Q 1616 4238 1336 4038 
Q 1056 3838 1056 3469 
Q 1056 3159 1242 3001 
Q 1428 2844 1947 2747 
L 2328 2669 
Q 3034 2534 3370 2195 
Q 3706 1856 3706 1288 
Q 3706 609 3251 259 
Q 2797 -91 1919 -91 
Q 1588 -91 1214 -16 
Q 841 59 441 206 
L 441 856 
Q 825 641 1194 531 
Q 1563 422 1919 422 
Q 2459 422 2753 634 
Q 3047 847 3047 1241 
Q 3047 1584 2836 1778 
Q 2625 1972 2144 2069 
L 1759 2144 
Q 1053 2284 737 2584 
Q 422 2884 422 3419 
Q 422 4038 858 4394 
Q 1294 4750 2059 4750 
Q 2388 4750 2728 4690 
Q 3069 4631 3425 4513 
z
" transform="scale(0.015625)"/>
       <path id="DejaVuSans-63" d="M 3122 3366 
L 3122 2828 
Q 2878 2963 2633 3030 
Q 2388 3097 2138 3097 
Q 1578 3097 1268 2742 
Q 959 2388 959 1747 
Q 959 1106 1268 751 
Q 1578 397 2138 397 
Q 2388 397 2633 464 
Q 2878 531 3122 666 
L 3122 134 
Q 2881 22 2623 -34 
Q 2366 -91 2075 -91 
Q 1284 -91 818 406 
Q 353 903 353 1747 
Q 353 2603 823 3093 
Q 1294 3584 2113 3584 
Q 2378 3584 2631 3529 
Q 2884 3475 3122 3366 
z
" transform="scale(0.015625)"/>
       <path id="DejaVuSans-6f" d="M 1959 3097 
Q 1497 3097 1228 2736 
Q 959 2375 959 1747 
Q 959 1119 1226 758 
Q 1494 397 1959 397 
Q 2419 397 2687 759 
Q 2956 1122 2956 1747 
Q 2956 2369 2687 2733 
Q 2419 3097 1959 3097 
z
M 1959 3584 
Q 2709 3584 3137 3096 
Q 3566 2609 3566 1747 
Q 3566 888 3137 398 
Q 2709 -91 1959 -91 
Q 1206 -91 779 398 
Q 353 888 353 1747 
Q 353 2609 779 3096 
Q 1206 3584 1959 3584 
z
" transform="scale(0.015625)"/>
       <path id="DejaVuSans-72" d="M 2631 2963 
Q 2534 3019 2420 3045 
Q 2306 3072 2169 3072 
Q 1681 3072 1420 2755 
Q 1159 2438 1159 1844 
L 1159 0 
L 581 0 
L 581 3500 
L 1159 3500 
L 1159 2956 
Q 1341 3275 1631 3429 
Q 1922 3584 2338 3584 
Q 2397 3584 2469 3576 
Q 2541 3569 2628 3553 
L 2631 2963 
z
" transform="scale(0.015625)"/>
       <path id="DejaVuSans-65" d="M 3597 1894 
L 3597 1613 
L 953 1613 
Q 991 1019 1311 708 
Q 1631 397 2203 397 
Q 2534 397 2845 478 
Q 3156 559 3463 722 
L 3463 178 
Q 3153 47 2828 -22 
Q 2503 -91 2169 -91 
Q 1331 -91 842 396 
Q 353 884 353 1716 
Q 353 2575 817 3079 
Q 1281 3584 2069 3584 
Q 2775 3584 3186 3129 
Q 3597 2675 3597 1894 
z
M 3022 2063 
Q 3016 2534 2758 2815 
Q 2500 3097 2075 3097 
Q 1594 3097 1305 2825 
Q 1016 2553 972 2059 
L 3022 2063 
z
" transform="scale(0.015625)"/>
      </defs>
      <use xlink:href="#DejaVuSans-41"/>
      <use xlink:href="#DejaVuSans-52" transform="translate(68.408203 0)"/>
      <use xlink:href="#DejaVuSans-49" transform="translate(137.890625 0)"/>
      <use xlink:href="#DejaVuSans-20" transform="translate(167.382812 0)"/>
      <use xlink:href="#DejaVuSans-53" transform="translate(199.169922 0)"/>
      <use xlink:href="#DejaVuSans-63" transform="translate(262.646484 0)"/>
      <use xlink:href="#DejaVuSans-6f" transform="translate(317.626953 0)"/>
      <use xlink:href="#DejaVuSans-72" transform="translate(378.808594 0)"/>
      <use xlink:href="#DejaVuSans-65" transform="translate(417.671875 0)"/>
     </g>
    </g>
   </g>
   <g id="matplotlib.axis_2">
    <g id="ytick_1">
     <g id="line2d_6">
      <defs>
       <path id="m636a93d8c4" d="M 0 0 
L -3.5 0 
" style="stroke: #000000; stroke-width: 0.8"/>
      </defs>
      <g>
       <use xlink:href="#m636a93d8c4" x="110.031563" y="169.024805" style="stroke: #000000; stroke-width: 0.8"/>
      </g>
     </g>
     <g id="text_7">
      <!-- 0.000 -->
      <g transform="translate(74.403438 172.824024) scale(0.1 -0.1)">
       <use xlink:href="#DejaVuSans-30"/>
       <use xlink:href="#DejaVuSans-2e" transform="translate(63.623047 0)"/>
       <use xlink:href="#DejaVuSans-30" transform="translate(95.410156 0)"/>
       <use xlink:href="#DejaVuSans-30" transform="translate(159.033203 0)"/>
       <use xlink:href="#DejaVuSans-30" transform="translate(222.65625 0)"/>
      </g>
     </g>
    </g>
    <g id="ytick_2">
     <g id="line2d_7">
      <g>
       <use xlink:href="#m636a93d8c4" x="110.031563" y="147.703639" style="stroke: #000000; stroke-width: 0.8"/>
      </g>
     </g>
     <g id="text_8">
      <!-- 0.025 -->
      <g transform="translate(74.403438 151.502858) scale(0.1 -0.1)">
       <defs>
        <path id="DejaVuSans-35" d="M 691 4666 
L 3169 4666 
L 3169 4134 
L 1269 4134 
L 1269 2991 
Q 1406 3038 1543 3061 
Q 1681 3084 1819 3084 
Q 2600 3084 3056 2656 
Q 3513 2228 3513 1497 
Q 3513 744 3044 326 
Q 2575 -91 1722 -91 
Q 1428 -91 1123 -41 
Q 819 9 494 109 
L 494 744 
Q 775 591 1075 516 
Q 1375 441 1709 441 
Q 2250 441 2565 725 
Q 2881 1009 2881 1497 
Q 2881 1984 2565 2268 
Q 2250 2553 1709 2553 
Q 1456 2553 1204 2497 
Q 953 2441 691 2322 
L 691 4666 
z
" transform="scale(0.015625)"/>
       </defs>
       <use xlink:href="#DejaVuSans-30"/>
       <use xlink:href="#DejaVuSans-2e" transform="translate(63.623047 0)"/>
       <use xlink:href="#DejaVuSans-30" transform="translate(95.410156 0)"/>
       <use xlink:href="#DejaVuSans-32" transform="translate(159.033203 0)"/>
       <use xlink:href="#DejaVuSans-35" transform="translate(222.65625 0)"/>
      </g>
     </g>
    </g>
    <g id="ytick_3">
     <g id="line2d_8">
      <g>
       <use xlink:href="#m636a93d8c4" x="110.031563" y="126.382473" style="stroke: #000000; stroke-width: 0.8"/>
      </g>
     </g>
     <g id="text_9">
      <!-- 0.050 -->
      <g transform="translate(74.403438 130.181692) scale(0.1 -0.1)">
       <use xlink:href="#DejaVuSans-30"/>
       <use xlink:href="#DejaVuSans-2e" transform="translate(63.623047 0)"/>
       <use xlink:href="#DejaVuSans-30" transform="translate(95.410156 0)"/>
       <use xlink:href="#DejaVuSans-35" transform="translate(159.033203 0)"/>
       <use xlink:href="#DejaVuSans-30" transform="translate(222.65625 0)"/>
      </g>
     </g>
    </g>
    <g id="ytick_4">
     <g id="line2d_9">
      <g>
       <use xlink:href="#m636a93d8c4" x="110.031563" y="105.061307" style="stroke: #000000; stroke-width: 0.8"/>
      </g>
     </g>
     <g id="text_10">
      <!-- 0.075 -->
      <g transform="translate(74.403438 108.860526) scale(0.1 -0.1)">
       <defs>
        <path id="DejaVuSans-37" d="M 525 4666 
L 3525 4666 
L 3525 4397 
L 1831 0 
L 1172 0 
L 2766 4134 
L 525 4134 
L 525 4666 
z
" transform="scale(0.015625)"/>
       </defs>
       <use xlink:href="#DejaVuSans-30"/>
       <use xlink:href="#DejaVuSans-2e" transform="translate(63.623047 0)"/>
       <use xlink:href="#DejaVuSans-30" transform="translate(95.410156 0)"/>
       <use xlink:href="#DejaVuSans-37" transform="translate(159.033203 0)"/>
       <use xlink:href="#DejaVuSans-35" transform="translate(222.65625 0)"/>
      </g>
     </g>
    </g>
    <g id="ytick_5">
     <g id="line2d_10">
      <g>
       <use xlink:href="#m636a93d8c4" x="110.031563" y="83.740141" style="stroke: #000000; stroke-width: 0.8"/>
      </g>
     </g>
     <g id="text_11">
      <!-- 0.100 -->
      <g transform="translate(74.403438 87.539359) scale(0.1 -0.1)">
       <defs>
        <path id="DejaVuSans-31" d="M 794 531 
L 1825 531 
L 1825 4091 
L 703 3866 
L 703 4441 
L 1819 4666 
L 2450 4666 
L 2450 531 
L 3481 531 
L 3481 0 
L 794 0 
L 794 531 
z
" transform="scale(0.015625)"/>
       </defs>
       <use xlink:href="#DejaVuSans-30"/>
       <use xlink:href="#DejaVuSans-2e" transform="translate(63.623047 0)"/>
       <use xlink:href="#DejaVuSans-31" transform="translate(95.410156 0)"/>
       <use xlink:href="#DejaVuSans-30" transform="translate(159.033203 0)"/>
       <use xlink:href="#DejaVuSans-30" transform="translate(222.65625 0)"/>
      </g>
     </g>
    </g>
    <g id="ytick_6">
     <g id="line2d_11">
      <g>
       <use xlink:href="#m636a93d8c4" x="110.031563" y="62.418974" style="stroke: #000000; stroke-width: 0.8"/>
      </g>
     </g>
     <g id="text_12">
      <!-- 0.125 -->
      <g transform="translate(74.403438 66.218193) scale(0.1 -0.1)">
       <use xlink:href="#DejaVuSans-30"/>
       <use xlink:href="#DejaVuSans-2e" transform="translate(63.623047 0)"/>
       <use xlink:href="#DejaVuSans-31" transform="translate(95.410156 0)"/>
       <use xlink:href="#DejaVuSans-32" transform="translate(159.033203 0)"/>
       <use xlink:href="#DejaVuSans-35" transform="translate(222.65625 0)"/>
      </g>
     </g>
    </g>
    <g id="ytick_7">
     <g id="line2d_12">
      <g>
       <use xlink:href="#m636a93d8c4" x="110.031563" y="41.097808" style="stroke: #000000; stroke-width: 0.8"/>
      </g>
     </g>
     <g id="text_13">
      <!-- 0.150 -->
      <g transform="translate(74.403438 44.897027) scale(0.1 -0.1)">
       <use xlink:href="#DejaVuSans-30"/>
       <use xlink:href="#DejaVuSans-2e" transform="translate(63.623047 0)"/>
       <use xlink:href="#DejaVuSans-31" transform="translate(95.410156 0)"/>
       <use xlink:href="#DejaVuSans-35" transform="translate(159.033203 0)"/>
       <use xlink:href="#DejaVuSans-30" transform="translate(222.65625 0)"/>
      </g>
     </g>
    </g>
    <g id="text_14">
     <!-- NMI Score -->
     <g transform="translate(68.32375 121.739219) rotate(-90) scale(0.1 -0.1)">
      <defs>
       <path id="DejaVuSans-4e" d="M 628 4666 
L 1478 4666 
L 3547 763 
L 3547 4666 
L 4159 4666 
L 4159 0 
L 3309 0 
L 1241 3903 
L 1241 0 
L 628 0 
L 628 4666 
z
" transform="scale(0.015625)"/>
       <path id="DejaVuSans-4d" d="M 628 4666 
L 1569 4666 
L 2759 1491 
L 3956 4666 
L 4897 4666 
L 4897 0 
L 4281 0 
L 4281 4097 
L 3078 897 
L 2444 897 
L 1241 4097 
L 1241 0 
L 628 0 
L 628 4666 
z
" transform="scale(0.015625)"/>
      </defs>
      <use xlink:href="#DejaVuSans-4e"/>
      <use xlink:href="#DejaVuSans-4d" transform="translate(74.804688 0)"/>
      <use xlink:href="#DejaVuSans-49" transform="translate(161.083984 0)"/>
      <use xlink:href="#DejaVuSans-20" transform="translate(190.576172 0)"/>
      <use xlink:href="#DejaVuSans-53" transform="translate(222.363281 0)"/>
      <use xlink:href="#DejaVuSans-63" transform="translate(285.839844 0)"/>
      <use xlink:href="#DejaVuSans-6f" transform="translate(340.820312 0)"/>
      <use xlink:href="#DejaVuSans-72" transform="translate(402.001953 0)"/>
      <use xlink:href="#DejaVuSans-65" transform="translate(440.865234 0)"/>
     </g>
    </g>
   </g>
   <g id="line2d_13"/>
   <g id="line2d_14"/>
   <g id="line2d_15"/>
   <g id="line2d_16"/>
   <g id="line2d_17"/>
   <g id="line2d_18"/>
   <g id="line2d_19"/>
   <g id="line2d_20"/>
   <g id="line2d_21"/>
   <g id="patch_3">
    <path d="M 110.031563 170.918125 
L 110.031563 22.318125 
" style="fill: none; stroke: #000000; stroke-width: 0.8; stroke-linejoin: miter; stroke-linecap: square"/>
   </g>
   <g id="patch_4">
    <path d="M 267.291562 170.918125 
L 267.291562 22.318125 
" style="fill: none; stroke: #000000; stroke-width: 0.8; stroke-linejoin: miter; stroke-linecap: square"/>
   </g>
   <g id="patch_5">
    <path d="M 110.031563 170.918125 
L 267.291562 170.918125 
" style="fill: none; stroke: #000000; stroke-width: 0.8; stroke-linejoin: miter; stroke-linecap: square"/>
   </g>
   <g id="patch_6">
    <path d="M 110.031563 22.318125 
L 267.291562 22.318125 
" style="fill: none; stroke: #000000; stroke-width: 0.8; stroke-linejoin: miter; stroke-linecap: square"/>
   </g>
   <g id="text_15">
    <!-- Correlation between ARI and NMI Scores across Embeddings -->
    <g transform="translate(7.2 16.318125) scale(0.12 -0.12)">
     <defs>
      <path id="DejaVuSans-43" d="M 4122 4306 
L 4122 3641 
Q 3803 3938 3442 4084 
Q 3081 4231 2675 4231 
Q 1875 4231 1450 3742 
Q 1025 3253 1025 2328 
Q 1025 1406 1450 917 
Q 1875 428 2675 428 
Q 3081 428 3442 575 
Q 3803 722 4122 1019 
L 4122 359 
Q 3791 134 3420 21 
Q 3050 -91 2638 -91 
Q 1578 -91 968 557 
Q 359 1206 359 2328 
Q 359 3453 968 4101 
Q 1578 4750 2638 4750 
Q 3056 4750 3426 4639 
Q 3797 4528 4122 4306 
z
" transform="scale(0.015625)"/>
      <path id="DejaVuSans-6c" d="M 603 4863 
L 1178 4863 
L 1178 0 
L 603 0 
L 603 4863 
z
" transform="scale(0.015625)"/>
      <path id="DejaVuSans-61" d="M 2194 1759 
Q 1497 1759 1228 1600 
Q 959 1441 959 1056 
Q 959 750 1161 570 
Q 1363 391 1709 391 
Q 2188 391 2477 730 
Q 2766 1069 2766 1631 
L 2766 1759 
L 2194 1759 
z
M 3341 1997 
L 3341 0 
L 2766 0 
L 2766 531 
Q 2569 213 2275 61 
Q 1981 -91 1556 -91 
Q 1019 -91 701 211 
Q 384 513 384 1019 
Q 384 1609 779 1909 
Q 1175 2209 1959 2209 
L 2766 2209 
L 2766 2266 
Q 2766 2663 2505 2880 
Q 2244 3097 1772 3097 
Q 1472 3097 1187 3025 
Q 903 2953 641 2809 
L 641 3341 
Q 956 3463 1253 3523 
Q 1550 3584 1831 3584 
Q 2591 3584 2966 3190 
Q 3341 2797 3341 1997 
z
" transform="scale(0.015625)"/>
      <path id="DejaVuSans-74" d="M 1172 4494 
L 1172 3500 
L 2356 3500 
L 2356 3053 
L 1172 3053 
L 1172 1153 
Q 1172 725 1289 603 
Q 1406 481 1766 481 
L 2356 481 
L 2356 0 
L 1766 0 
Q 1100 0 847 248 
Q 594 497 594 1153 
L 594 3053 
L 172 3053 
L 172 3500 
L 594 3500 
L 594 4494 
L 1172 4494 
z
" transform="scale(0.015625)"/>
      <path id="DejaVuSans-69" d="M 603 3500 
L 1178 3500 
L 1178 0 
L 603 0 
L 603 3500 
z
M 603 4863 
L 1178 4863 
L 1178 4134 
L 603 4134 
L 603 4863 
z
" transform="scale(0.015625)"/>
      <path id="DejaVuSans-6e" d="M 3513 2113 
L 3513 0 
L 2938 0 
L 2938 2094 
Q 2938 2591 2744 2837 
Q 2550 3084 2163 3084 
Q 1697 3084 1428 2787 
Q 1159 2491 1159 1978 
L 1159 0 
L 581 0 
L 581 3500 
L 1159 3500 
L 1159 2956 
Q 1366 3272 1645 3428 
Q 1925 3584 2291 3584 
Q 2894 3584 3203 3211 
Q 3513 2838 3513 2113 
z
" transform="scale(0.015625)"/>
      <path id="DejaVuSans-62" d="M 3116 1747 
Q 3116 2381 2855 2742 
Q 2594 3103 2138 3103 
Q 1681 3103 1420 2742 
Q 1159 2381 1159 1747 
Q 1159 1113 1420 752 
Q 1681 391 2138 391 
Q 2594 391 2855 752 
Q 3116 1113 3116 1747 
z
M 1159 2969 
Q 1341 3281 1617 3432 
Q 1894 3584 2278 3584 
Q 2916 3584 3314 3078 
Q 3713 2572 3713 1747 
Q 3713 922 3314 415 
Q 2916 -91 2278 -91 
Q 1894 -91 1617 61 
Q 1341 213 1159 525 
L 1159 0 
L 581 0 
L 581 4863 
L 1159 4863 
L 1159 2969 
z
" transform="scale(0.015625)"/>
      <path id="DejaVuSans-77" d="M 269 3500 
L 844 3500 
L 1563 769 
L 2278 3500 
L 2956 3500 
L 3675 769 
L 4391 3500 
L 4966 3500 
L 4050 0 
L 3372 0 
L 2619 2869 
L 1863 0 
L 1184 0 
L 269 3500 
z
" transform="scale(0.015625)"/>
      <path id="DejaVuSans-64" d="M 2906 2969 
L 2906 4863 
L 3481 4863 
L 3481 0 
L 2906 0 
L 2906 525 
Q 2725 213 2448 61 
Q 2172 -91 1784 -91 
Q 1150 -91 751 415 
Q 353 922 353 1747 
Q 353 2572 751 3078 
Q 1150 3584 1784 3584 
Q 2172 3584 2448 3432 
Q 2725 3281 2906 2969 
z
M 947 1747 
Q 947 1113 1208 752 
Q 1469 391 1925 391 
Q 2381 391 2643 752 
Q 2906 1113 2906 1747 
Q 2906 2381 2643 2742 
Q 2381 3103 1925 3103 
Q 1469 3103 1208 2742 
Q 947 2381 947 1747 
z
" transform="scale(0.015625)"/>
      <path id="DejaVuSans-73" d="M 2834 3397 
L 2834 2853 
Q 2591 2978 2328 3040 
Q 2066 3103 1784 3103 
Q 1356 3103 1142 2972 
Q 928 2841 928 2578 
Q 928 2378 1081 2264 
Q 1234 2150 1697 2047 
L 1894 2003 
Q 2506 1872 2764 1633 
Q 3022 1394 3022 966 
Q 3022 478 2636 193 
Q 2250 -91 1575 -91 
Q 1294 -91 989 -36 
Q 684 19 347 128 
L 347 722 
Q 666 556 975 473 
Q 1284 391 1588 391 
Q 1994 391 2212 530 
Q 2431 669 2431 922 
Q 2431 1156 2273 1281 
Q 2116 1406 1581 1522 
L 1381 1569 
Q 847 1681 609 1914 
Q 372 2147 372 2553 
Q 372 3047 722 3315 
Q 1072 3584 1716 3584 
Q 2034 3584 2315 3537 
Q 2597 3491 2834 3397 
z
" transform="scale(0.015625)"/>
      <path id="DejaVuSans-45" d="M 628 4666 
L 3578 4666 
L 3578 4134 
L 1259 4134 
L 1259 2753 
L 3481 2753 
L 3481 2222 
L 1259 2222 
L 1259 531 
L 3634 531 
L 3634 0 
L 628 0 
L 628 4666 
z
" transform="scale(0.015625)"/>
      <path id="DejaVuSans-6d" d="M 3328 2828 
Q 3544 3216 3844 3400 
Q 4144 3584 4550 3584 
Q 5097 3584 5394 3201 
Q 5691 2819 5691 2113 
L 5691 0 
L 5113 0 
L 5113 2094 
Q 5113 2597 4934 2840 
Q 4756 3084 4391 3084 
Q 3944 3084 3684 2787 
Q 3425 2491 3425 1978 
L 3425 0 
L 2847 0 
L 2847 2094 
Q 2847 2600 2669 2842 
Q 2491 3084 2119 3084 
Q 1678 3084 1418 2786 
Q 1159 2488 1159 1978 
L 1159 0 
L 581 0 
L 581 3500 
L 1159 3500 
L 1159 2956 
Q 1356 3278 1631 3431 
Q 1906 3584 2284 3584 
Q 2666 3584 2933 3390 
Q 3200 3197 3328 2828 
z
" transform="scale(0.015625)"/>
      <path id="DejaVuSans-67" d="M 2906 1791 
Q 2906 2416 2648 2759 
Q 2391 3103 1925 3103 
Q 1463 3103 1205 2759 
Q 947 2416 947 1791 
Q 947 1169 1205 825 
Q 1463 481 1925 481 
Q 2391 481 2648 825 
Q 2906 1169 2906 1791 
z
M 3481 434 
Q 3481 -459 3084 -895 
Q 2688 -1331 1869 -1331 
Q 1566 -1331 1297 -1286 
Q 1028 -1241 775 -1147 
L 775 -588 
Q 1028 -725 1275 -790 
Q 1522 -856 1778 -856 
Q 2344 -856 2625 -561 
Q 2906 -266 2906 331 
L 2906 616 
Q 2728 306 2450 153 
Q 2172 0 1784 0 
Q 1141 0 747 490 
Q 353 981 353 1791 
Q 353 2603 747 3093 
Q 1141 3584 1784 3584 
Q 2172 3584 2450 3431 
Q 2728 3278 2906 2969 
L 2906 3500 
L 3481 3500 
L 3481 434 
z
" transform="scale(0.015625)"/>
     </defs>
     <use xlink:href="#DejaVuSans-43"/>
     <use xlink:href="#DejaVuSans-6f" transform="translate(69.824219 0)"/>
     <use xlink:href="#DejaVuSans-72" transform="translate(131.005859 0)"/>
     <use xlink:href="#DejaVuSans-72" transform="translate(170.369141 0)"/>
     <use xlink:href="#DejaVuSans-65" transform="translate(209.232422 0)"/>
     <use xlink:href="#DejaVuSans-6c" transform="translate(270.755859 0)"/>
     <use xlink:href="#DejaVuSans-61" transform="translate(298.539062 0)"/>
     <use xlink:href="#DejaVuSans-74" transform="translate(359.818359 0)"/>
     <use xlink:href="#DejaVuSans-69" transform="translate(399.027344 0)"/>
     <use xlink:href="#DejaVuSans-6f" transform="translate(426.810547 0)"/>
     <use xlink:href="#DejaVuSans-6e" transform="translate(487.992188 0)"/>
     <use xlink:href="#DejaVuSans-20" transform="translate(551.371094 0)"/>
     <use xlink:href="#DejaVuSans-62" transform="translate(583.158203 0)"/>
     <use xlink:href="#DejaVuSans-65" transform="translate(646.634766 0)"/>
     <use xlink:href="#DejaVuSans-74" transform="translate(708.158203 0)"/>
     <use xlink:href="#DejaVuSans-77" transform="translate(747.367188 0)"/>
     <use xlink:href="#DejaVuSans-65" transform="translate(829.154297 0)"/>
     <use xlink:href="#DejaVuSans-65" transform="translate(890.677734 0)"/>
     <use xlink:href="#DejaVuSans-6e" transform="translate(952.201172 0)"/>
     <use xlink:href="#DejaVuSans-20" transform="translate(1015.580078 0)"/>
     <use xlink:href="#DejaVuSans-41" transform="translate(1047.367188 0)"/>
     <use xlink:href="#DejaVuSans-52" transform="translate(1115.775391 0)"/>
     <use xlink:href="#DejaVuSans-49" transform="translate(1185.257812 0)"/>
     <use xlink:href="#DejaVuSans-20" transform="translate(1214.75 0)"/>
     <use xlink:href="#DejaVuSans-61" transform="translate(1246.537109 0)"/>
     <use xlink:href="#DejaVuSans-6e" transform="translate(1307.816406 0)"/>
     <use xlink:href="#DejaVuSans-64" transform="translate(1371.195312 0)"/>
     <use xlink:href="#DejaVuSans-20" transform="translate(1434.671875 0)"/>
     <use xlink:href="#DejaVuSans-4e" transform="translate(1466.458984 0)"/>
     <use xlink:href="#DejaVuSans-4d" transform="translate(1541.263672 0)"/>
     <use xlink:href="#DejaVuSans-49" transform="translate(1627.542969 0)"/>
     <use xlink:href="#DejaVuSans-20" transform="translate(1657.035156 0)"/>
     <use xlink:href="#DejaVuSans-53" transform="translate(1688.822266 0)"/>
     <use xlink:href="#DejaVuSans-63" transform="translate(1752.298828 0)"/>
     <use xlink:href="#DejaVuSans-6f" transform="translate(1807.279297 0)"/>
     <use xlink:href="#DejaVuSans-72" transform="translate(1868.460938 0)"/>
     <use xlink:href="#DejaVuSans-65" transform="translate(1907.324219 0)"/>
     <use xlink:href="#DejaVuSans-73" transform="translate(1968.847656 0)"/>
     <use xlink:href="#DejaVuSans-20" transform="translate(2020.947266 0)"/>
     <use xlink:href="#DejaVuSans-61" transform="translate(2052.734375 0)"/>
     <use xlink:href="#DejaVuSans-63" transform="translate(2114.013672 0)"/>
     <use xlink:href="#DejaVuSans-72" transform="translate(2168.994141 0)"/>
     <use xlink:href="#DejaVuSans-6f" transform="translate(2207.857422 0)"/>
     <use xlink:href="#DejaVuSans-73" transform="translate(2269.039062 0)"/>
     <use xlink:href="#DejaVuSans-73" transform="translate(2321.138672 0)"/>
     <use xlink:href="#DejaVuSans-20" transform="translate(2373.238281 0)"/>
     <use xlink:href="#DejaVuSans-45" transform="translate(2405.025391 0)"/>
     <use xlink:href="#DejaVuSans-6d" transform="translate(2468.208984 0)"/>
     <use xlink:href="#DejaVuSans-62" transform="translate(2565.621094 0)"/>
     <use xlink:href="#DejaVuSans-65" transform="translate(2629.097656 0)"/>
     <use xlink:href="#DejaVuSans-64" transform="translate(2690.621094 0)"/>
     <use xlink:href="#DejaVuSans-64" transform="translate(2754.097656 0)"/>
     <use xlink:href="#DejaVuSans-69" transform="translate(2817.574219 0)"/>
     <use xlink:href="#DejaVuSans-6e" transform="translate(2845.357422 0)"/>
     <use xlink:href="#DejaVuSans-67" transform="translate(2908.736328 0)"/>
     <use xlink:href="#DejaVuSans-73" transform="translate(2972.212891 0)"/>
    </g>
   </g>
   <g id="legend_1">
    <g id="patch_7">
     <path d="M 282.154562 178.49 
L 459.687375 178.49 
Q 461.687375 178.49 461.687375 176.49 
L 461.687375 29.318125 
Q 461.687375 27.318125 459.687375 27.318125 
L 282.154562 27.318125 
Q 280.154562 27.318125 280.154562 29.318125 
L 280.154562 176.49 
Q 280.154562 178.49 282.154562 178.49 
z
" style="fill: #ffffff; opacity: 0.8; stroke: #cccccc; stroke-linejoin: miter"/>
    </g>
    <g id="text_16">
     <!-- Embedding and Clustering Method -->
     <g transform="translate(284.154562 38.916562) scale(0.1 -0.1)">
      <defs>
       <path id="DejaVuSans-75" d="M 544 1381 
L 544 3500 
L 1119 3500 
L 1119 1403 
Q 1119 906 1312 657 
Q 1506 409 1894 409 
Q 2359 409 2629 706 
Q 2900 1003 2900 1516 
L 2900 3500 
L 3475 3500 
L 3475 0 
L 2900 0 
L 2900 538 
Q 2691 219 2414 64 
Q 2138 -91 1772 -91 
Q 1169 -91 856 284 
Q 544 659 544 1381 
z
M 1991 3584 
L 1991 3584 
z
" transform="scale(0.015625)"/>
       <path id="DejaVuSans-68" d="M 3513 2113 
L 3513 0 
L 2938 0 
L 2938 2094 
Q 2938 2591 2744 2837 
Q 2550 3084 2163 3084 
Q 1697 3084 1428 2787 
Q 1159 2491 1159 1978 
L 1159 0 
L 581 0 
L 581 4863 
L 1159 4863 
L 1159 2956 
Q 1366 3272 1645 3428 
Q 1925 3584 2291 3584 
Q 2894 3584 3203 3211 
Q 3513 2838 3513 2113 
z
" transform="scale(0.015625)"/>
      </defs>
      <use xlink:href="#DejaVuSans-45"/>
      <use xlink:href="#DejaVuSans-6d" transform="translate(63.183594 0)"/>
      <use xlink:href="#DejaVuSans-62" transform="translate(160.595703 0)"/>
      <use xlink:href="#DejaVuSans-65" transform="translate(224.072266 0)"/>
      <use xlink:href="#DejaVuSans-64" transform="translate(285.595703 0)"/>
      <use xlink:href="#DejaVuSans-64" transform="translate(349.072266 0)"/>
      <use xlink:href="#DejaVuSans-69" transform="translate(412.548828 0)"/>
      <use xlink:href="#DejaVuSans-6e" transform="translate(440.332031 0)"/>
      <use xlink:href="#DejaVuSans-67" transform="translate(503.710938 0)"/>
      <use xlink:href="#DejaVuSans-20" transform="translate(567.1875 0)"/>
      <use xlink:href="#DejaVuSans-61" transform="translate(598.974609 0)"/>
      <use xlink:href="#DejaVuSans-6e" transform="translate(660.253906 0)"/>
      <use xlink:href="#DejaVuSans-64" transform="translate(723.632812 0)"/>
      <use xlink:href="#DejaVuSans-20" transform="translate(787.109375 0)"/>
      <use xlink:href="#DejaVuSans-43" transform="translate(818.896484 0)"/>
      <use xlink:href="#DejaVuSans-6c" transform="translate(888.720703 0)"/>
      <use xlink:href="#DejaVuSans-75" transform="translate(916.503906 0)"/>
      <use xlink:href="#DejaVuSans-73" transform="translate(979.882812 0)"/>
      <use xlink:href="#DejaVuSans-74" transform="translate(1031.982422 0)"/>
      <use xlink:href="#DejaVuSans-65" transform="translate(1071.191406 0)"/>
      <use xlink:href="#DejaVuSans-72" transform="translate(1132.714844 0)"/>
      <use xlink:href="#DejaVuSans-69" transform="translate(1173.828125 0)"/>
      <use xlink:href="#DejaVuSans-6e" transform="translate(1201.611328 0)"/>
      <use xlink:href="#DejaVuSans-67" transform="translate(1264.990234 0)"/>
      <use xlink:href="#DejaVuSans-20" transform="translate(1328.466797 0)"/>
      <use xlink:href="#DejaVuSans-4d" transform="translate(1360.253906 0)"/>
      <use xlink:href="#DejaVuSans-65" transform="translate(1446.533203 0)"/>
      <use xlink:href="#DejaVuSans-74" transform="translate(1508.056641 0)"/>
      <use xlink:href="#DejaVuSans-68" transform="translate(1547.265625 0)"/>
      <use xlink:href="#DejaVuSans-6f" transform="translate(1610.644531 0)"/>
      <use xlink:href="#DejaVuSans-64" transform="translate(1671.826172 0)"/>
     </g>
    </g>
    <g id="line2d_22"/>
    <g id="text_17">
     <!-- embedding -->
     <g transform="translate(350.793625 53.594687) scale(0.1 -0.1)">
      <use xlink:href="#DejaVuSans-65"/>
      <use xlink:href="#DejaVuSans-6d" transform="translate(61.523438 0)"/>
      <use xlink:href="#DejaVuSans-62" transform="translate(158.935547 0)"/>
      <use xlink:href="#DejaVuSans-65" transform="translate(222.412109 0)"/>
      <use xlink:href="#DejaVuSans-64" transform="translate(283.935547 0)"/>
      <use xlink:href="#DejaVuSans-64" transform="translate(347.412109 0)"/>
      <use xlink:href="#DejaVuSans-69" transform="translate(410.888672 0)"/>
      <use xlink:href="#DejaVuSans-6e" transform="translate(438.671875 0)"/>
      <use xlink:href="#DejaVuSans-67" transform="translate(502.050781 0)"/>
     </g>
    </g>
    <g id="line2d_23">
     <defs>
      <path id="mc63c1cacfa" d="M 0 5 
C 1.326016 5 2.597899 4.473168 3.535534 3.535534 
C 4.473168 2.597899 5 1.326016 5 0 
C 5 -1.326016 4.473168 -2.597899 3.535534 -3.535534 
C 2.597899 -4.473168 1.326016 -5 0 -5 
C -1.326016 -5 -2.597899 -4.473168 -3.535534 -3.535534 
C -4.473168 -2.597899 -5 -1.326016 -5 0 
C -5 1.326016 -4.473168 2.597899 -3.535534 3.535534 
C -2.597899 4.473168 -1.326016 5 0 5 
z
" style="stroke: #ffffff; stroke-width: 0.8"/>
     </defs>
     <g>
      <use xlink:href="#mc63c1cacfa" x="332.793625" y="64.772812" style="fill: #1f77b4; stroke: #ffffff; stroke-width: 0.8"/>
     </g>
    </g>
    <g id="text_18">
     <!-- bag_of_words -->
     <g transform="translate(350.793625 68.272812) scale(0.1 -0.1)">
      <defs>
       <path id="DejaVuSans-5f" d="M 3263 -1063 
L 3263 -1509 
L -63 -1509 
L -63 -1063 
L 3263 -1063 
z
" transform="scale(0.015625)"/>
       <path id="DejaVuSans-66" d="M 2375 4863 
L 2375 4384 
L 1825 4384 
Q 1516 4384 1395 4259 
Q 1275 4134 1275 3809 
L 1275 3500 
L 2222 3500 
L 2222 3053 
L 1275 3053 
L 1275 0 
L 697 0 
L 697 3053 
L 147 3053 
L 147 3500 
L 697 3500 
L 697 3744 
Q 697 4328 969 4595 
Q 1241 4863 1831 4863 
L 2375 4863 
z
" transform="scale(0.015625)"/>
      </defs>
      <use xlink:href="#DejaVuSans-62"/>
      <use xlink:href="#DejaVuSans-61" transform="translate(63.476562 0)"/>
      <use xlink:href="#DejaVuSans-67" transform="translate(124.755859 0)"/>
      <use xlink:href="#DejaVuSans-5f" transform="translate(188.232422 0)"/>
      <use xlink:href="#DejaVuSans-6f" transform="translate(238.232422 0)"/>
      <use xlink:href="#DejaVuSans-66" transform="translate(299.414062 0)"/>
      <use xlink:href="#DejaVuSans-5f" transform="translate(334.619141 0)"/>
      <use xlink:href="#DejaVuSans-77" transform="translate(384.619141 0)"/>
      <use xlink:href="#DejaVuSans-6f" transform="translate(466.40625 0)"/>
      <use xlink:href="#DejaVuSans-72" transform="translate(527.587891 0)"/>
      <use xlink:href="#DejaVuSans-64" transform="translate(566.951172 0)"/>
      <use xlink:href="#DejaVuSans-73" transform="translate(630.427734 0)"/>
     </g>
    </g>
    <g id="line2d_24">
     <defs>
      <path id="m6caacabbae" d="M 0 5 
C 1.326016 5 2.597899 4.473168 3.535534 3.535534 
C 4.473168 2.597899 5 1.326016 5 0 
C 5 -1.326016 4.473168 -2.597899 3.535534 -3.535534 
C 2.597899 -4.473168 1.326016 -5 0 -5 
C -1.326016 -5 -2.597899 -4.473168 -3.535534 -3.535534 
C -4.473168 -2.597899 -5 -1.326016 -5 0 
C -5 1.326016 -4.473168 2.597899 -3.535534 3.535534 
C -2.597899 4.473168 -1.326016 5 0 5 
z
" style="stroke: #ffffff; stroke-width: 0.8"/>
     </defs>
     <g>
      <use xlink:href="#m6caacabbae" x="332.793625" y="79.729062" style="fill: #ff7f0e; stroke: #ffffff; stroke-width: 0.8"/>
     </g>
    </g>
    <g id="text_19">
     <!-- esm2_150M -->
     <g transform="translate(350.793625 83.229062) scale(0.1 -0.1)">
      <use xlink:href="#DejaVuSans-65"/>
      <use xlink:href="#DejaVuSans-73" transform="translate(61.523438 0)"/>
      <use xlink:href="#DejaVuSans-6d" transform="translate(113.623047 0)"/>
      <use xlink:href="#DejaVuSans-32" transform="translate(211.035156 0)"/>
      <use xlink:href="#DejaVuSans-5f" transform="translate(274.658203 0)"/>
      <use xlink:href="#DejaVuSans-31" transform="translate(324.658203 0)"/>
      <use xlink:href="#DejaVuSans-35" transform="translate(388.28125 0)"/>
      <use xlink:href="#DejaVuSans-30" transform="translate(451.904297 0)"/>
      <use xlink:href="#DejaVuSans-4d" transform="translate(515.527344 0)"/>
     </g>
    </g>
    <g id="line2d_25">
     <defs>
      <path id="mdbe0353dd5" d="M 0 5 
C 1.326016 5 2.597899 4.473168 3.535534 3.535534 
C 4.473168 2.597899 5 1.326016 5 0 
C 5 -1.326016 4.473168 -2.597899 3.535534 -3.535534 
C 2.597899 -4.473168 1.326016 -5 0 -5 
C -1.326016 -5 -2.597899 -4.473168 -3.535534 -3.535534 
C -4.473168 -2.597899 -5 -1.326016 -5 0 
C -5 1.326016 -4.473168 2.597899 -3.535534 3.535534 
C -2.597899 4.473168 -1.326016 5 0 5 
z
" style="stroke: #ffffff; stroke-width: 0.8"/>
     </defs>
     <g>
      <use xlink:href="#mdbe0353dd5" x="332.793625" y="94.685312" style="fill: #2ca02c; stroke: #ffffff; stroke-width: 0.8"/>
     </g>
    </g>
    <g id="text_20">
     <!-- esm2_35M -->
     <g transform="translate(350.793625 98.185312) scale(0.1 -0.1)">
      <defs>
       <path id="DejaVuSans-33" d="M 2597 2516 
Q 3050 2419 3304 2112 
Q 3559 1806 3559 1356 
Q 3559 666 3084 287 
Q 2609 -91 1734 -91 
Q 1441 -91 1130 -33 
Q 819 25 488 141 
L 488 750 
Q 750 597 1062 519 
Q 1375 441 1716 441 
Q 2309 441 2620 675 
Q 2931 909 2931 1356 
Q 2931 1769 2642 2001 
Q 2353 2234 1838 2234 
L 1294 2234 
L 1294 2753 
L 1863 2753 
Q 2328 2753 2575 2939 
Q 2822 3125 2822 3475 
Q 2822 3834 2567 4026 
Q 2313 4219 1838 4219 
Q 1578 4219 1281 4162 
Q 984 4106 628 3988 
L 628 4550 
Q 988 4650 1302 4700 
Q 1616 4750 1894 4750 
Q 2613 4750 3031 4423 
Q 3450 4097 3450 3541 
Q 3450 3153 3228 2886 
Q 3006 2619 2597 2516 
z
" transform="scale(0.015625)"/>
      </defs>
      <use xlink:href="#DejaVuSans-65"/>
      <use xlink:href="#DejaVuSans-73" transform="translate(61.523438 0)"/>
      <use xlink:href="#DejaVuSans-6d" transform="translate(113.623047 0)"/>
      <use xlink:href="#DejaVuSans-32" transform="translate(211.035156 0)"/>
      <use xlink:href="#DejaVuSans-5f" transform="translate(274.658203 0)"/>
      <use xlink:href="#DejaVuSans-33" transform="translate(324.658203 0)"/>
      <use xlink:href="#DejaVuSans-35" transform="translate(388.28125 0)"/>
      <use xlink:href="#DejaVuSans-4d" transform="translate(451.904297 0)"/>
     </g>
    </g>
    <g id="line2d_26">
     <defs>
      <path id="m81164191b5" d="M 0 5 
C 1.326016 5 2.597899 4.473168 3.535534 3.535534 
C 4.473168 2.597899 5 1.326016 5 0 
C 5 -1.326016 4.473168 -2.597899 3.535534 -3.535534 
C 2.597899 -4.473168 1.326016 -5 0 -5 
C -1.326016 -5 -2.597899 -4.473168 -3.535534 -3.535534 
C -4.473168 -2.597899 -5 -1.326016 -5 0 
C -5 1.326016 -4.473168 2.597899 -3.535534 3.535534 
C -2.597899 4.473168 -1.326016 5 0 5 
z
" style="stroke: #ffffff; stroke-width: 0.8"/>
     </defs>
     <g>
      <use xlink:href="#m81164191b5" x="332.793625" y="109.641562" style="fill: #d62728; stroke: #ffffff; stroke-width: 0.8"/>
     </g>
    </g>
    <g id="text_21">
     <!-- esm2_8M -->
     <g transform="translate(350.793625 113.141562) scale(0.1 -0.1)">
      <use xlink:href="#DejaVuSans-65"/>
      <use xlink:href="#DejaVuSans-73" transform="translate(61.523438 0)"/>
      <use xlink:href="#DejaVuSans-6d" transform="translate(113.623047 0)"/>
      <use xlink:href="#DejaVuSans-32" transform="translate(211.035156 0)"/>
      <use xlink:href="#DejaVuSans-5f" transform="translate(274.658203 0)"/>
      <use xlink:href="#DejaVuSans-38" transform="translate(324.658203 0)"/>
      <use xlink:href="#DejaVuSans-4d" transform="translate(388.28125 0)"/>
     </g>
    </g>
    <g id="line2d_27">
     <defs>
      <path id="ma315bdb091" d="M 0 5 
C 1.326016 5 2.597899 4.473168 3.535534 3.535534 
C 4.473168 2.597899 5 1.326016 5 0 
C 5 -1.326016 4.473168 -2.597899 3.535534 -3.535534 
C 2.597899 -4.473168 1.326016 -5 0 -5 
C -1.326016 -5 -2.597899 -4.473168 -3.535534 -3.535534 
C -4.473168 -2.597899 -5 -1.326016 -5 0 
C -5 1.326016 -4.473168 2.597899 -3.535534 3.535534 
C -2.597899 4.473168 -1.326016 5 0 5 
z
" style="stroke: #ffffff; stroke-width: 0.8"/>
     </defs>
     <g>
      <use xlink:href="#ma315bdb091" x="332.793625" y="124.597812" style="fill: #9467bd; stroke: #ffffff; stroke-width: 0.8"/>
     </g>
    </g>
    <g id="text_22">
     <!-- prot_bert -->
     <g transform="translate(350.793625 128.097812) scale(0.1 -0.1)">
      <defs>
       <path id="DejaVuSans-70" d="M 1159 525 
L 1159 -1331 
L 581 -1331 
L 581 3500 
L 1159 3500 
L 1159 2969 
Q 1341 3281 1617 3432 
Q 1894 3584 2278 3584 
Q 2916 3584 3314 3078 
Q 3713 2572 3713 1747 
Q 3713 922 3314 415 
Q 2916 -91 2278 -91 
Q 1894 -91 1617 61 
Q 1341 213 1159 525 
z
M 3116 1747 
Q 3116 2381 2855 2742 
Q 2594 3103 2138 3103 
Q 1681 3103 1420 2742 
Q 1159 2381 1159 1747 
Q 1159 1113 1420 752 
Q 1681 391 2138 391 
Q 2594 391 2855 752 
Q 3116 1113 3116 1747 
z
" transform="scale(0.015625)"/>
      </defs>
      <use xlink:href="#DejaVuSans-70"/>
      <use xlink:href="#DejaVuSans-72" transform="translate(63.476562 0)"/>
      <use xlink:href="#DejaVuSans-6f" transform="translate(102.339844 0)"/>
      <use xlink:href="#DejaVuSans-74" transform="translate(163.521484 0)"/>
      <use xlink:href="#DejaVuSans-5f" transform="translate(202.730469 0)"/>
      <use xlink:href="#DejaVuSans-62" transform="translate(252.730469 0)"/>
      <use xlink:href="#DejaVuSans-65" transform="translate(316.207031 0)"/>
      <use xlink:href="#DejaVuSans-72" transform="translate(377.730469 0)"/>
      <use xlink:href="#DejaVuSans-74" transform="translate(418.84375 0)"/>
     </g>
    </g>
    <g id="line2d_28"/>
    <g id="text_23">
     <!-- clustering -->
     <g transform="translate(350.793625 143.054062) scale(0.1 -0.1)">
      <use xlink:href="#DejaVuSans-63"/>
      <use xlink:href="#DejaVuSans-6c" transform="translate(54.980469 0)"/>
      <use xlink:href="#DejaVuSans-75" transform="translate(82.763672 0)"/>
      <use xlink:href="#DejaVuSans-73" transform="translate(146.142578 0)"/>
      <use xlink:href="#DejaVuSans-74" transform="translate(198.242188 0)"/>
      <use xlink:href="#DejaVuSans-65" transform="translate(237.451172 0)"/>
      <use xlink:href="#DejaVuSans-72" transform="translate(298.974609 0)"/>
      <use xlink:href="#DejaVuSans-69" transform="translate(340.087891 0)"/>
      <use xlink:href="#DejaVuSans-6e" transform="translate(367.871094 0)"/>
      <use xlink:href="#DejaVuSans-67" transform="translate(431.25 0)"/>
     </g>
    </g>
    <g id="line2d_29">
     <defs>
      <path id="m08a27cadb9" d="M 0 5 
C 1.326016 5 2.597899 4.473168 3.535534 3.535534 
C 4.473168 2.597899 5 1.326016 5 0 
C 5 -1.326016 4.473168 -2.597899 3.535534 -3.535534 
C 2.597899 -4.473168 1.326016 -5 0 -5 
C -1.326016 -5 -2.597899 -4.473168 -3.535534 -3.535534 
C -4.473168 -2.597899 -5 -1.326016 -5 0 
C -5 1.326016 -4.473168 2.597899 -3.535534 3.535534 
C -2.597899 4.473168 -1.326016 5 0 5 
z
" style="stroke: #ffffff; stroke-width: 0.8"/>
     </defs>
     <g>
      <use xlink:href="#m08a27cadb9" x="332.793625" y="154.232187" style="fill: #333333; stroke: #ffffff; stroke-width: 0.8"/>
     </g>
    </g>
    <g id="text_24">
     <!-- kmeans -->
     <g transform="translate(350.793625 157.732187) scale(0.1 -0.1)">
      <defs>
       <path id="DejaVuSans-6b" d="M 581 4863 
L 1159 4863 
L 1159 1991 
L 2875 3500 
L 3609 3500 
L 1753 1863 
L 3688 0 
L 2938 0 
L 1159 1709 
L 1159 0 
L 581 0 
L 581 4863 
z
" transform="scale(0.015625)"/>
      </defs>
      <use xlink:href="#DejaVuSans-6b"/>
      <use xlink:href="#DejaVuSans-6d" transform="translate(57.910156 0)"/>
      <use xlink:href="#DejaVuSans-65" transform="translate(155.322266 0)"/>
      <use xlink:href="#DejaVuSans-61" transform="translate(216.845703 0)"/>
      <use xlink:href="#DejaVuSans-6e" transform="translate(278.125 0)"/>
      <use xlink:href="#DejaVuSans-73" transform="translate(341.503906 0)"/>
     </g>
    </g>
    <g id="line2d_30">
     <defs>
      <path id="m15c5eace12" d="M -2.5 5 
L 0 2.5 
L 2.5 5 
L 5 2.5 
L 2.5 0 
L 5 -2.5 
L 2.5 -5 
L 0 -2.5 
L -2.5 -5 
L -5 -2.5 
L -2.5 0 
L -5 2.5 
z
" style="stroke: #ffffff; stroke-width: 0.8; stroke-linejoin: miter"/>
     </defs>
     <g>
      <use xlink:href="#m15c5eace12" x="332.793625" y="168.910312" style="fill: #333333; stroke: #ffffff; stroke-width: 0.8; stroke-linejoin: miter"/>
     </g>
    </g>
    <g id="text_25">
     <!-- spectral -->
     <g transform="translate(350.793625 172.410312) scale(0.1 -0.1)">
      <use xlink:href="#DejaVuSans-73"/>
      <use xlink:href="#DejaVuSans-70" transform="translate(52.099609 0)"/>
      <use xlink:href="#DejaVuSans-65" transform="translate(115.576172 0)"/>
      <use xlink:href="#DejaVuSans-63" transform="translate(177.099609 0)"/>
      <use xlink:href="#DejaVuSans-74" transform="translate(232.080078 0)"/>
      <use xlink:href="#DejaVuSans-72" transform="translate(271.289062 0)"/>
      <use xlink:href="#DejaVuSans-61" transform="translate(312.402344 0)"/>
      <use xlink:href="#DejaVuSans-6c" transform="translate(373.681641 0)"/>
     </g>
    </g>
   </g>
  </g>
 </g>
 <defs>
  <clipPath id="p2c10a7938b">
   <rect x="110.031563" y="22.318125" width="157.26" height="148.6"/>
  </clipPath>
 </defs>
</svg>
