<?xml version="1.0" encoding="utf-8" standalone="no"?>
<!DOCTYPE svg PUBLIC "-//W3C//DTD SVG 1.1//EN"
  "http://www.w3.org/Graphics/SVG/1.1/DTD/svg11.dtd">
<svg xmlns:xlink="http://www.w3.org/1999/xlink" width="472.401875pt" height="208.474375pt" viewBox="0 0 472.401875 208.474375" xmlns="http://www.w3.org/2000/svg" version="1.1">
 <metadata>
  <rdf:RDF xmlns:dc="http://purl.org/dc/elements/1.1/" xmlns:cc="http://creativecommons.org/ns#" xmlns:rdf="http://www.w3.org/1999/02/22-rdf-syntax-ns#">
   <cc:Work>
    <dc:type rdf:resource="http://purl.org/dc/dcmitype/StillImage"/>
    <dc:date>2025-12-10T13:48:14.850863</dc:date>
    <dc:format>image/svg+xml</dc:format>
    <dc:creator>
     <cc:Agent>
      <dc:title>Matplotlib v3.10.6, https://matplotlib.org/</dc:title>
     </cc:Agent>
    </dc:creator>
   </cc:Work>
  </rdf:RDF>
 </metadata>
 <defs>
  <style type="text/css">*{stroke-linejoin: round; stroke-linecap: butt}</style>
 </defs>
 <g id="figure_1">
  <g id="patch_1">
   <path d="M 0 208.474375 
L 472.401875 208.474375 
L 472.401875 0 
L 0 0 
z
" style="fill: #ffffff"/>
  </g>
  <g id="axes_1">
   <g id="patch_2">
    <path d="M 106.836563 170.918125 
L 270.486562 170.918125 
L 270.486562 22.318125 
L 106.836563 22.318125 
z
" style="fill: #ffffff"/>
   </g>
   <g id="PathCollection_1">
    <path d="M 123.403437 147.833436 
C 124.729452 147.833436 126.001336 147.306604 126.938971 146.36897 
C 127.876605 145.431335 128.403437 144.159452 128.403437 142.833436 
C 128.403437 141.507421 127.876605 140.235537 126.938971 139.297902 
C 126.001336 138.360268 124.729452 137.833436 123.403437 137.833436 
C 122.077421 137.833436 120.805538 138.360268 119.867903 139.297902 
C 118.930269 140.235537 118.403437 141.507421 118.403437 142.833436 
C 118.403437 144.159452 118.930269 145.431335 119.867903 146.36897 
C 120.805538 147.306604 122.077421 147.833436 123.403437 147.833436 
z
" clip-path="url(#pe19886f742)" style="fill: #1f77b4; stroke: #ffffff; stroke-width: 0.8"/>
    <path d="M 134.33248 148.636183 
L 136.83248 146.136183 
L 139.33248 148.636183 
L 141.83248 146.136183 
L 139.33248 143.636183 
L 141.83248 141.136183 
L 139.33248 138.636183 
L 136.83248 141.136183 
L 134.33248 138.636183 
L 131.83248 141.136183 
L 134.33248 143.636183 
L 131.83248 146.136183 
z
" clip-path="url(#pe19886f742)" style="fill: #1f77b4; stroke: #ffffff; stroke-width: 0.8"/>
    <path d="M 145.760502 124.561755 
L 145.760502 131.632822 
L 152.831569 131.632822 
L 152.831569 124.561755 
z
" clip-path="url(#pe19886f742)" style="fill: #1f77b4; stroke: #ffffff; stroke-width: 0.8"/>
    <path d="M 116.293944 161.422802 
C 117.619959 161.422802 118.891843 160.89597 119.829478 159.958336 
C 120.767112 159.020701 121.293944 157.748817 121.293944 156.422802 
C 121.293944 155.096786 120.767112 153.824902 119.829478 152.887268 
C 118.891843 151.949633 117.619959 151.422802 116.293944 151.422802 
C 114.967928 151.422802 113.696044 151.949633 112.75841 152.887268 
C 111.820775 153.824902 111.293944 155.096786 111.293944 156.422802 
C 111.293944 157.748817 111.820775 159.020701 112.75841 159.958336 
C 113.696044 160.89597 114.967928 161.422802 116.293944 161.422802 
z
" clip-path="url(#pe19886f742)" style="fill: #1f77b4; stroke: #ffffff; stroke-width: 0.8"/>
    <path d="M 134.33248 148.636183 
L 136.83248 146.136183 
L 139.33248 148.636183 
L 141.83248 146.136183 
L 139.33248 143.636183 
L 141.83248 141.136183 
L 139.33248 138.636183 
L 136.83248 141.136183 
L 134.33248 138.636183 
L 131.83248 141.136183 
L 134.33248 143.636183 
L 131.83248 146.136183 
z
" clip-path="url(#pe19886f742)" style="fill: #1f77b4; stroke: #ffffff; stroke-width: 0.8"/>
    <path d="M 147.95479 126.969997 
L 147.95479 134.041064 
L 155.025857 134.041064 
L 155.025857 126.969997 
z
" clip-path="url(#pe19886f742)" style="fill: #1f77b4; stroke: #ffffff; stroke-width: 0.8"/>
    <path d="M 124.281152 156.950352 
C 125.607168 156.950352 126.879052 156.423521 127.816686 155.485886 
C 128.754321 154.548252 129.281152 153.276368 129.281152 151.950352 
C 129.281152 150.624337 128.754321 149.352453 127.816686 148.414818 
C 126.879052 147.477184 125.607168 146.950352 124.281152 146.950352 
C 122.955137 146.950352 121.683253 147.477184 120.745618 148.414818 
C 119.807984 149.352453 119.281152 150.624337 119.281152 151.950352 
C 119.281152 153.276368 119.807984 154.548252 120.745618 155.485886 
C 121.683253 156.423521 122.955137 156.950352 124.281152 156.950352 
z
" clip-path="url(#pe19886f742)" style="fill: #1f77b4; stroke: #ffffff; stroke-width: 0.8"/>
    <path d="M 134.33248 148.636183 
L 136.83248 146.136183 
L 139.33248 148.636183 
L 141.83248 146.136183 
L 139.33248 143.636183 
L 141.83248 141.136183 
L 139.33248 138.636183 
L 136.83248 141.136183 
L 134.33248 138.636183 
L 131.83248 141.136183 
L 134.33248 143.636183 
L 131.83248 146.136183 
z
" clip-path="url(#pe19886f742)" style="fill: #1f77b4; stroke: #ffffff; stroke-width: 0.8"/>
    <path d="M 147.164846 130.58236 
L 147.164846 137.653427 
L 154.235914 137.653427 
L 154.235914 130.58236 
z
" clip-path="url(#pe19886f742)" style="fill: #1f77b4; stroke: #ffffff; stroke-width: 0.8"/>
    <path d="M 114.275199 169.10624 
C 115.601214 169.10624 116.873098 168.579409 117.810733 167.641774 
C 118.748367 166.70414 119.275199 165.432256 119.275199 164.10624 
C 119.275199 162.780225 118.748367 161.508341 117.810733 160.570707 
C 116.873098 159.633072 115.601214 159.10624 114.275199 159.10624 
C 112.949183 159.10624 111.6773 159.633072 110.739665 160.570707 
C 109.80203 161.508341 109.275199 162.780225 109.275199 164.10624 
C 109.275199 165.432256 109.80203 166.70414 110.739665 167.641774 
C 111.6773 168.579409 112.949183 169.10624 114.275199 169.10624 
z
" clip-path="url(#pe19886f742)" style="fill: #ff7f0e; stroke: #ffffff; stroke-width: 0.8"/>
    <path d="M 200.512206 73.579307 
L 203.012206 71.079307 
L 205.512206 73.579307 
L 208.012206 71.079307 
L 205.512206 68.579307 
L 208.012206 66.079307 
L 205.512206 63.579307 
L 203.012206 66.079307 
L 200.512206 63.579307 
L 198.012206 66.079307 
L 200.512206 68.579307 
L 198.012206 71.079307 
z
" clip-path="url(#pe19886f742)" style="fill: #ff7f0e; stroke: #ffffff; stroke-width: 0.8"/>
    <path d="M 244.240148 48.530114 
L 244.240148 55.601182 
L 251.311215 55.601182 
L 251.311215 48.530114 
z
" clip-path="url(#pe19886f742)" style="fill: #ff7f0e; stroke: #ffffff; stroke-width: 0.8"/>
    <path d="M 133.058304 148.062792 
C 134.38432 148.062792 135.656204 147.535961 136.593838 146.598326 
C 137.531473 145.660692 138.058304 144.388808 138.058304 143.062792 
C 138.058304 141.736777 137.531473 140.464893 136.593838 139.527258 
C 135.656204 138.589624 134.38432 138.062792 133.058304 138.062792 
C 131.732289 138.062792 130.460405 138.589624 129.52277 139.527258 
C 128.585136 140.464893 128.058304 141.736777 128.058304 143.062792 
C 128.058304 144.388808 128.585136 145.660692 129.52277 146.598326 
C 130.460405 147.535961 131.732289 148.062792 133.058304 148.062792 
z
" clip-path="url(#pe19886f742)" style="fill: #ff7f0e; stroke: #ffffff; stroke-width: 0.8"/>
    <path d="M 200.512206 73.579307 
L 203.012206 71.079307 
L 205.512206 73.579307 
L 208.012206 71.079307 
L 205.512206 68.579307 
L 208.012206 66.079307 
L 205.512206 63.579307 
L 203.012206 66.079307 
L 200.512206 63.579307 
L 198.012206 66.079307 
L 200.512206 68.579307 
L 198.012206 71.079307 
z
" clip-path="url(#pe19886f742)" style="fill: #ff7f0e; stroke: #ffffff; stroke-width: 0.8"/>
    <path d="M 238.534999 46.86728 
L 238.534999 53.938348 
L 245.606067 53.938348 
L 245.606067 46.86728 
z
" clip-path="url(#pe19886f742)" style="fill: #ff7f0e; stroke: #ffffff; stroke-width: 0.8"/>
    <path d="M 162.549535 90.953053 
C 163.875551 90.953053 165.147435 90.426222 166.085069 89.488587 
C 167.022704 88.550953 167.549535 87.279069 167.549535 85.953053 
C 167.549535 84.627038 167.022704 83.355154 166.085069 82.417519 
C 165.147435 81.479885 163.875551 80.953053 162.549535 80.953053 
C 161.22352 80.953053 159.951636 81.479885 159.014001 82.417519 
C 158.076367 83.355154 157.549535 84.627038 157.549535 85.953053 
C 157.549535 87.279069 158.076367 88.550953 159.014001 89.488587 
C 159.951636 90.426222 161.22352 90.953053 162.549535 90.953053 
z
" clip-path="url(#pe19886f742)" style="fill: #ff7f0e; stroke: #ffffff; stroke-width: 0.8"/>
    <path d="M 200.512206 73.579307 
L 203.012206 71.079307 
L 205.512206 73.579307 
L 208.012206 71.079307 
L 205.512206 68.579307 
L 208.012206 66.079307 
L 205.512206 63.579307 
L 203.012206 66.079307 
L 200.512206 63.579307 
L 198.012206 66.079307 
L 200.512206 68.579307 
L 198.012206 71.079307 
z
" clip-path="url(#pe19886f742)" style="fill: #ff7f0e; stroke: #ffffff; stroke-width: 0.8"/>
    <path d="M 259.512392 25.537137 
L 259.512392 32.608204 
L 266.58346 32.608204 
L 266.58346 25.537137 
z
" clip-path="url(#pe19886f742)" style="fill: #ff7f0e; stroke: #ffffff; stroke-width: 0.8"/>
    <path d="M 114.801828 169.16358 
C 116.127843 169.16358 117.399727 168.636748 118.337362 167.699113 
C 119.274996 166.761479 119.801828 165.489595 119.801828 164.16358 
C 119.801828 162.837564 119.274996 161.56568 118.337362 160.628046 
C 117.399727 159.690411 116.127843 159.16358 114.801828 159.16358 
C 113.475812 159.16358 112.203929 159.690411 111.266294 160.628046 
C 110.32866 161.56568 109.801828 162.837564 109.801828 164.16358 
C 109.801828 165.489595 110.32866 166.761479 111.266294 167.699113 
C 112.203929 168.636748 113.475812 169.16358 114.801828 169.16358 
z
" clip-path="url(#pe19886f742)" style="fill: #2ca02c; stroke: #ffffff; stroke-width: 0.8"/>
    <path d="M 175.497323 92.845243 
L 177.997323 90.345243 
L 180.497323 92.845243 
L 182.997323 90.345243 
L 180.497323 87.845243 
L 182.997323 85.345243 
L 180.497323 82.845243 
L 177.997323 85.345243 
L 175.497323 82.845243 
L 172.997323 85.345243 
L 175.497323 87.845243 
L 172.997323 90.345243 
z
" clip-path="url(#pe19886f742)" style="fill: #2ca02c; stroke: #ffffff; stroke-width: 0.8"/>
    <path d="M 215.100003 62.348836 
L 215.100003 69.419904 
L 222.171071 69.419904 
L 222.171071 62.348836 
z
" clip-path="url(#pe19886f742)" style="fill: #2ca02c; stroke: #ffffff; stroke-width: 0.8"/>
    <path d="M 137.44688 148.693522 
C 138.772896 148.693522 140.04478 148.166691 140.982414 147.229056 
C 141.920049 146.291422 142.44688 145.019538 142.44688 143.693522 
C 142.44688 142.367507 141.920049 141.095623 140.982414 140.157989 
C 140.04478 139.220354 138.772896 138.693522 137.44688 138.693522 
C 136.120865 138.693522 134.848981 139.220354 133.911346 140.157989 
C 132.973712 141.095623 132.44688 142.367507 132.44688 143.693522 
C 132.44688 145.019538 132.973712 146.291422 133.911346 147.229056 
C 134.848981 148.166691 136.120865 148.693522 137.44688 148.693522 
z
" clip-path="url(#pe19886f742)" style="fill: #2ca02c; stroke: #ffffff; stroke-width: 0.8"/>
    <path d="M 175.497323 92.845243 
L 177.997323 90.345243 
L 180.497323 92.845243 
L 182.997323 90.345243 
L 180.497323 87.845243 
L 182.997323 85.345243 
L 180.497323 82.845243 
L 177.997323 85.345243 
L 175.497323 82.845243 
L 172.997323 85.345243 
L 175.497323 87.845243 
L 172.997323 90.345243 
z
" clip-path="url(#pe19886f742)" style="fill: #2ca02c; stroke: #ffffff; stroke-width: 0.8"/>
    <path d="M 197.282384 71.981804 
L 197.282384 79.052872 
L 204.353452 79.052872 
L 204.353452 71.981804 
z
" clip-path="url(#pe19886f742)" style="fill: #2ca02c; stroke: #ffffff; stroke-width: 0.8"/>
    <path d="M 174.135376 86.881977 
C 175.461391 86.881977 176.733275 86.355146 177.67091 85.417511 
C 178.608544 84.479877 179.135376 83.207993 179.135376 81.881977 
C 179.135376 80.555962 178.608544 79.284078 177.67091 78.346444 
C 176.733275 77.408809 175.461391 76.881977 174.135376 76.881977 
C 172.80936 76.881977 171.537477 77.408809 170.599842 78.346444 
C 169.662207 79.284078 169.135376 80.555962 169.135376 81.881977 
C 169.135376 83.207993 169.662207 84.479877 170.599842 85.417511 
C 171.537477 86.355146 172.80936 86.881977 174.135376 86.881977 
z
" clip-path="url(#pe19886f742)" style="fill: #2ca02c; stroke: #ffffff; stroke-width: 0.8"/>
    <path d="M 175.497323 92.845243 
L 177.997323 90.345243 
L 180.497323 92.845243 
L 182.997323 90.345243 
L 180.497323 87.845243 
L 182.997323 85.345243 
L 180.497323 82.845243 
L 177.997323 85.345243 
L 175.497323 82.845243 
L 172.997323 85.345243 
L 175.497323 87.845243 
L 172.997323 90.345243 
z
" clip-path="url(#pe19886f742)" style="fill: #2ca02c; stroke: #ffffff; stroke-width: 0.8"/>
    <path d="M 202.899761 64.757078 
L 202.899761 71.828146 
L 209.970829 71.828146 
L 209.970829 64.757078 
z
" clip-path="url(#pe19886f742)" style="fill: #2ca02c; stroke: #ffffff; stroke-width: 0.8"/>
    <path d="M 118.576003 164.576452 
C 119.902019 164.576452 121.173903 164.04962 122.111537 163.111986 
C 123.049172 162.174351 123.576003 160.902467 123.576003 159.576452 
C 123.576003 158.250436 123.049172 156.978553 122.111537 156.040918 
C 121.173903 155.103283 119.902019 154.576452 118.576003 154.576452 
C 117.249988 154.576452 115.978104 155.103283 115.040469 156.040918 
C 114.102835 156.978553 113.576003 158.250436 113.576003 159.576452 
C 113.576003 160.902467 114.102835 162.174351 115.040469 163.111986 
C 115.978104 164.04962 117.249988 164.576452 118.576003 164.576452 
z
" clip-path="url(#pe19886f742)" style="fill: #d62728; stroke: #ffffff; stroke-width: 0.8"/>
    <path d="M 161.804966 108.728173 
L 164.304966 106.228173 
L 166.804966 108.728173 
L 169.304966 106.228173 
L 166.804966 103.728173 
L 169.304966 101.228173 
L 166.804966 98.728173 
L 164.304966 101.228173 
L 161.804966 98.728173 
L 159.304966 101.228173 
L 161.804966 103.728173 
L 159.304966 106.228173 
z
" clip-path="url(#pe19886f742)" style="fill: #d62728; stroke: #ffffff; stroke-width: 0.8"/>
    <path d="M 186.310944 82.876232 
L 186.310944 89.9473 
L 193.382012 89.9473 
L 193.382012 82.876232 
z
" clip-path="url(#pe19886f742)" style="fill: #d62728; stroke: #ffffff; stroke-width: 0.8"/>
    <path d="M 121.560235 159.989324 
C 122.886251 159.989324 124.158134 159.462493 125.095769 158.524858 
C 126.033404 157.587224 126.560235 156.31534 126.560235 154.989324 
C 126.560235 153.663309 126.033404 152.391425 125.095769 151.45379 
C 124.158134 150.516156 122.886251 149.989324 121.560235 149.989324 
C 120.23422 149.989324 118.962336 150.516156 118.024701 151.45379 
C 117.087067 152.391425 116.560235 153.663309 116.560235 154.989324 
C 116.560235 156.31534 117.087067 157.587224 118.024701 158.524858 
C 118.962336 159.462493 120.23422 159.989324 121.560235 159.989324 
z
" clip-path="url(#pe19886f742)" style="fill: #d62728; stroke: #ffffff; stroke-width: 0.8"/>
    <path d="M 161.804966 108.728173 
L 164.304966 106.228173 
L 166.804966 108.728173 
L 169.304966 106.228173 
L 166.804966 103.728173 
L 169.304966 101.228173 
L 166.804966 98.728173 
L 164.304966 101.228173 
L 161.804966 98.728173 
L 159.304966 101.228173 
L 161.804966 103.728173 
L 159.304966 106.228173 
z
" clip-path="url(#pe19886f742)" style="fill: #d62728; stroke: #ffffff; stroke-width: 0.8"/>
    <path d="M 193.157123 79.263869 
L 193.157123 86.334937 
L 200.228191 86.334937 
L 200.228191 79.263869 
z
" clip-path="url(#pe19886f742)" style="fill: #d62728; stroke: #ffffff; stroke-width: 0.8"/>
    <path d="M 138.061281 112.397875 
C 139.387296 112.397875 140.65918 111.871043 141.596815 110.933409 
C 142.534449 109.995774 143.061281 108.72389 143.061281 107.397875 
C 143.061281 106.071859 142.534449 104.799976 141.596815 103.862341 
C 140.65918 102.924707 139.387296 102.397875 138.061281 102.397875 
C 136.735265 102.397875 135.463382 102.924707 134.525747 103.862341 
C 133.588112 104.799976 133.061281 106.071859 133.061281 107.397875 
C 133.061281 108.72389 133.588112 109.995774 134.525747 110.933409 
C 135.463382 111.871043 136.735265 112.397875 138.061281 112.397875 
z
" clip-path="url(#pe19886f742)" style="fill: #d62728; stroke: #ffffff; stroke-width: 0.8"/>
    <path d="M 161.804966 108.728173 
L 164.304966 106.228173 
L 166.804966 108.728173 
L 169.304966 106.228173 
L 166.804966 103.728173 
L 169.304966 101.228173 
L 166.804966 98.728173 
L 164.304966 101.228173 
L 161.804966 98.728173 
L 159.304966 101.228173 
L 161.804966 103.728173 
L 159.304966 106.228173 
z
" clip-path="url(#pe19886f742)" style="fill: #d62728; stroke: #ffffff; stroke-width: 0.8"/>
    <path d="M 186.925345 84.94044 
L 186.925345 92.011507 
L 193.996413 92.011507 
L 193.996413 84.94044 
z
" clip-path="url(#pe19886f742)" style="fill: #d62728; stroke: #ffffff; stroke-width: 0.8"/>
    <path d="M 126.914298 156.032927 
C 128.240313 156.032927 129.512197 155.506095 130.449832 154.568461 
C 131.387466 153.630826 131.914298 152.358942 131.914298 151.032927 
C 131.914298 149.706911 131.387466 148.435027 130.449832 147.497393 
C 129.512197 146.559758 128.240313 146.032927 126.914298 146.032927 
C 125.588282 146.032927 124.316398 146.559758 123.378764 147.497393 
C 122.441129 148.435027 121.914298 149.706911 121.914298 151.032927 
C 121.914298 152.358942 122.441129 153.630826 123.378764 154.568461 
C 124.316398 155.506095 125.588282 156.032927 126.914298 156.032927 
z
" clip-path="url(#pe19886f742)" style="fill: #9467bd; stroke: #ffffff; stroke-width: 0.8"/>
    <path d="M 141.529744 138.200468 
L 144.029744 135.700468 
L 146.529744 138.200468 
L 149.029744 135.700468 
L 146.529744 133.200468 
L 149.029744 130.700468 
L 146.529744 128.200468 
L 144.029744 130.700468 
L 141.529744 128.200468 
L 139.029744 130.700468 
L 141.529744 133.200468 
L 139.029744 135.700468 
z
" clip-path="url(#pe19886f742)" style="fill: #9467bd; stroke: #ffffff; stroke-width: 0.8"/>
    <path d="M 171.740872 108.678825 
L 171.740872 115.749893 
L 178.81194 115.749893 
L 178.81194 108.678825 
z
" clip-path="url(#pe19886f742)" style="fill: #9467bd; stroke: #ffffff; stroke-width: 0.8"/>
    <path d="M 135.428135 149.152235 
C 136.754151 149.152235 138.026035 148.625404 138.963669 147.687769 
C 139.901304 146.750135 140.428135 145.478251 140.428135 144.152235 
C 140.428135 142.82622 139.901304 141.554336 138.963669 140.616701 
C 138.026035 139.679067 136.754151 139.152235 135.428135 139.152235 
C 134.10212 139.152235 132.830236 139.679067 131.892601 140.616701 
C 130.954967 141.554336 130.428135 142.82622 130.428135 144.152235 
C 130.428135 145.478251 130.954967 146.750135 131.892601 147.687769 
C 132.830236 148.625404 134.10212 149.152235 135.428135 149.152235 
z
" clip-path="url(#pe19886f742)" style="fill: #9467bd; stroke: #ffffff; stroke-width: 0.8"/>
    <path d="M 141.529744 138.200468 
L 144.029744 135.700468 
L 146.529744 138.200468 
L 149.029744 135.700468 
L 146.529744 133.200468 
L 149.029744 130.700468 
L 146.529744 128.200468 
L 144.029744 130.700468 
L 141.529744 128.200468 
L 139.029744 130.700468 
L 141.529744 133.200468 
L 139.029744 135.700468 
z
" clip-path="url(#pe19886f742)" style="fill: #9467bd; stroke: #ffffff; stroke-width: 0.8"/>
    <path d="M 146.550445 123.128277 
L 146.550445 130.199345 
L 153.621513 130.199345 
L 153.621513 123.128277 
z
" clip-path="url(#pe19886f742)" style="fill: #9467bd; stroke: #ffffff; stroke-width: 0.8"/>
    <path d="M 143.854201 140.322014 
C 145.180217 140.322014 146.452101 139.795183 147.389735 138.857548 
C 148.32737 137.919914 148.854201 136.64803 148.854201 135.322014 
C 148.854201 133.995999 148.32737 132.724115 147.389735 131.786481 
C 146.452101 130.848846 145.180217 130.322014 143.854201 130.322014 
C 142.528186 130.322014 141.256302 130.848846 140.318667 131.786481 
C 139.381033 132.724115 138.854201 133.995999 138.854201 135.322014 
C 138.854201 136.64803 139.381033 137.919914 140.318667 138.857548 
C 141.256302 139.795183 142.528186 140.322014 143.854201 140.322014 
z
" clip-path="url(#pe19886f742)" style="fill: #9467bd; stroke: #ffffff; stroke-width: 0.8"/>
    <path d="M 141.529744 138.200468 
L 144.029744 135.700468 
L 146.529744 138.200468 
L 149.029744 135.700468 
L 146.529744 133.200468 
L 149.029744 130.700468 
L 146.529744 128.200468 
L 144.029744 130.700468 
L 141.529744 128.200468 
L 139.029744 130.700468 
L 141.529744 133.200468 
L 139.029744 135.700468 
z
" clip-path="url(#pe19886f742)" style="fill: #9467bd; stroke: #ffffff; stroke-width: 0.8"/>
    <path d="M 162.875948 106.385261 
L 162.875948 113.456329 
L 169.947016 113.456329 
L 169.947016 106.385261 
z
" clip-path="url(#pe19886f742)" style="fill: #9467bd; stroke: #ffffff; stroke-width: 0.8"/>
   </g>
   <g id="matplotlib.axis_1">
    <g id="xtick_1">
     <g id="line2d_1">
      <defs>
       <path id="m13e53dfea4" d="M 0 0 
L 0 3.5 
" style="stroke: #000000; stroke-width: 0.8"/>
      </defs>
      <g>
       <use xlink:href="#m13e53dfea4" x="114.538513" y="170.918125" style="stroke: #000000; stroke-width: 0.8"/>
      </g>
     </g>
     <g id="text_1">
      <!-- 0.00 -->
      <g transform="translate(103.405701 185.516562) scale(0.1 -0.1)">
       <defs>
        <path id="DejaVuSans-30" d="M 2034 4250 
Q 1547 4250 1301 3770 
Q 1056 3291 1056 2328 
Q 1056 1369 1301 889 
Q 1547 409 2034 409 
Q 2525 409 2770 889 
Q 3016 1369 3016 2328 
Q 3016 3291 2770 3770 
Q 2525 4250 2034 4250 
z
M 2034 4750 
Q 2819 4750 3233 4129 
Q 3647 3509 3647 2328 
Q 3647 1150 3233 529 
Q 2819 -91 2034 -91 
Q 1250 -91 836 529 
Q 422 1150 422 2328 
Q 422 3509 836 4129 
Q 1250 4750 2034 4750 
z
" transform="scale(0.015625)"/>
        <path id="DejaVuSans-2e" d="M 684 794 
L 1344 794 
L 1344 0 
L 684 0 
L 684 794 
z
" transform="scale(0.015625)"/>
       </defs>
       <use xlink:href="#DejaVuSans-30"/>
       <use xlink:href="#DejaVuSans-2e" transform="translate(63.623047 0)"/>
       <use xlink:href="#DejaVuSans-30" transform="translate(95.410156 0)"/>
       <use xlink:href="#DejaVuSans-30" transform="translate(159.033203 0)"/>
      </g>
     </g>
    </g>
    <g id="xtick_2">
     <g id="line2d_2">
      <g>
       <use xlink:href="#m13e53dfea4" x="158.424274" y="170.918125" style="stroke: #000000; stroke-width: 0.8"/>
      </g>
     </g>
     <g id="text_2">
      <!-- 0.05 -->
      <g transform="translate(147.291461 185.516562) scale(0.1 -0.1)">
       <defs>
        <path id="DejaVuSans-35" d="M 691 4666 
L 3169 4666 
L 3169 4134 
L 1269 4134 
L 1269 2991 
Q 1406 3038 1543 3061 
Q 1681 3084 1819 3084 
Q 2600 3084 3056 2656 
Q 3513 2228 3513 1497 
Q 3513 744 3044 326 
Q 2575 -91 1722 -91 
Q 1428 -91 1123 -41 
Q 819 9 494 109 
L 494 744 
Q 775 591 1075 516 
Q 1375 441 1709 441 
Q 2250 441 2565 725 
Q 2881 1009 2881 1497 
Q 2881 1984 2565 2268 
Q 2250 2553 1709 2553 
Q 1456 2553 1204 2497 
Q 953 2441 691 2322 
L 691 4666 
z
" transform="scale(0.015625)"/>
       </defs>
       <use xlink:href="#DejaVuSans-30"/>
       <use xlink:href="#DejaVuSans-2e" transform="translate(63.623047 0)"/>
       <use xlink:href="#DejaVuSans-30" transform="translate(95.410156 0)"/>
       <use xlink:href="#DejaVuSans-35" transform="translate(159.033203 0)"/>
      </g>
     </g>
    </g>
    <g id="xtick_3">
     <g id="line2d_3">
      <g>
       <use xlink:href="#m13e53dfea4" x="202.310034" y="170.918125" style="stroke: #000000; stroke-width: 0.8"/>
      </g>
     </g>
     <g id="text_3">
      <!-- 0.10 -->
      <g transform="translate(191.177221 185.516562) scale(0.1 -0.1)">
       <defs>
        <path id="DejaVuSans-31" d="M 794 531 
L 1825 531 
L 1825 4091 
L 703 3866 
L 703 4441 
L 1819 4666 
L 2450 4666 
L 2450 531 
L 3481 531 
L 3481 0 
L 794 0 
L 794 531 
z
" transform="scale(0.015625)"/>
       </defs>
       <use xlink:href="#DejaVuSans-30"/>
       <use xlink:href="#DejaVuSans-2e" transform="translate(63.623047 0)"/>
       <use xlink:href="#DejaVuSans-31" transform="translate(95.410156 0)"/>
       <use xlink:href="#DejaVuSans-30" transform="translate(159.033203 0)"/>
      </g>
     </g>
    </g>
    <g id="xtick_4">
     <g id="line2d_4">
      <g>
       <use xlink:href="#m13e53dfea4" x="246.195794" y="170.918125" style="stroke: #000000; stroke-width: 0.8"/>
      </g>
     </g>
     <g id="text_4">
      <!-- 0.15 -->
      <g transform="translate(235.062982 185.516562) scale(0.1 -0.1)">
       <use xlink:href="#DejaVuSans-30"/>
       <use xlink:href="#DejaVuSans-2e" transform="translate(63.623047 0)"/>
       <use xlink:href="#DejaVuSans-31" transform="translate(95.410156 0)"/>
       <use xlink:href="#DejaVuSans-35" transform="translate(159.033203 0)"/>
      </g>
     </g>
    </g>
    <g id="text_5">
     <!-- ARI Score -->
     <g transform="translate(164.700625 199.194687) scale(0.1 -0.1)">
      <defs>
       <path id="DejaVuSans-41" d="M 2188 4044 
L 1331 1722 
L 3047 1722 
L 2188 4044 
z
M 1831 4666 
L 2547 4666 
L 4325 0 
L 3669 0 
L 3244 1197 
L 1141 1197 
L 716 0 
L 50 0 
L 1831 4666 
z
" transform="scale(0.015625)"/>
       <path id="DejaVuSans-52" d="M 2841 2188 
Q 3044 2119 3236 1894 
Q 3428 1669 3622 1275 
L 4263 0 
L 3584 0 
L 2988 1197 
Q 2756 1666 2539 1819 
Q 2322 1972 1947 1972 
L 1259 1972 
L 1259 0 
L 628 0 
L 628 4666 
L 2053 4666 
Q 2853 4666 3247 4331 
Q 3641 3997 3641 3322 
Q 3641 2881 3436 2590 
Q 3231 2300 2841 2188 
z
M 1259 4147 
L 1259 2491 
L 2053 2491 
Q 2509 2491 2742 2702 
Q 2975 2913 2975 3322 
Q 2975 3731 2742 3939 
Q 2509 4147 2053 4147 
L 1259 4147 
z
" transform="scale(0.015625)"/>
       <path id="DejaVuSans-49" d="M 628 4666 
L 1259 4666 
L 1259 0 
L 628 0 
L 628 4666 
z
" transform="scale(0.015625)"/>
       <path id="DejaVuSans-20" transform="scale(0.015625)"/>
       <path id="DejaVuSans-53" d="M 3425 4513 
L 3425 3897 
Q 3066 4069 2747 4153 
Q 2428 4238 2131 4238 
Q 1616 4238 1336 4038 
Q 1056 3838 1056 3469 
Q 1056 3159 1242 3001 
Q 1428 2844 1947 2747 
L 2328 2669 
Q 3034 2534 3370 2195 
Q 3706 1856 3706 1288 
Q 3706 609 3251 259 
Q 2797 -91 1919 -91 
Q 1588 -91 1214 -16 
Q 841 59 441 206 
L 441 856 
Q 825 641 1194 531 
Q 1563 422 1919 422 
Q 2459 422 2753 634 
Q 3047 847 3047 1241 
Q 3047 1584 2836 1778 
Q 2625 1972 2144 2069 
L 1759 2144 
Q 1053 2284 737 2584 
Q 422 2884 422 3419 
Q 422 4038 858 4394 
Q 1294 4750 2059 4750 
Q 2388 4750 2728 4690 
Q 3069 4631 3425 4513 
z
" transform="scale(0.015625)"/>
       <path id="DejaVuSans-63" d="M 3122 3366 
L 3122 2828 
Q 2878 2963 2633 3030 
Q 2388 3097 2138 3097 
Q 1578 3097 1268 2742 
Q 959 2388 959 1747 
Q 959 1106 1268 751 
Q 1578 397 2138 397 
Q 2388 397 2633 464 
Q 2878 531 3122 666 
L 3122 134 
Q 2881 22 2623 -34 
Q 2366 -91 2075 -91 
Q 1284 -91 818 406 
Q 353 903 353 1747 
Q 353 2603 823 3093 
Q 1294 3584 2113 3584 
Q 2378 3584 2631 3529 
Q 2884 3475 3122 3366 
z
" transform="scale(0.015625)"/>
       <path id="DejaVuSans-6f" d="M 1959 3097 
Q 1497 3097 1228 2736 
Q 959 2375 959 1747 
Q 959 1119 1226 758 
Q 1494 397 1959 397 
Q 2419 397 2687 759 
Q 2956 1122 2956 1747 
Q 2956 2369 2687 2733 
Q 2419 3097 1959 3097 
z
M 1959 3584 
Q 2709 3584 3137 3096 
Q 3566 2609 3566 1747 
Q 3566 888 3137 398 
Q 2709 -91 1959 -91 
Q 1206 -91 779 398 
Q 353 888 353 1747 
Q 353 2609 779 3096 
Q 1206 3584 1959 3584 
z
" transform="scale(0.015625)"/>
       <path id="DejaVuSans-72" d="M 2631 2963 
Q 2534 3019 2420 3045 
Q 2306 3072 2169 3072 
Q 1681 3072 1420 2755 
Q 1159 2438 1159 1844 
L 1159 0 
L 581 0 
L 581 3500 
L 1159 3500 
L 1159 2956 
Q 1341 3275 1631 3429 
Q 1922 3584 2338 3584 
Q 2397 3584 2469 3576 
Q 2541 3569 2628 3553 
L 2631 2963 
z
" transform="scale(0.015625)"/>
       <path id="DejaVuSans-65" d="M 3597 1894 
L 3597 1613 
L 953 1613 
Q 991 1019 1311 708 
Q 1631 397 2203 397 
Q 2534 397 2845 478 
Q 3156 559 3463 722 
L 3463 178 
Q 3153 47 2828 -22 
Q 2503 -91 2169 -91 
Q 1331 -91 842 396 
Q 353 884 353 1716 
Q 353 2575 817 3079 
Q 1281 3584 2069 3584 
Q 2775 3584 3186 3129 
Q 3597 2675 3597 1894 
z
M 3022 2063 
Q 3016 2534 2758 2815 
Q 2500 3097 2075 3097 
Q 1594 3097 1305 2825 
Q 1016 2553 972 2059 
L 3022 2063 
z
" transform="scale(0.015625)"/>
      </defs>
      <use xlink:href="#DejaVuSans-41"/>
      <use xlink:href="#DejaVuSans-52" transform="translate(68.408203 0)"/>
      <use xlink:href="#DejaVuSans-49" transform="translate(137.890625 0)"/>
      <use xlink:href="#DejaVuSans-20" transform="translate(167.382812 0)"/>
      <use xlink:href="#DejaVuSans-53" transform="translate(199.169922 0)"/>
      <use xlink:href="#DejaVuSans-63" transform="translate(262.646484 0)"/>
      <use xlink:href="#DejaVuSans-6f" transform="translate(317.626953 0)"/>
      <use xlink:href="#DejaVuSans-72" transform="translate(378.808594 0)"/>
      <use xlink:href="#DejaVuSans-65" transform="translate(417.671875 0)"/>
     </g>
    </g>
   </g>
   <g id="matplotlib.axis_2">
    <g id="ytick_1">
     <g id="line2d_5">
      <defs>
       <path id="m8fbc401eb9" d="M 0 0 
L -3.5 0 
" style="stroke: #000000; stroke-width: 0.8"/>
      </defs>
      <g>
       <use xlink:href="#m8fbc401eb9" x="106.836563" y="147.936616" style="stroke: #000000; stroke-width: 0.8"/>
      </g>
     </g>
     <g id="text_6">
      <!-- 0.05 -->
      <g transform="translate(77.570938 151.735834) scale(0.1 -0.1)">
       <use xlink:href="#DejaVuSans-30"/>
       <use xlink:href="#DejaVuSans-2e" transform="translate(63.623047 0)"/>
       <use xlink:href="#DejaVuSans-30" transform="translate(95.410156 0)"/>
       <use xlink:href="#DejaVuSans-35" transform="translate(159.033203 0)"/>
      </g>
     </g>
    </g>
    <g id="ytick_2">
     <g id="line2d_6">
      <g>
       <use xlink:href="#m8fbc401eb9" x="106.836563" y="119.267068" style="stroke: #000000; stroke-width: 0.8"/>
      </g>
     </g>
     <g id="text_7">
      <!-- 0.10 -->
      <g transform="translate(77.570938 123.066286) scale(0.1 -0.1)">
       <use xlink:href="#DejaVuSans-30"/>
       <use xlink:href="#DejaVuSans-2e" transform="translate(63.623047 0)"/>
       <use xlink:href="#DejaVuSans-31" transform="translate(95.410156 0)"/>
       <use xlink:href="#DejaVuSans-30" transform="translate(159.033203 0)"/>
      </g>
     </g>
    </g>
    <g id="ytick_3">
     <g id="line2d_7">
      <g>
       <use xlink:href="#m8fbc401eb9" x="106.836563" y="90.59752" style="stroke: #000000; stroke-width: 0.8"/>
      </g>
     </g>
     <g id="text_8">
      <!-- 0.15 -->
      <g transform="translate(77.570938 94.396739) scale(0.1 -0.1)">
       <use xlink:href="#DejaVuSans-30"/>
       <use xlink:href="#DejaVuSans-2e" transform="translate(63.623047 0)"/>
       <use xlink:href="#DejaVuSans-31" transform="translate(95.410156 0)"/>
       <use xlink:href="#DejaVuSans-35" transform="translate(159.033203 0)"/>
      </g>
     </g>
    </g>
    <g id="ytick_4">
     <g id="line2d_8">
      <g>
       <use xlink:href="#m8fbc401eb9" x="106.836563" y="61.927972" style="stroke: #000000; stroke-width: 0.8"/>
      </g>
     </g>
     <g id="text_9">
      <!-- 0.20 -->
      <g transform="translate(77.570938 65.727191) scale(0.1 -0.1)">
       <defs>
        <path id="DejaVuSans-32" d="M 1228 531 
L 3431 531 
L 3431 0 
L 469 0 
L 469 531 
Q 828 903 1448 1529 
Q 2069 2156 2228 2338 
Q 2531 2678 2651 2914 
Q 2772 3150 2772 3378 
Q 2772 3750 2511 3984 
Q 2250 4219 1831 4219 
Q 1534 4219 1204 4116 
Q 875 4013 500 3803 
L 500 4441 
Q 881 4594 1212 4672 
Q 1544 4750 1819 4750 
Q 2544 4750 2975 4387 
Q 3406 4025 3406 3419 
Q 3406 3131 3298 2873 
Q 3191 2616 2906 2266 
Q 2828 2175 2409 1742 
Q 1991 1309 1228 531 
z
" transform="scale(0.015625)"/>
       </defs>
       <use xlink:href="#DejaVuSans-30"/>
       <use xlink:href="#DejaVuSans-2e" transform="translate(63.623047 0)"/>
       <use xlink:href="#DejaVuSans-32" transform="translate(95.410156 0)"/>
       <use xlink:href="#DejaVuSans-30" transform="translate(159.033203 0)"/>
      </g>
     </g>
    </g>
    <g id="ytick_5">
     <g id="line2d_9">
      <g>
       <use xlink:href="#m8fbc401eb9" x="106.836563" y="33.258424" style="stroke: #000000; stroke-width: 0.8"/>
      </g>
     </g>
     <g id="text_10">
      <!-- 0.25 -->
      <g transform="translate(77.570938 37.057643) scale(0.1 -0.1)">
       <use xlink:href="#DejaVuSans-30"/>
       <use xlink:href="#DejaVuSans-2e" transform="translate(63.623047 0)"/>
       <use xlink:href="#DejaVuSans-32" transform="translate(95.410156 0)"/>
       <use xlink:href="#DejaVuSans-35" transform="translate(159.033203 0)"/>
      </g>
     </g>
    </g>
    <g id="text_11">
     <!-- NMI Score -->
     <g transform="translate(71.49125 121.739219) rotate(-90) scale(0.1 -0.1)">
      <defs>
       <path id="DejaVuSans-4e" d="M 628 4666 
L 1478 4666 
L 3547 763 
L 3547 4666 
L 4159 4666 
L 4159 0 
L 3309 0 
L 1241 3903 
L 1241 0 
L 628 0 
L 628 4666 
z
" transform="scale(0.015625)"/>
       <path id="DejaVuSans-4d" d="M 628 4666 
L 1569 4666 
L 2759 1491 
L 3956 4666 
L 4897 4666 
L 4897 0 
L 4281 0 
L 4281 4097 
L 3078 897 
L 2444 897 
L 1241 4097 
L 1241 0 
L 628 0 
L 628 4666 
z
" transform="scale(0.015625)"/>
      </defs>
      <use xlink:href="#DejaVuSans-4e"/>
      <use xlink:href="#DejaVuSans-4d" transform="translate(74.804688 0)"/>
      <use xlink:href="#DejaVuSans-49" transform="translate(161.083984 0)"/>
      <use xlink:href="#DejaVuSans-20" transform="translate(190.576172 0)"/>
      <use xlink:href="#DejaVuSans-53" transform="translate(222.363281 0)"/>
      <use xlink:href="#DejaVuSans-63" transform="translate(285.839844 0)"/>
      <use xlink:href="#DejaVuSans-6f" transform="translate(340.820312 0)"/>
      <use xlink:href="#DejaVuSans-72" transform="translate(402.001953 0)"/>
      <use xlink:href="#DejaVuSans-65" transform="translate(440.865234 0)"/>
     </g>
    </g>
   </g>
   <g id="line2d_10"/>
   <g id="line2d_11"/>
   <g id="line2d_12"/>
   <g id="line2d_13"/>
   <g id="line2d_14"/>
   <g id="line2d_15"/>
   <g id="line2d_16"/>
   <g id="line2d_17"/>
   <g id="line2d_18"/>
   <g id="line2d_19"/>
   <g id="patch_3">
    <path d="M 106.836563 170.918125 
L 106.836563 22.318125 
" style="fill: none; stroke: #000000; stroke-width: 0.8; stroke-linejoin: miter; stroke-linecap: square"/>
   </g>
   <g id="patch_4">
    <path d="M 270.486562 170.918125 
L 270.486562 22.318125 
" style="fill: none; stroke: #000000; stroke-width: 0.8; stroke-linejoin: miter; stroke-linecap: square"/>
   </g>
   <g id="patch_5">
    <path d="M 106.836563 170.918125 
L 270.486562 170.918125 
" style="fill: none; stroke: #000000; stroke-width: 0.8; stroke-linejoin: miter; stroke-linecap: square"/>
   </g>
   <g id="patch_6">
    <path d="M 106.836563 22.318125 
L 270.486562 22.318125 
" style="fill: none; stroke: #000000; stroke-width: 0.8; stroke-linejoin: miter; stroke-linecap: square"/>
   </g>
   <g id="text_12">
    <!-- Correlation between ARI and NMI Scores across Embeddings -->
    <g transform="translate(7.2 16.318125) scale(0.12 -0.12)">
     <defs>
      <path id="DejaVuSans-43" d="M 4122 4306 
L 4122 3641 
Q 3803 3938 3442 4084 
Q 3081 4231 2675 4231 
Q 1875 4231 1450 3742 
Q 1025 3253 1025 2328 
Q 1025 1406 1450 917 
Q 1875 428 2675 428 
Q 3081 428 3442 575 
Q 3803 722 4122 1019 
L 4122 359 
Q 3791 134 3420 21 
Q 3050 -91 2638 -91 
Q 1578 -91 968 557 
Q 359 1206 359 2328 
Q 359 3453 968 4101 
Q 1578 4750 2638 4750 
Q 3056 4750 3426 4639 
Q 3797 4528 4122 4306 
z
" transform="scale(0.015625)"/>
      <path id="DejaVuSans-6c" d="M 603 4863 
L 1178 4863 
L 1178 0 
L 603 0 
L 603 4863 
z
" transform="scale(0.015625)"/>
      <path id="DejaVuSans-61" d="M 2194 1759 
Q 1497 1759 1228 1600 
Q 959 1441 959 1056 
Q 959 750 1161 570 
Q 1363 391 1709 391 
Q 2188 391 2477 730 
Q 2766 1069 2766 1631 
L 2766 1759 
L 2194 1759 
z
M 3341 1997 
L 3341 0 
L 2766 0 
L 2766 531 
Q 2569 213 2275 61 
Q 1981 -91 1556 -91 
Q 1019 -91 701 211 
Q 384 513 384 1019 
Q 384 1609 779 1909 
Q 1175 2209 1959 2209 
L 2766 2209 
L 2766 2266 
Q 2766 2663 2505 2880 
Q 2244 3097 1772 3097 
Q 1472 3097 1187 3025 
Q 903 2953 641 2809 
L 641 3341 
Q 956 3463 1253 3523 
Q 1550 3584 1831 3584 
Q 2591 3584 2966 3190 
Q 3341 2797 3341 1997 
z
" transform="scale(0.015625)"/>
      <path id="DejaVuSans-74" d="M 1172 4494 
L 1172 3500 
L 2356 3500 
L 2356 3053 
L 1172 3053 
L 1172 1153 
Q 1172 725 1289 603 
Q 1406 481 1766 481 
L 2356 481 
L 2356 0 
L 1766 0 
Q 1100 0 847 248 
Q 594 497 594 1153 
L 594 3053 
L 172 3053 
L 172 3500 
L 594 3500 
L 594 4494 
L 1172 4494 
z
" transform="scale(0.015625)"/>
      <path id="DejaVuSans-69" d="M 603 3500 
L 1178 3500 
L 1178 0 
L 603 0 
L 603 3500 
z
M 603 4863 
L 1178 4863 
L 1178 4134 
L 603 4134 
L 603 4863 
z
" transform="scale(0.015625)"/>
      <path id="DejaVuSans-6e" d="M 3513 2113 
L 3513 0 
L 2938 0 
L 2938 2094 
Q 2938 2591 2744 2837 
Q 2550 3084 2163 3084 
Q 1697 3084 1428 2787 
Q 1159 2491 1159 1978 
L 1159 0 
L 581 0 
L 581 3500 
L 1159 3500 
L 1159 2956 
Q 1366 3272 1645 3428 
Q 1925 3584 2291 3584 
Q 2894 3584 3203 3211 
Q 3513 2838 3513 2113 
z
" transform="scale(0.015625)"/>
      <path id="DejaVuSans-62" d="M 3116 1747 
Q 3116 2381 2855 2742 
Q 2594 3103 2138 3103 
Q 1681 3103 1420 2742 
Q 1159 2381 1159 1747 
Q 1159 1113 1420 752 
Q 1681 391 2138 391 
Q 2594 391 2855 752 
Q 3116 1113 3116 1747 
z
M 1159 2969 
Q 1341 3281 1617 3432 
Q 1894 3584 2278 3584 
Q 2916 3584 3314 3078 
Q 3713 2572 3713 1747 
Q 3713 922 3314 415 
Q 2916 -91 2278 -91 
Q 1894 -91 1617 61 
Q 1341 213 1159 525 
L 1159 0 
L 581 0 
L 581 4863 
L 1159 4863 
L 1159 2969 
z
" transform="scale(0.015625)"/>
      <path id="DejaVuSans-77" d="M 269 3500 
L 844 3500 
L 1563 769 
L 2278 3500 
L 2956 3500 
L 3675 769 
L 4391 3500 
L 4966 3500 
L 4050 0 
L 3372 0 
L 2619 2869 
L 1863 0 
L 1184 0 
L 269 3500 
z
" transform="scale(0.015625)"/>
      <path id="DejaVuSans-64" d="M 2906 2969 
L 2906 4863 
L 3481 4863 
L 3481 0 
L 2906 0 
L 2906 525 
Q 2725 213 2448 61 
Q 2172 -91 1784 -91 
Q 1150 -91 751 415 
Q 353 922 353 1747 
Q 353 2572 751 3078 
Q 1150 3584 1784 3584 
Q 2172 3584 2448 3432 
Q 2725 3281 2906 2969 
z
M 947 1747 
Q 947 1113 1208 752 
Q 1469 391 1925 391 
Q 2381 391 2643 752 
Q 2906 1113 2906 1747 
Q 2906 2381 2643 2742 
Q 2381 3103 1925 3103 
Q 1469 3103 1208 2742 
Q 947 2381 947 1747 
z
" transform="scale(0.015625)"/>
      <path id="DejaVuSans-73" d="M 2834 3397 
L 2834 2853 
Q 2591 2978 2328 3040 
Q 2066 3103 1784 3103 
Q 1356 3103 1142 2972 
Q 928 2841 928 2578 
Q 928 2378 1081 2264 
Q 1234 2150 1697 2047 
L 1894 2003 
Q 2506 1872 2764 1633 
Q 3022 1394 3022 966 
Q 3022 478 2636 193 
Q 2250 -91 1575 -91 
Q 1294 -91 989 -36 
Q 684 19 347 128 
L 347 722 
Q 666 556 975 473 
Q 1284 391 1588 391 
Q 1994 391 2212 530 
Q 2431 669 2431 922 
Q 2431 1156 2273 1281 
Q 2116 1406 1581 1522 
L 1381 1569 
Q 847 1681 609 1914 
Q 372 2147 372 2553 
Q 372 3047 722 3315 
Q 1072 3584 1716 3584 
Q 2034 3584 2315 3537 
Q 2597 3491 2834 3397 
z
" transform="scale(0.015625)"/>
      <path id="DejaVuSans-45" d="M 628 4666 
L 3578 4666 
L 3578 4134 
L 1259 4134 
L 1259 2753 
L 3481 2753 
L 3481 2222 
L 1259 2222 
L 1259 531 
L 3634 531 
L 3634 0 
L 628 0 
L 628 4666 
z
" transform="scale(0.015625)"/>
      <path id="DejaVuSans-6d" d="M 3328 2828 
Q 3544 3216 3844 3400 
Q 4144 3584 4550 3584 
Q 5097 3584 5394 3201 
Q 5691 2819 5691 2113 
L 5691 0 
L 5113 0 
L 5113 2094 
Q 5113 2597 4934 2840 
Q 4756 3084 4391 3084 
Q 3944 3084 3684 2787 
Q 3425 2491 3425 1978 
L 3425 0 
L 2847 0 
L 2847 2094 
Q 2847 2600 2669 2842 
Q 2491 3084 2119 3084 
Q 1678 3084 1418 2786 
Q 1159 2488 1159 1978 
L 1159 0 
L 581 0 
L 581 3500 
L 1159 3500 
L 1159 2956 
Q 1356 3278 1631 3431 
Q 1906 3584 2284 3584 
Q 2666 3584 2933 3390 
Q 3200 3197 3328 2828 
z
" transform="scale(0.015625)"/>
      <path id="DejaVuSans-67" d="M 2906 1791 
Q 2906 2416 2648 2759 
Q 2391 3103 1925 3103 
Q 1463 3103 1205 2759 
Q 947 2416 947 1791 
Q 947 1169 1205 825 
Q 1463 481 1925 481 
Q 2391 481 2648 825 
Q 2906 1169 2906 1791 
z
M 3481 434 
Q 3481 -459 3084 -895 
Q 2688 -1331 1869 -1331 
Q 1566 -1331 1297 -1286 
Q 1028 -1241 775 -1147 
L 775 -588 
Q 1028 -725 1275 -790 
Q 1522 -856 1778 -856 
Q 2344 -856 2625 -561 
Q 2906 -266 2906 331 
L 2906 616 
Q 2728 306 2450 153 
Q 2172 0 1784 0 
Q 1141 0 747 490 
Q 353 981 353 1791 
Q 353 2603 747 3093 
Q 1141 3584 1784 3584 
Q 2172 3584 2450 3431 
Q 2728 3278 2906 2969 
L 2906 3500 
L 3481 3500 
L 3481 434 
z
" transform="scale(0.015625)"/>
     </defs>
     <use xlink:href="#DejaVuSans-43"/>
     <use xlink:href="#DejaVuSans-6f" transform="translate(69.824219 0)"/>
     <use xlink:href="#DejaVuSans-72" transform="translate(131.005859 0)"/>
     <use xlink:href="#DejaVuSans-72" transform="translate(170.369141 0)"/>
     <use xlink:href="#DejaVuSans-65" transform="translate(209.232422 0)"/>
     <use xlink:href="#DejaVuSans-6c" transform="translate(270.755859 0)"/>
     <use xlink:href="#DejaVuSans-61" transform="translate(298.539062 0)"/>
     <use xlink:href="#DejaVuSans-74" transform="translate(359.818359 0)"/>
     <use xlink:href="#DejaVuSans-69" transform="translate(399.027344 0)"/>
     <use xlink:href="#DejaVuSans-6f" transform="translate(426.810547 0)"/>
     <use xlink:href="#DejaVuSans-6e" transform="translate(487.992188 0)"/>
     <use xlink:href="#DejaVuSans-20" transform="translate(551.371094 0)"/>
     <use xlink:href="#DejaVuSans-62" transform="translate(583.158203 0)"/>
     <use xlink:href="#DejaVuSans-65" transform="translate(646.634766 0)"/>
     <use xlink:href="#DejaVuSans-74" transform="translate(708.158203 0)"/>
     <use xlink:href="#DejaVuSans-77" transform="translate(747.367188 0)"/>
     <use xlink:href="#DejaVuSans-65" transform="translate(829.154297 0)"/>
     <use xlink:href="#DejaVuSans-65" transform="translate(890.677734 0)"/>
     <use xlink:href="#DejaVuSans-6e" transform="translate(952.201172 0)"/>
     <use xlink:href="#DejaVuSans-20" transform="translate(1015.580078 0)"/>
     <use xlink:href="#DejaVuSans-41" transform="translate(1047.367188 0)"/>
     <use xlink:href="#DejaVuSans-52" transform="translate(1115.775391 0)"/>
     <use xlink:href="#DejaVuSans-49" transform="translate(1185.257812 0)"/>
     <use xlink:href="#DejaVuSans-20" transform="translate(1214.75 0)"/>
     <use xlink:href="#DejaVuSans-61" transform="translate(1246.537109 0)"/>
     <use xlink:href="#DejaVuSans-6e" transform="translate(1307.816406 0)"/>
     <use xlink:href="#DejaVuSans-64" transform="translate(1371.195312 0)"/>
     <use xlink:href="#DejaVuSans-20" transform="translate(1434.671875 0)"/>
     <use xlink:href="#DejaVuSans-4e" transform="translate(1466.458984 0)"/>
     <use xlink:href="#DejaVuSans-4d" transform="translate(1541.263672 0)"/>
     <use xlink:href="#DejaVuSans-49" transform="translate(1627.542969 0)"/>
     <use xlink:href="#DejaVuSans-20" transform="translate(1657.035156 0)"/>
     <use xlink:href="#DejaVuSans-53" transform="translate(1688.822266 0)"/>
     <use xlink:href="#DejaVuSans-63" transform="translate(1752.298828 0)"/>
     <use xlink:href="#DejaVuSans-6f" transform="translate(1807.279297 0)"/>
     <use xlink:href="#DejaVuSans-72" transform="translate(1868.460938 0)"/>
     <use xlink:href="#DejaVuSans-65" transform="translate(1907.324219 0)"/>
     <use xlink:href="#DejaVuSans-73" transform="translate(1968.847656 0)"/>
     <use xlink:href="#DejaVuSans-20" transform="translate(2020.947266 0)"/>
     <use xlink:href="#DejaVuSans-61" transform="translate(2052.734375 0)"/>
     <use xlink:href="#DejaVuSans-63" transform="translate(2114.013672 0)"/>
     <use xlink:href="#DejaVuSans-72" transform="translate(2168.994141 0)"/>
     <use xlink:href="#DejaVuSans-6f" transform="translate(2207.857422 0)"/>
     <use xlink:href="#DejaVuSans-73" transform="translate(2269.039062 0)"/>
     <use xlink:href="#DejaVuSans-73" transform="translate(2321.138672 0)"/>
     <use xlink:href="#DejaVuSans-20" transform="translate(2373.238281 0)"/>
     <use xlink:href="#DejaVuSans-45" transform="translate(2405.025391 0)"/>
     <use xlink:href="#DejaVuSans-6d" transform="translate(2468.208984 0)"/>
     <use xlink:href="#DejaVuSans-62" transform="translate(2565.621094 0)"/>
     <use xlink:href="#DejaVuSans-65" transform="translate(2629.097656 0)"/>
     <use xlink:href="#DejaVuSans-64" transform="translate(2690.621094 0)"/>
     <use xlink:href="#DejaVuSans-64" transform="translate(2754.097656 0)"/>
     <use xlink:href="#DejaVuSans-69" transform="translate(2817.574219 0)"/>
     <use xlink:href="#DejaVuSans-6e" transform="translate(2845.357422 0)"/>
     <use xlink:href="#DejaVuSans-67" transform="translate(2908.736328 0)"/>
     <use xlink:href="#DejaVuSans-73" transform="translate(2972.212891 0)"/>
    </g>
   </g>
   <g id="legend_1">
    <g id="patch_7">
     <path d="M 285.669062 193.168125 
L 463.201875 193.168125 
Q 465.201875 193.168125 465.201875 191.168125 
L 465.201875 29.318125 
Q 465.201875 27.318125 463.201875 27.318125 
L 285.669062 27.318125 
Q 283.669062 27.318125 283.669062 29.318125 
L 283.669062 191.168125 
Q 283.669062 193.168125 285.669062 193.168125 
z
" style="fill: #ffffff; opacity: 0.8; stroke: #cccccc; stroke-linejoin: miter"/>
    </g>
    <g id="text_13">
     <!-- Embedding and Clustering Method -->
     <g transform="translate(287.669062 38.916562) scale(0.1 -0.1)">
      <defs>
       <path id="DejaVuSans-75" d="M 544 1381 
L 544 3500 
L 1119 3500 
L 1119 1403 
Q 1119 906 1312 657 
Q 1506 409 1894 409 
Q 2359 409 2629 706 
Q 2900 1003 2900 1516 
L 2900 3500 
L 3475 3500 
L 3475 0 
L 2900 0 
L 2900 538 
Q 2691 219 2414 64 
Q 2138 -91 1772 -91 
Q 1169 -91 856 284 
Q 544 659 544 1381 
z
M 1991 3584 
L 1991 3584 
z
" transform="scale(0.015625)"/>
       <path id="DejaVuSans-68" d="M 3513 2113 
L 3513 0 
L 2938 0 
L 2938 2094 
Q 2938 2591 2744 2837 
Q 2550 3084 2163 3084 
Q 1697 3084 1428 2787 
Q 1159 2491 1159 1978 
L 1159 0 
L 581 0 
L 581 4863 
L 1159 4863 
L 1159 2956 
Q 1366 3272 1645 3428 
Q 1925 3584 2291 3584 
Q 2894 3584 3203 3211 
Q 3513 2838 3513 2113 
z
" transform="scale(0.015625)"/>
      </defs>
      <use xlink:href="#DejaVuSans-45"/>
      <use xlink:href="#DejaVuSans-6d" transform="translate(63.183594 0)"/>
      <use xlink:href="#DejaVuSans-62" transform="translate(160.595703 0)"/>
      <use xlink:href="#DejaVuSans-65" transform="translate(224.072266 0)"/>
      <use xlink:href="#DejaVuSans-64" transform="translate(285.595703 0)"/>
      <use xlink:href="#DejaVuSans-64" transform="translate(349.072266 0)"/>
      <use xlink:href="#DejaVuSans-69" transform="translate(412.548828 0)"/>
      <use xlink:href="#DejaVuSans-6e" transform="translate(440.332031 0)"/>
      <use xlink:href="#DejaVuSans-67" transform="translate(503.710938 0)"/>
      <use xlink:href="#DejaVuSans-20" transform="translate(567.1875 0)"/>
      <use xlink:href="#DejaVuSans-61" transform="translate(598.974609 0)"/>
      <use xlink:href="#DejaVuSans-6e" transform="translate(660.253906 0)"/>
      <use xlink:href="#DejaVuSans-64" transform="translate(723.632812 0)"/>
      <use xlink:href="#DejaVuSans-20" transform="translate(787.109375 0)"/>
      <use xlink:href="#DejaVuSans-43" transform="translate(818.896484 0)"/>
      <use xlink:href="#DejaVuSans-6c" transform="translate(888.720703 0)"/>
      <use xlink:href="#DejaVuSans-75" transform="translate(916.503906 0)"/>
      <use xlink:href="#DejaVuSans-73" transform="translate(979.882812 0)"/>
      <use xlink:href="#DejaVuSans-74" transform="translate(1031.982422 0)"/>
      <use xlink:href="#DejaVuSans-65" transform="translate(1071.191406 0)"/>
      <use xlink:href="#DejaVuSans-72" transform="translate(1132.714844 0)"/>
      <use xlink:href="#DejaVuSans-69" transform="translate(1173.828125 0)"/>
      <use xlink:href="#DejaVuSans-6e" transform="translate(1201.611328 0)"/>
      <use xlink:href="#DejaVuSans-67" transform="translate(1264.990234 0)"/>
      <use xlink:href="#DejaVuSans-20" transform="translate(1328.466797 0)"/>
      <use xlink:href="#DejaVuSans-4d" transform="translate(1360.253906 0)"/>
      <use xlink:href="#DejaVuSans-65" transform="translate(1446.533203 0)"/>
      <use xlink:href="#DejaVuSans-74" transform="translate(1508.056641 0)"/>
      <use xlink:href="#DejaVuSans-68" transform="translate(1547.265625 0)"/>
      <use xlink:href="#DejaVuSans-6f" transform="translate(1610.644531 0)"/>
      <use xlink:href="#DejaVuSans-64" transform="translate(1671.826172 0)"/>
     </g>
    </g>
    <g id="line2d_20"/>
    <g id="text_14">
     <!-- embedding -->
     <g transform="translate(354.308125 53.594687) scale(0.1 -0.1)">
      <use xlink:href="#DejaVuSans-65"/>
      <use xlink:href="#DejaVuSans-6d" transform="translate(61.523438 0)"/>
      <use xlink:href="#DejaVuSans-62" transform="translate(158.935547 0)"/>
      <use xlink:href="#DejaVuSans-65" transform="translate(222.412109 0)"/>
      <use xlink:href="#DejaVuSans-64" transform="translate(283.935547 0)"/>
      <use xlink:href="#DejaVuSans-64" transform="translate(347.412109 0)"/>
      <use xlink:href="#DejaVuSans-69" transform="translate(410.888672 0)"/>
      <use xlink:href="#DejaVuSans-6e" transform="translate(438.671875 0)"/>
      <use xlink:href="#DejaVuSans-67" transform="translate(502.050781 0)"/>
     </g>
    </g>
    <g id="line2d_21">
     <defs>
      <path id="mc0a9d6f0f7" d="M 0 5 
C 1.326016 5 2.597899 4.473168 3.535534 3.535534 
C 4.473168 2.597899 5 1.326016 5 0 
C 5 -1.326016 4.473168 -2.597899 3.535534 -3.535534 
C 2.597899 -4.473168 1.326016 -5 0 -5 
C -1.326016 -5 -2.597899 -4.473168 -3.535534 -3.535534 
C -4.473168 -2.597899 -5 -1.326016 -5 0 
C -5 1.326016 -4.473168 2.597899 -3.535534 3.535534 
C -2.597899 4.473168 -1.326016 5 0 5 
z
" style="stroke: #ffffff; stroke-width: 0.8"/>
     </defs>
     <g>
      <use xlink:href="#mc0a9d6f0f7" x="336.308125" y="64.772812" style="fill: #1f77b4; stroke: #ffffff; stroke-width: 0.8"/>
     </g>
    </g>
    <g id="text_15">
     <!-- bag_of_words -->
     <g transform="translate(354.308125 68.272812) scale(0.1 -0.1)">
      <defs>
       <path id="DejaVuSans-5f" d="M 3263 -1063 
L 3263 -1509 
L -63 -1509 
L -63 -1063 
L 3263 -1063 
z
" transform="scale(0.015625)"/>
       <path id="DejaVuSans-66" d="M 2375 4863 
L 2375 4384 
L 1825 4384 
Q 1516 4384 1395 4259 
Q 1275 4134 1275 3809 
L 1275 3500 
L 2222 3500 
L 2222 3053 
L 1275 3053 
L 1275 0 
L 697 0 
L 697 3053 
L 147 3053 
L 147 3500 
L 697 3500 
L 697 3744 
Q 697 4328 969 4595 
Q 1241 4863 1831 4863 
L 2375 4863 
z
" transform="scale(0.015625)"/>
      </defs>
      <use xlink:href="#DejaVuSans-62"/>
      <use xlink:href="#DejaVuSans-61" transform="translate(63.476562 0)"/>
      <use xlink:href="#DejaVuSans-67" transform="translate(124.755859 0)"/>
      <use xlink:href="#DejaVuSans-5f" transform="translate(188.232422 0)"/>
      <use xlink:href="#DejaVuSans-6f" transform="translate(238.232422 0)"/>
      <use xlink:href="#DejaVuSans-66" transform="translate(299.414062 0)"/>
      <use xlink:href="#DejaVuSans-5f" transform="translate(334.619141 0)"/>
      <use xlink:href="#DejaVuSans-77" transform="translate(384.619141 0)"/>
      <use xlink:href="#DejaVuSans-6f" transform="translate(466.40625 0)"/>
      <use xlink:href="#DejaVuSans-72" transform="translate(527.587891 0)"/>
      <use xlink:href="#DejaVuSans-64" transform="translate(566.951172 0)"/>
      <use xlink:href="#DejaVuSans-73" transform="translate(630.427734 0)"/>
     </g>
    </g>
    <g id="line2d_22">
     <defs>
      <path id="mf7e3f281a3" d="M 0 5 
C 1.326016 5 2.597899 4.473168 3.535534 3.535534 
C 4.473168 2.597899 5 1.326016 5 0 
C 5 -1.326016 4.473168 -2.597899 3.535534 -3.535534 
C 2.597899 -4.473168 1.326016 -5 0 -5 
C -1.326016 -5 -2.597899 -4.473168 -3.535534 -3.535534 
C -4.473168 -2.597899 -5 -1.326016 -5 0 
C -5 1.326016 -4.473168 2.597899 -3.535534 3.535534 
C -2.597899 4.473168 -1.326016 5 0 5 
z
" style="stroke: #ffffff; stroke-width: 0.8"/>
     </defs>
     <g>
      <use xlink:href="#mf7e3f281a3" x="336.308125" y="79.729062" style="fill: #ff7f0e; stroke: #ffffff; stroke-width: 0.8"/>
     </g>
    </g>
    <g id="text_16">
     <!-- esm2_150M -->
     <g transform="translate(354.308125 83.229062) scale(0.1 -0.1)">
      <use xlink:href="#DejaVuSans-65"/>
      <use xlink:href="#DejaVuSans-73" transform="translate(61.523438 0)"/>
      <use xlink:href="#DejaVuSans-6d" transform="translate(113.623047 0)"/>
      <use xlink:href="#DejaVuSans-32" transform="translate(211.035156 0)"/>
      <use xlink:href="#DejaVuSans-5f" transform="translate(274.658203 0)"/>
      <use xlink:href="#DejaVuSans-31" transform="translate(324.658203 0)"/>
      <use xlink:href="#DejaVuSans-35" transform="translate(388.28125 0)"/>
      <use xlink:href="#DejaVuSans-30" transform="translate(451.904297 0)"/>
      <use xlink:href="#DejaVuSans-4d" transform="translate(515.527344 0)"/>
     </g>
    </g>
    <g id="line2d_23">
     <defs>
      <path id="m46302cc00d" d="M 0 5 
C 1.326016 5 2.597899 4.473168 3.535534 3.535534 
C 4.473168 2.597899 5 1.326016 5 0 
C 5 -1.326016 4.473168 -2.597899 3.535534 -3.535534 
C 2.597899 -4.473168 1.326016 -5 0 -5 
C -1.326016 -5 -2.597899 -4.473168 -3.535534 -3.535534 
C -4.473168 -2.597899 -5 -1.326016 -5 0 
C -5 1.326016 -4.473168 2.597899 -3.535534 3.535534 
C -2.597899 4.473168 -1.326016 5 0 5 
z
" style="stroke: #ffffff; stroke-width: 0.8"/>
     </defs>
     <g>
      <use xlink:href="#m46302cc00d" x="336.308125" y="94.685312" style="fill: #2ca02c; stroke: #ffffff; stroke-width: 0.8"/>
     </g>
    </g>
    <g id="text_17">
     <!-- esm2_35M -->
     <g transform="translate(354.308125 98.185312) scale(0.1 -0.1)">
      <defs>
       <path id="DejaVuSans-33" d="M 2597 2516 
Q 3050 2419 3304 2112 
Q 3559 1806 3559 1356 
Q 3559 666 3084 287 
Q 2609 -91 1734 -91 
Q 1441 -91 1130 -33 
Q 819 25 488 141 
L 488 750 
Q 750 597 1062 519 
Q 1375 441 1716 441 
Q 2309 441 2620 675 
Q 2931 909 2931 1356 
Q 2931 1769 2642 2001 
Q 2353 2234 1838 2234 
L 1294 2234 
L 1294 2753 
L 1863 2753 
Q 2328 2753 2575 2939 
Q 2822 3125 2822 3475 
Q 2822 3834 2567 4026 
Q 2313 4219 1838 4219 
Q 1578 4219 1281 4162 
Q 984 4106 628 3988 
L 628 4550 
Q 988 4650 1302 4700 
Q 1616 4750 1894 4750 
Q 2613 4750 3031 4423 
Q 3450 4097 3450 3541 
Q 3450 3153 3228 2886 
Q 3006 2619 2597 2516 
z
" transform="scale(0.015625)"/>
      </defs>
      <use xlink:href="#DejaVuSans-65"/>
      <use xlink:href="#DejaVuSans-73" transform="translate(61.523438 0)"/>
      <use xlink:href="#DejaVuSans-6d" transform="translate(113.623047 0)"/>
      <use xlink:href="#DejaVuSans-32" transform="translate(211.035156 0)"/>
      <use xlink:href="#DejaVuSans-5f" transform="translate(274.658203 0)"/>
      <use xlink:href="#DejaVuSans-33" transform="translate(324.658203 0)"/>
      <use xlink:href="#DejaVuSans-35" transform="translate(388.28125 0)"/>
      <use xlink:href="#DejaVuSans-4d" transform="translate(451.904297 0)"/>
     </g>
    </g>
    <g id="line2d_24">
     <defs>
      <path id="me73ccd49b3" d="M 0 5 
C 1.326016 5 2.597899 4.473168 3.535534 3.535534 
C 4.473168 2.597899 5 1.326016 5 0 
C 5 -1.326016 4.473168 -2.597899 3.535534 -3.535534 
C 2.597899 -4.473168 1.326016 -5 0 -5 
C -1.326016 -5 -2.597899 -4.473168 -3.535534 -3.535534 
C -4.473168 -2.597899 -5 -1.326016 -5 0 
C -5 1.326016 -4.473168 2.597899 -3.535534 3.535534 
C -2.597899 4.473168 -1.326016 5 0 5 
z
" style="stroke: #ffffff; stroke-width: 0.8"/>
     </defs>
     <g>
      <use xlink:href="#me73ccd49b3" x="336.308125" y="109.641562" style="fill: #d62728; stroke: #ffffff; stroke-width: 0.8"/>
     </g>
    </g>
    <g id="text_18">
     <!-- esm2_8M -->
     <g transform="translate(354.308125 113.141562) scale(0.1 -0.1)">
      <defs>
       <path id="DejaVuSans-38" d="M 2034 2216 
Q 1584 2216 1326 1975 
Q 1069 1734 1069 1313 
Q 1069 891 1326 650 
Q 1584 409 2034 409 
Q 2484 409 2743 651 
Q 3003 894 3003 1313 
Q 3003 1734 2745 1975 
Q 2488 2216 2034 2216 
z
M 1403 2484 
Q 997 2584 770 2862 
Q 544 3141 544 3541 
Q 544 4100 942 4425 
Q 1341 4750 2034 4750 
Q 2731 4750 3128 4425 
Q 3525 4100 3525 3541 
Q 3525 3141 3298 2862 
Q 3072 2584 2669 2484 
Q 3125 2378 3379 2068 
Q 3634 1759 3634 1313 
Q 3634 634 3220 271 
Q 2806 -91 2034 -91 
Q 1263 -91 848 271 
Q 434 634 434 1313 
Q 434 1759 690 2068 
Q 947 2378 1403 2484 
z
M 1172 3481 
Q 1172 3119 1398 2916 
Q 1625 2713 2034 2713 
Q 2441 2713 2670 2916 
Q 2900 3119 2900 3481 
Q 2900 3844 2670 4047 
Q 2441 4250 2034 4250 
Q 1625 4250 1398 4047 
Q 1172 3844 1172 3481 
z
" transform="scale(0.015625)"/>
      </defs>
      <use xlink:href="#DejaVuSans-65"/>
      <use xlink:href="#DejaVuSans-73" transform="translate(61.523438 0)"/>
      <use xlink:href="#DejaVuSans-6d" transform="translate(113.623047 0)"/>
      <use xlink:href="#DejaVuSans-32" transform="translate(211.035156 0)"/>
      <use xlink:href="#DejaVuSans-5f" transform="translate(274.658203 0)"/>
      <use xlink:href="#DejaVuSans-38" transform="translate(324.658203 0)"/>
      <use xlink:href="#DejaVuSans-4d" transform="translate(388.28125 0)"/>
     </g>
    </g>
    <g id="line2d_25">
     <defs>
      <path id="m3d5f10406b" d="M 0 5 
C 1.326016 5 2.597899 4.473168 3.535534 3.535534 
C 4.473168 2.597899 5 1.326016 5 0 
C 5 -1.326016 4.473168 -2.597899 3.535534 -3.535534 
C 2.597899 -4.473168 1.326016 -5 0 -5 
C -1.326016 -5 -2.597899 -4.473168 -3.535534 -3.535534 
C -4.473168 -2.597899 -5 -1.326016 -5 0 
C -5 1.326016 -4.473168 2.597899 -3.535534 3.535534 
C -2.597899 4.473168 -1.326016 5 0 5 
z
" style="stroke: #ffffff; stroke-width: 0.8"/>
     </defs>
     <g>
      <use xlink:href="#m3d5f10406b" x="336.308125" y="124.597812" style="fill: #9467bd; stroke: #ffffff; stroke-width: 0.8"/>
     </g>
    </g>
    <g id="text_19">
     <!-- prot_bert -->
     <g transform="translate(354.308125 128.097812) scale(0.1 -0.1)">
      <defs>
       <path id="DejaVuSans-70" d="M 1159 525 
L 1159 -1331 
L 581 -1331 
L 581 3500 
L 1159 3500 
L 1159 2969 
Q 1341 3281 1617 3432 
Q 1894 3584 2278 3584 
Q 2916 3584 3314 3078 
Q 3713 2572 3713 1747 
Q 3713 922 3314 415 
Q 2916 -91 2278 -91 
Q 1894 -91 1617 61 
Q 1341 213 1159 525 
z
M 3116 1747 
Q 3116 2381 2855 2742 
Q 2594 3103 2138 3103 
Q 1681 3103 1420 2742 
Q 1159 2381 1159 1747 
Q 1159 1113 1420 752 
Q 1681 391 2138 391 
Q 2594 391 2855 752 
Q 3116 1113 3116 1747 
z
" transform="scale(0.015625)"/>
      </defs>
      <use xlink:href="#DejaVuSans-70"/>
      <use xlink:href="#DejaVuSans-72" transform="translate(63.476562 0)"/>
      <use xlink:href="#DejaVuSans-6f" transform="translate(102.339844 0)"/>
      <use xlink:href="#DejaVuSans-74" transform="translate(163.521484 0)"/>
      <use xlink:href="#DejaVuSans-5f" transform="translate(202.730469 0)"/>
      <use xlink:href="#DejaVuSans-62" transform="translate(252.730469 0)"/>
      <use xlink:href="#DejaVuSans-65" transform="translate(316.207031 0)"/>
      <use xlink:href="#DejaVuSans-72" transform="translate(377.730469 0)"/>
      <use xlink:href="#DejaVuSans-74" transform="translate(418.84375 0)"/>
     </g>
    </g>
    <g id="line2d_26"/>
    <g id="text_20">
     <!-- clustering -->
     <g transform="translate(354.308125 143.054062) scale(0.1 -0.1)">
      <use xlink:href="#DejaVuSans-63"/>
      <use xlink:href="#DejaVuSans-6c" transform="translate(54.980469 0)"/>
      <use xlink:href="#DejaVuSans-75" transform="translate(82.763672 0)"/>
      <use xlink:href="#DejaVuSans-73" transform="translate(146.142578 0)"/>
      <use xlink:href="#DejaVuSans-74" transform="translate(198.242188 0)"/>
      <use xlink:href="#DejaVuSans-65" transform="translate(237.451172 0)"/>
      <use xlink:href="#DejaVuSans-72" transform="translate(298.974609 0)"/>
      <use xlink:href="#DejaVuSans-69" transform="translate(340.087891 0)"/>
      <use xlink:href="#DejaVuSans-6e" transform="translate(367.871094 0)"/>
      <use xlink:href="#DejaVuSans-67" transform="translate(431.25 0)"/>
     </g>
    </g>
    <g id="line2d_27">
     <defs>
      <path id="m0605ecbd33" d="M 0 5 
C 1.326016 5 2.597899 4.473168 3.535534 3.535534 
C 4.473168 2.597899 5 1.326016 5 0 
C 5 -1.326016 4.473168 -2.597899 3.535534 -3.535534 
C 2.597899 -4.473168 1.326016 -5 0 -5 
C -1.326016 -5 -2.597899 -4.473168 -3.535534 -3.535534 
C -4.473168 -2.597899 -5 -1.326016 -5 0 
C -5 1.326016 -4.473168 2.597899 -3.535534 3.535534 
C -2.597899 4.473168 -1.326016 5 0 5 
z
" style="stroke: #ffffff; stroke-width: 0.8"/>
     </defs>
     <g>
      <use xlink:href="#m0605ecbd33" x="336.308125" y="154.232187" style="fill: #333333; stroke: #ffffff; stroke-width: 0.8"/>
     </g>
    </g>
    <g id="text_21">
     <!-- hierarchical -->
     <g transform="translate(354.308125 157.732187) scale(0.1 -0.1)">
      <use xlink:href="#DejaVuSans-68"/>
      <use xlink:href="#DejaVuSans-69" transform="translate(63.378906 0)"/>
      <use xlink:href="#DejaVuSans-65" transform="translate(91.162109 0)"/>
      <use xlink:href="#DejaVuSans-72" transform="translate(152.685547 0)"/>
      <use xlink:href="#DejaVuSans-61" transform="translate(193.798828 0)"/>
      <use xlink:href="#DejaVuSans-72" transform="translate(255.078125 0)"/>
      <use xlink:href="#DejaVuSans-63" transform="translate(293.941406 0)"/>
      <use xlink:href="#DejaVuSans-68" transform="translate(348.921875 0)"/>
      <use xlink:href="#DejaVuSans-69" transform="translate(412.300781 0)"/>
      <use xlink:href="#DejaVuSans-63" transform="translate(440.083984 0)"/>
      <use xlink:href="#DejaVuSans-61" transform="translate(495.064453 0)"/>
      <use xlink:href="#DejaVuSans-6c" transform="translate(556.34375 0)"/>
     </g>
    </g>
    <g id="line2d_28">
     <defs>
      <path id="m92442cc64e" d="M -2.5 5 
L 0 2.5 
L 2.5 5 
L 5 2.5 
L 2.5 0 
L 5 -2.5 
L 2.5 -5 
L 0 -2.5 
L -2.5 -5 
L -5 -2.5 
L -2.5 0 
L -5 2.5 
z
" style="stroke: #ffffff; stroke-width: 0.8; stroke-linejoin: miter"/>
     </defs>
     <g>
      <use xlink:href="#m92442cc64e" x="336.308125" y="168.910312" style="fill: #333333; stroke: #ffffff; stroke-width: 0.8; stroke-linejoin: miter"/>
     </g>
    </g>
    <g id="text_22">
     <!-- kmeans -->
     <g transform="translate(354.308125 172.410312) scale(0.1 -0.1)">
      <defs>
       <path id="DejaVuSans-6b" d="M 581 4863 
L 1159 4863 
L 1159 1991 
L 2875 3500 
L 3609 3500 
L 1753 1863 
L 3688 0 
L 2938 0 
L 1159 1709 
L 1159 0 
L 581 0 
L 581 4863 
z
" transform="scale(0.015625)"/>
      </defs>
      <use xlink:href="#DejaVuSans-6b"/>
      <use xlink:href="#DejaVuSans-6d" transform="translate(57.910156 0)"/>
      <use xlink:href="#DejaVuSans-65" transform="translate(155.322266 0)"/>
      <use xlink:href="#DejaVuSans-61" transform="translate(216.845703 0)"/>
      <use xlink:href="#DejaVuSans-6e" transform="translate(278.125 0)"/>
      <use xlink:href="#DejaVuSans-73" transform="translate(341.503906 0)"/>
     </g>
    </g>
    <g id="line2d_29">
     <defs>
      <path id="m0892f7c585" d="M -3.535534 -3.535534 
L -3.535534 3.535534 
L 3.535534 3.535534 
L 3.535534 -3.535534 
z
" style="stroke: #ffffff; stroke-width: 0.8; stroke-linejoin: miter"/>
     </defs>
     <g>
      <use xlink:href="#m0892f7c585" x="336.308125" y="183.588437" style="fill: #333333; stroke: #ffffff; stroke-width: 0.8; stroke-linejoin: miter"/>
     </g>
    </g>
    <g id="text_23">
     <!-- spectral -->
     <g transform="translate(354.308125 187.088437) scale(0.1 -0.1)">
      <use xlink:href="#DejaVuSans-73"/>
      <use xlink:href="#DejaVuSans-70" transform="translate(52.099609 0)"/>
      <use xlink:href="#DejaVuSans-65" transform="translate(115.576172 0)"/>
      <use xlink:href="#DejaVuSans-63" transform="translate(177.099609 0)"/>
      <use xlink:href="#DejaVuSans-74" transform="translate(232.080078 0)"/>
      <use xlink:href="#DejaVuSans-72" transform="translate(271.289062 0)"/>
      <use xlink:href="#DejaVuSans-61" transform="translate(312.402344 0)"/>
      <use xlink:href="#DejaVuSans-6c" transform="translate(373.681641 0)"/>
     </g>
    </g>
   </g>
  </g>
 </g>
 <defs>
  <clipPath id="pe19886f742">
   <rect x="106.836563" y="22.318125" width="163.65" height="148.6"/>
  </clipPath>
 </defs>
</svg>
